<?xml version="1.0" standalone="no"?>
<!DOCTYPE svg PUBLIC "-//W3C//DTD SVG 1.1//EN" "http://www.w3.org/Graphics/SVG/1.1/DTD/svg11.dtd" >
<svg xmlns="http://www.w3.org/2000/svg" xmlns:xlink="http://www.w3.org/1999/xlink" version="1.1">
<metadata></metadata>
<defs>
<font id="lovea_hegenaregular" horiz-adv-x="630" >
<font-face units-per-em="2048" ascent="1638" descent="-410" />
<missing-glyph horiz-adv-x="409" />
<glyph horiz-adv-x="0" />
<glyph horiz-adv-x="682" />
<glyph unicode=" "  horiz-adv-x="409" />
<glyph unicode="&#x09;" horiz-adv-x="409" />
<glyph unicode="&#xa0;" horiz-adv-x="409" />
<glyph unicode="!" horiz-adv-x="294" d="M83 802q-3 113 1 256q2 57 10 90q16 31 61 31q15 0 28 -3q20 -4 33.5 -21.5t9.5 -37.5q-4 -33 -7 -147.5t-5 -238.5t-3 -148q-4 -186 9 -270q6 -44 27 -56l-1 -27q-62 0 -88 34q-24 35 -38.5 73.5t-21 91.5t-7.5 75t-3 83q-4 127 -5 215zM86 90q0 34 23 57.5t57 23.5 t57.5 -23.5t23.5 -57.5t-23.5 -57.5t-57.5 -23.5t-57 23.5t-23 57.5z" />
<glyph unicode="&#x22;" horiz-adv-x="335" d="M82 1116q2 27 17 45t34 18h2q19 -1 31 -22t10 -49q-3 -40 -49 -166q-13 -36 -15 -33q4 62 -4 105.5t-17.5 66t-8.5 35.5zM193 1116q2 27 16.5 45t33.5 18h2q20 -2 32 -22.5t10 -48.5q-3 -40 -49 -166q-14 -36 -16 -33q4 62 -4 105.5t-17 66t-8 35.5z" />
<glyph unicode="#" horiz-adv-x="786" d="M82 312q-1 15 6 31l8 -3q-1 -9 17.5 -14.5t52.5 -8.5q30 -3 99 -3v123q-3 0 -8 0.5t-8 0.5q-78 6 -109 24q-21 13 -23 51q-2 17 5 31l9 -3q-1 -9 17.5 -14.5t52.5 -8.5q40 -4 66 -4q0 2 0.5 6t0.5 6q6 83 21 128t47 52q31 6 20 -23q-4 -9 -7 -44q-3 -46 -3 -125 q17 0 38 1t22 1h58q0 37 4 99q6 83 21 128t47 52q4 1 10 1q19 0 10 -24q-4 -9 -7 -44q-4 -62 -2 -214q14 -1 40 -3q71 -6 108.5 -21.5t43.5 -47.5q2 -15 -2.5 -20t-16.5 1q-8 4 -38 7q-32 3 -134 3q0 -83 -1 -122h5q72 -7 109.5 -22t43.5 -47q2 -15 -2.5 -20.5t-16.5 0.5 q-8 4 -38 7q-39 3 -104 3q0 -2 -0.5 -6.5t-0.5 -6.5q-7 -95 -23 -129q-14 -25 -51 -27q-17 -2 -31 6l3 10q9 -1 15 21.5t8 61.5q3 66 3 70h-120q-2 -70 -4 -102q-7 -95 -23 -129q-14 -25 -51 -27q-17 -2 -31 6l3 10q9 -1 15 21.5t8 61.5q5 77 3 161q-10 1 -27.5 2.5 t-24.5 1.5q-79 6 -110 24q-21 13 -23 50zM347 434q0 -19 0.5 -59t0.5 -60q6 0 14 0.5t9 0.5q64 0 96 -1q-2 84 -2 87v31q-80 0 -118 1z" />
<glyph unicode="$" horiz-adv-x="733" d="M82 78v119h10q10 -7 40 -24q35 -18 58 -26q31 -12 72 -22t83 -11q0 122 -2 262q-7 1 -19.5 3.5t-16.5 3.5q-8 2 -20.5 5.5t-16.5 4.5q-97 24 -141 74q-43 51 -43 122q0 90 70 151t191 71q8 79 28.5 122t61.5 49q5 1 13 1q26 0 13 -24q-6 -11 -9 -44q-3 -28 -3 -104 q49 -3 96 -13q67 -14 107 -31v-117h-8q-46 28 -94 48q-39 17 -101 25q0 -37 0.5 -126t0.5 -137q1 0 5 -1t5 -1q4 -1 17.5 -4t19.5 -4q90 -20 138 -66q49 -46 49 -128q0 -93 -72 -155q-63 -55 -167 -70q0 -4 -0.5 -10t-0.5 -8q-8 -93 -31 -129q-18 -25 -68 -27q-22 -1 -41 6 l4 10q13 -1 20.5 21.5t10.5 61.5q1 21 3 69q-75 1 -141 15q-75 16 -121 38zM200 605q0 -53 33 -82q31 -26 108 -44q0 166 2 245q-58 -6 -99 -35q-44 -30 -44 -84zM451 119q53 9 83 33q39 30 39 88q0 56 -36 82q-32 24 -84 36q0 -107 -2 -239z" />
<glyph unicode="%" horiz-adv-x="720" d="M82 -83l7 7q11 -6 27 12t35 52q27 49 103.5 226.5t98.5 233.5q98 235 142 313q37 66 69 99t67 32q9 0 19 -3q39 -11 15 -31q-9 -7 -26 -37q-22 -40 -174.5 -393.5t-194.5 -429.5q-48 -85 -80 -106q-26 -16 -73 2q-19 7 -35 23zM161 649q0 34 23 57t57 23t57.5 -23 t23.5 -57t-23.5 -57.5t-57.5 -23.5t-57 23.5t-23 57.5zM429 90q0 34 23.5 57.5t57.5 23.5t57 -23.5t23 -57.5t-23 -57.5t-57 -23.5t-57.5 23.5t-23.5 57.5z" />
<glyph unicode="&#x26;" horiz-adv-x="958" d="M82 271q4 117 66 190t185 87q-146 52 -146 175q5 79 65 126t140 48q75 0 123.5 -45.5t43.5 -103.5q-1 -8 -6 -14q-9 -19 -28 -19q-13 0 -22 9t-9 22t9 22t22 9q4 0 10 -2q0 1 1 3q-21 39 -61.5 51t-79 -1t-67.5 -46t-28 -74q0 -62 19 -99t77 -58q9 -4 9 -11q0 -9 -13 -9 h-7q-97 -14 -146 -88.5t-54 -173.5q0 -87 44 -155.5t135 -73.5l24 -1q91 0 156.5 32.5t93.5 91.5q-42 32 -63 50q-2 2 -14.5 13t-18.5 19q20 17 36 27.5t29.5 13t23.5 3t21.5 -6.5t18.5 -11.5t20.5 -16.5t20.5 -18q106 -80 147 -98q25 -11 37 0q2 -2 7 -6t7 -6 q-17 -48 -41 -55q-36 -12 -107 17q-56 27 -105 61q-68 -129 -269 -129h-3q-139 1 -221 71.5t-82 179.5z" />
<glyph unicode="'" horiz-adv-x="223" d="M82 1116q2 28 17.5 46t35.5 16q19 -1 31 -21.5t10 -48.5q-3 -40 -49 -166q-13 -36 -15 -33q4 62 -4 105.5t-17.5 66t-8.5 35.5z" />
<glyph unicode="(" horiz-adv-x="450" d="M82 591v8v9q0 7 0.5 20.5t0.5 20.5h1q8 147 57 267q48 117 126 218q27 33 57 51.5t52 18.5q32 0 26 -36t-51 -94q-47 -62 -82 -133q-37 -75 -59 -163q-20 -83 -22 -179q0 -89 22 -179q22 -88 59 -163q35 -71 82 -133q30 -38 43 -68l1 -1q1 -1 1 -2q1 -4 3 -10 q7 -25 0 -37.5t-26 -11.5q-31 -1 -66 24t-56 52q-64 83 -110 195q-59 145 -59 326z" />
<glyph unicode=")" horiz-adv-x="450" d="M86 5.5q-7 12.5 0 37.5q2 6 3 10l1 1q0 2 1 2q13 30 43 68q47 62 82 133q37 75 59 163q22 90 22 179q-2 96 -22 179q-22 88 -59 163q-35 71 -82 133q-71 91 -47 121q7 9 21 9q22 0 52.5 -18.5t57.5 -51.5q78 -101 126 -218q49 -120 57 -267h1q0 -7 0.5 -20.5t0.5 -20.5 v-9v-8q0 -181 -59 -326q-45 -109 -111 -195q-21 -27 -55.5 -52t-65.5 -24q-19 -1 -26 11.5z" />
<glyph unicode="*" horiz-adv-x="503" d="M84.5 1052q-6.5 17 2.5 30q10 13 28 13q20 0 37 -13q8 -6 17 -23t31 -43.5t61 -55.5l1 -2q1 -1 -21 -28.5t-49 -58.5t-37 -39q-17 -13 -36.5 -13.5t-28.5 11.5q-9 13 -3 30.5t23 31.5q8 6 27 9.5t51.5 16t71.5 40.5h1q-7 0 -72 26.5t-80 37.5q-18 13 -24.5 30zM237 791 q-1 10 6.5 28t13.5 52t3 83l1 1q4 -2 26.5 -70.5t23.5 -87.5q2 -21 -7.5 -37t-24.5 -18t-28 12.5t-14 36.5zM237 1130q1 21 13 35.5t27 14.5h2q15 -2 24.5 -18t8.5 -38q-4 -35 -41 -136q-9 -21 -10 -20q3 49 -3 82.5t-14 51.5t-7 28zM263 959l1 -1q44 -21 78 -28t53.5 -7 t28.5 -4q19 -10 28 -26.5t2 -30.5q-7 -13 -26 -16t-38 7q-12 6 -43.5 31.5t-58 49t-25.5 25.5l1 1q39 29 60.5 56t30.5 44t17 23q20 13 37 13q19 0 28 -12q9 -13 2.5 -30.5t-24.5 -30.5q-15 -11 -79 -37t-73 -27z" />
<glyph unicode="+" horiz-adv-x="671" d="M82 360q-1 14 5 31l7 -3q-1 -9 16 -15t46 -8q49 -4 163 -1q0 61 4 104q6 62 21 95t47 38q4 1 10 1q19 0 10 -17q-4 -6 -7 -33q-4 -41 -2 -187q52 0 89 -4q62 -6 95 -21t38 -47q2 -14 -2.5 -19.5t-14.5 -0.5q-6 4 -33 7q-38 4 -171 2q0 -54 -5 -107q-7 -68 -24 -96 q-13 -18 -50 -20q-14 -1 -31 5l3 7q9 -1 15 16t8 46q5 44 2 148q-61 0 -123 5q-70 7 -96 23q-18 13 -20 51z" />
<glyph unicode="," horiz-adv-x="223" d="M82 31q2 28 17.5 46.5t35.5 16.5q19 -1 31 -22t10 -49q-3 -40 -49 -166q-13 -36 -15 -33q4 62 -4 105.5t-17.5 66t-8.5 35.5z" />
<glyph unicode="-" horiz-adv-x="671" d="M82 360q0 20 4 31l8 -3q-1 -9 16 -15t45 -8q22 -2 53 -2.5t54 0t45.5 1t25.5 0.5q109 2 158 -3q124 -11 133 -69q2 -14 -2.5 -19t-14.5 0q-6 4 -33 7q-33 3 -173 1.5t-203 4.5q-70 7 -96 23q-18 13 -20 51z" />
<glyph unicode="." horiz-adv-x="290" d="M82 90q0 34 23.5 57.5t57.5 23.5q33 0 56.5 -24t23.5 -57q0 -34 -23 -57t-57 -23t-57.5 23t-23.5 57z" />
<glyph unicode="/" horiz-adv-x="720" d="M82 -83l7 7q11 -6 27 12t35 52q27 49 103.5 226.5t98.5 233.5q98 235 142 313q40 74 76.5 106.5t78.5 21.5q39 -11 15 -31q-9 -7 -26 -37q-22 -40 -174.5 -393.5t-194.5 -429.5q-48 -85 -80 -106q-26 -16 -73 2q-19 7 -35 23z" />
<glyph unicode="0" horiz-adv-x="747" d="M82 474q0 238 75 352t235 114q161 0 235 -116t74 -349q0 -240 -76 -354q-75 -112 -234 -112q-160 0 -235 114q-74 115 -74 351zM263 474q0 -94 6 -157q5 -58 29 -113q20 -47 55 -72q36 -24 97 -24q58 0 94 23q37 24 58 71q20 46 28 114q8 70 8 159q0 87 -8 159 q-7 66 -29 114q-20 45 -58 70q-35 23 -93 23q-57 0 -93 -23q-39 -26 -59 -71q-20 -44 -28 -116q-7 -67 -7 -157z" />
<glyph unicode="1" horiz-adv-x="294" d="M83 575q-3 113 1 256q2 57 10 90q11 22 38.5 28.5t49.5 -1.5q20 -4 33.5 -21t9.5 -37q-4 -33 -7 -147.5t-5 -238.5t-3 -148q-4 -186 9 -270q6 -43 28 -56l-2 -28q-60 0 -87 35q-24 35 -38.5 73.5t-21 91t-7.5 74.5t-3 83q-4 126 -5 216z" />
<glyph unicode="2" horiz-adv-x="716" d="M84 116q2 20 12.5 33.5t22.5 9.5q1 0 3.5 -0.5t4.5 -0.5q6 9 13.5 19t13.5 17t17.5 17.5t16.5 15.5t20 17.5t19 16.5q50 42 118 108q115 112 158 177t43 142q0 70 -46 109q-46 40 -128 40q-58 0 -119 -19q-75 -33 -103 0q-20 24 3 58q26 36 83 48q68 17 138 17 q140 0 217 -67q78 -66 78 -179q0 -49 -14 -96q-13 -47 -37 -84q-21 -34 -56 -73q-37 -42 -76 -80q-59 -58 -133 -122q-7 -6 -100 -89q29 -1 74 -2.5t73.5 -2.5t39.5 -2q111 -4 162 9q26 7 34 28l16 -2q0 -62 -20 -88q-28 -30 -82 -47.5t-112 -21.5q-75 -4 -129 -5 q-145 -7 -209 10q-27 23 -16 89z" />
<glyph unicode="3" horiz-adv-x="718" d="M82 191h9q53 -34 120 -56t134 -22q37 0 80 12q38 11 69 38q28 28 41 58q14 33 14 80q0 46 -16 80q-15 32 -42 50q-29 19 -65 25q-36 7 -83 7h-54q68 63 162 56q1 2 8.5 12t10.5 15q43 65 43 142q0 70 -46 109q-46 40 -128 40q-58 0 -119 -19q-75 -33 -103 0q-20 24 3 58 q26 36 83 48q68 17 139 17q138 0 215 -67q79 -67 79 -179q0 -49 -14 -96q-12 -45 -38 -84q-2 -3 -20 -29q18 -9 41 -28q31 -27 48 -65q19 -41 19 -101t-23 -112q-24 -53 -62 -89q-43 -40 -107 -62q-62 -20 -133 -20q-113 6 -183.5 62t-81.5 120z" />
<glyph unicode="4" horiz-adv-x="712" d="M83 369.5q-1 12.5 5 28.5t10 25t13 22t14.5 20t14.5 17.5t13 15.5l358 418q0 1 1 2.5t1 2.5q16 31 60 31q11 0 29 -4q20 -4 33.5 -21t9.5 -37q-4 -33 -7 -147.5t-5 -239t-3 -148.5q-4 -191 8 -269q6 -43 28 -56l-2 -28q-60 0 -87 35q-29 43 -45 101.5t-19 95.5t-5 104 h-424q0 19 -1 31.5zM165 375h342q-4 121 -5 200q-3 85 -1 192z" />
<glyph unicode="5" horiz-adv-x="712" d="M84 907q2 20 12.5 33.5t22.5 9.5q20 -4 89 -7t143 -5t89 -3q111 -4 162 9q25 6 33 28l17 -2q0 -62 -20 -88q-56 -63 -182 -68q-4 -1 -6.5 -1h-5.5q-75 -4 -129 -5q-15 -1 -47 -1q11 -10 44 -39t44 -39q64 -56 133 -123q39 -38 76 -80q35 -39 56 -73q24 -37 37 -84 q14 -47 14 -95q0 -113 -79 -180q-78 -66 -215 -66q-71 0 -139 17q-67 13 -88 58q-17 35 9 54q31 22 96 -6q61 -19 119 -19q83 0 128 39q46 39 46 109q0 77 -43 142q-44 67 -158 178q-51 49 -118 107q-79 67 -101 105q-9 1 -23 7q-27 22 -16 88z" />
<glyph unicode="6" horiz-adv-x="761" d="M82 421q0 121 25 211q25 89 82 163q54 69 136 106q82 38 195 38q82 -6 96 -43q12 -28 -25 -47q-34 -18 -89 -13q-130 0 -206 -81q-77 -81 -90 -218q53 31 100 46q48 16 113 16q60 0 101 -10q42 -10 89 -43q51 -35 79 -92q27 -57 27 -136q0 -136 -90 -223 q-91 -86 -220 -86q-69 0 -120 20q-53 21 -95 61q-52 50 -80 132q-28 81 -28 199zM203 395q0 -97 19 -151q19 -53 55 -86q29 -28 59 -39q33 -12 70 -12q87 0 137 53q50 51 50 153q0 57 -16 92q-17 36 -55 64q-28 19 -61 25t-70 6q-51 0 -95 -12q-45 -13 -90 -37 q-2 -18 -2 -26q0 -3 -0.5 -13t-0.5 -17z" />
<glyph unicode="7" horiz-adv-x="700" d="M84 907q2 20 12.5 33.5t22.5 9.5q20 -4 89 -7t143 -5t89 -3q111 -4 162 9q25 6 33 28l17 -2q0 -62 -20 -88q-21 -24 -56 -43v-51l-405 -761q-94 84 -20 200l321 588q-6 0 -17 -0.5t-17 -1.5q-75 -4 -129 -5q-141 -7 -209 11q-27 22 -16 88z" />
<glyph unicode="8" horiz-adv-x="727" d="M82 292q0 60 19 101q18 39 47 65q20 17 41 28q-18 26 -20 29q-26 39 -38 84q-13 43 -13 96q0 113 78 179q86 70 189.5 69t179.5 -69q78 -66 78 -179q0 -53 -13 -96q-12 -45 -38 -84q-2 -3 -20 -29q18 -9 41 -28q31 -27 48 -65q18 -39 18 -101t-22 -112q-24 -53 -62 -89 q-43 -40 -107 -62q-64 -20 -107.5 -19.5t-107.5 19.5q-62 21 -106 62q-40 37 -63 89q-22 50 -22 112zM205 301q0 -47 14 -80q15 -34 41 -59q29 -26 69 -37q30 -8 52 -11q22 3 52 11q40 11 69 37q27 28 41 59q14 33 14 80q0 46 -16 80q-15 32 -42 50q-29 19 -65 25 q-26 5 -53 6q-27 -1 -53 -6q-36 -6 -65 -25q-27 -18 -42 -50q-16 -34 -16 -80zM241 689q0 -79 42 -143q2 -4 5 -8.5t7.5 -9.5t6.5 -9q45 3 79 -7q38 10 78 7q1 2 8.5 12t10.5 15q43 65 43 143q0 69 -46 108q-35 30 -94 38q-59 -8 -94 -38q-46 -39 -46 -108z" />
<glyph unicode="9" horiz-adv-x="761" d="M82 630q0 136 90 223q91 86 220 86q69 0 120 -20q55 -21 96 -61q52 -50 80 -132q27 -78 27 -199t-25 -211q-25 -91 -81 -163q-53 -69 -137 -106q-84 -39 -195 -39q-81 6 -96 42q-12 28 24 48q33 19 90 14q129 0 206 81t90 218q-55 -32 -99 -46q-51 -17 -114 -17 q-54 0 -100 11t-90 42q-51 35 -79 93q-27 57 -27 136zM204 635q0 -56 17 -93q17 -36 54 -63q28 -19 61 -25q39 -7 70 -7q52 0 96 12q42 11 90 38q1 9 1 25q0 4 0.5 14t0.5 17q0 96 -19 150q-19 55 -54 87q-29 27 -60 39q-33 12 -70 12q-87 0 -137 -53q-50 -51 -50 -153z" />
<glyph unicode=":" horiz-adv-x="290" d="M82 90q0 34 23.5 57.5t57.5 23.5t57 -23.5t23 -57.5t-23 -57.5t-57 -23.5t-57.5 23.5t-23.5 57.5zM82 423q0 34 23.5 57.5t57.5 23.5t57 -23.5t23 -57.5t-23 -57t-57 -23t-57.5 23t-23.5 57z" />
<glyph unicode=";" horiz-adv-x="290" d="M82 423q0 34 23.5 57.5t57.5 23.5t57 -23.5t23 -57.5t-23 -57t-57 -23t-57.5 23t-23.5 57zM106 31q5 25 20.5 41t32.5 16q1 0 3.5 -0.5t3.5 -0.5q19 -4 28.5 -26.5t3.5 -49.5q-9 -39 -70 -158q-18 -33 -19 -31q13 73 10 108t-9.5 62t-3.5 39z" />
<glyph unicode="&#x3c;" horiz-adv-x="638" d="M89 313q-15 25 2 48t63 43l439 195v-106l-366 -159l366 -159v-106l-440 196q-49 23 -64 48z" />
<glyph unicode="=" horiz-adv-x="671" d="M82 265q-1 14 5 31l7 -3q-1 -9 16 -15t45 -8q29 -3 68 -3t74 1.5t36 1.5q101 2 158 -4q62 -6 95 -21t38 -47q2 -14 -2.5 -19.5t-14.5 -0.5q-6 4 -33 7q-33 3 -173 1.5t-203 4.5q-70 7 -96 23q-18 13 -20 51zM82 491q-1 14 5 31l7 -3q-1 -9 16 -15t45 -8q22 -2 53 -2.5 t54 0t45.5 1t25.5 0.5q109 2 158 -3q62 -6 95 -21t38 -47q2 -14 -2.5 -19.5t-14.5 -0.5q-6 4 -33 7q-33 3 -173 1.5t-203 4.5q-70 7 -96 23q-18 13 -20 51z" />
<glyph unicode="&#x3e;" horiz-adv-x="638" d="M82 69v106l366 159l-366 159v106l439 -195q46 -20 63 -43t2 -48t-64 -48z" />
<glyph unicode="?" horiz-adv-x="501" d="M82 496q-5 58 44 104t123 46q80 -1 140 -48t65 -126q0 -118 -106 -171q-38 -20 -79 -22q1 -2 2 -5t2 -5q6 -21 4.5 -65.5t1.5 -55.5q3 -7 7 -10q7 -4 -4 -5q-6 -1 -16 0q-56 3 -68 42q-6 18 -4 51l2 11q1 11 1 24t-3 22q-5 19 -23 19l-3 3q11 1 31 1q36 0 48 -5 q56 21 75 58t19 98q1 41 -28 74t-67.5 46t-79 1t-61.5 -51q0 -1 1 -3q6 2 10 2q13 0 22 -9t9 -22t-9 -22t-22 -9q-19 0 -28 19q-5 5 -6 13zM193 58q0 20 14.5 34.5t34.5 14.5t34 -14.5t14 -34.5t-14 -34.5t-34 -14.5t-34.5 14.5t-14.5 34.5z" />
<glyph unicode="@" horiz-adv-x="1134" d="M82 416q0 112 40 207q42 99 110 167q70 70 165 110t205 40q118 0 210 -37q95 -38 157 -105q65 -69 97 -162q67 -287 -83 -475q-67 -79 -150 -76q-61 -2 -88 29q-19 21 -33.5 51.5t-21.5 53.5t-16 60q-16 73 -22 128q-4 -31 -7 -49t-9 -51.5t-11.5 -55t-14 -50t-19 -47 t-23 -36t-28.5 -26t-34 -8.5q-56 1 -87 64.5t-40 152.5l-4 59q-2 61 6.5 125.5t34.5 128.5t66 91q32 20 56 20q10 0 15 -1q49 -3 89 -58q0 2 3 23q10 23 34.5 30t51.5 2q21 -3 35 -19t12 -36q-2 -46 0 -230q0 -8 1 -33.5t1.5 -35t2 -32.5t2.5 -35t3 -32.5t4 -35t5 -32 t7 -33.5q14 -65 65 -44q29 9 59 31q59 44 77 147q14 70 14 121q0 99 -28 179q-27 82 -80 139q-54 58 -131 88q-77 31 -177 31q-95 0 -176 -35q-80 -35 -137 -93q-57 -57 -91 -142q-32 -80 -32 -174q0 -100 31 -181q31 -80 89 -140q64 -64 139 -92q78 -31 174 -31q52 0 107 6 q46 6 70 -20q22 -24 -7 -43q-21 -14 -66 -18t-104 -4q-114 0 -208 38q-95 37 -164 106t-108 166q-38 95 -38 214zM510 179q2 -24 4 -33q6 -19 15 -20q69 26 114 390q-3 52 -3 106q-21 27 -36 40q-29 22 -50 26q-28 -24 -41.5 -209.5t-2.5 -299.5z" />
<glyph unicode="A" horiz-adv-x="1527" d="M9 374q-10 94 -9.5 205t9.5 237q2 14 17 14q14 -2 14 -16q-10 -126 -10 -235.5t10 -201.5q13 -140 50 -225q41 -95 109 -106h1q18 -5 36 -5q66 0 143 61q76 61 171 187q130 175 191 291h1q16 29 48 89q-95 14 -154 31q-162 45 -230 150q-39 60 -54 164v1v6q0 97 60 177 q62 82 152 126q111 54 258 54h9q72 0 126 -21q60 -23 77 -72v-1q2 -10 3 -16q33 86 86 89q30 0 54 -12.5t39 -30t25.5 -47t16 -53t8 -59t3 -54t0.5 -49.5q0 -126 -27 -386q94 -2 147 -2q16 0 16 -15t-16 -15q-102 0 -150 1q-22 -219 -27 -328q0 -213 71 -259q1 0 1 -0.5 t1 -0.5q25 -10 45 2q11 6 29 24q53 55 99.5 178.5t68.5 262.5q2 13 16 13q1 0 1 -0.5t1 -0.5q15 -2 13 -17q-24 -145 -70.5 -270t-106.5 -187q-22 -22 -35 -30q-16 -10 -39 -10v-1q-152 0 -185 153q-19 77 -19 191q0 103 21 284q-165 7 -301 25q-36 -66 -54 -98 q-61 -116 -194 -295q-101 -133 -176 -193q-87 -68 -163 -68q-22 0 -43 6q-85 14 -132 123q-36 84 -52 235zM383 1017q14 -97 49 -150q63 -96 212 -137q77 -21 161 -33q93 175 144 316q34 94 47 157q11 50 11 79q0 16 -3 26q-12 34 -59 53q-45 17 -115 19h-8q-138 0 -245 -51 q-84 -41 -139.5 -115t-54.5 -164zM838 693q121 -17 289 -24q4 29 15.5 119t16.5 134.5t10.5 116.5t5.5 131q0 155 -57 161h-3q-11 -1 -23 -15.5t-24.5 -45t-19.5 -50t-18.5 -57t-12.5 -39.5v2q-12 -46 -39 -124q-54 -145 -140 -309z" />
<glyph unicode="B" horiz-adv-x="1427" d="M9 373q-10 94 -9.5 205t9.5 238q0 14 15 14h2q14 -2 14 -17q-9 -126 -9 -235t9 -201q13 -140 50 -225q41 -95 109 -106h1q18 -5 36 -5q66 0 143 61q76 61 171 187q113 152 169 250q3 32 32 268.5t30 362.5q0 159 -61 161q-30 -1 -73 -131q-2 -11 -1.5 -14.5t3 -11.5 t3.5 -15q0 -10 -6.5 -16.5t-16.5 -6.5t-17 6.5t-7 16.5q0 6 1 8v1q29 103 57 145t66 44q30 0 54 -12.5t39 -29.5t25.5 -47t15.5 -53t7.5 -59.5t3 -54t0.5 -49.5q0 -120 -34 -460h2q14 2 53 11q43 10 109 32q20 13 39 14q4 1 12 3.5t12 4.5q76 30 134 93.5t88 145.5 q28 72 28 151v10q-2 84 -39 149q-51 81 -129 111q-64 25 -165 28q-65 3 -104 3q-19 0 -31 -1q-16 0 -16 14q0 16 15 16q3 0 11.5 0.5t13.5 0.5h33q11 0 24 -0.5t29.5 -1.5t26.5 -1q110 -4 175 -29q87 -34 144 -124v-1q41 -72 44 -163v-15q0 -83 -30 -158q-30 -81 -86 -146 t-131 -100q3 -1 8 -4.5t6 -4.5q54 -37 83 -141q21 0 61 2q88 7 127 24q31 15 48 27q13 9 22 -3q9 -13 -4 -22q-27 -19 -53 -30q-44 -20 -138 -27q-38 -2 -55 -2q1 -5 3 -16t3 -16q6 -34 6 -68q0 -67 -23 -132q-34 -98 -100.5 -157.5t-141.5 -60.5q-58 0 -90 8 q-108 22 -136 147q-19 77 -19 191q0 64 4 115q-61 -97 -138 -199q-99 -130 -176 -192q-87 -68 -163 -68q-22 0 -43 6q-85 14 -132 123q-36 84 -52 234zM817 307q0 -219 76 -262q23 -9 36 -10h1q6 -1 13 -1q32 0 58 22q31 26 48 72.5t25 106.5q8 57 9 115q-1 3 -1 7 q0 62 -7 121q-72 28 -123 86q-8 10 0 20l2 3q-11 -3 -29 -8t-23 -6q-12 -3 -29.5 -7t-24.5 -5q-2 -1 -6 -1h-5q-16 -169 -20 -253zM983 576q35 -38 86 -62q-11 64 -25 99q-24 -6 -50 -26z" />
<glyph unicode="C" horiz-adv-x="1222" d="M9 373q-10 94 -9.5 204.5t9.5 237.5q0 6 4.5 10.5t10.5 4.5h2q14 -2 14 -17q-10 -126 -10 -235.5t10 -201.5q13 -139 50 -224q41 -95 109 -106h1q18 -5 36 -5q66 0 143 61q76 61 171 187q92 122 146 212q-3 45 -3 91q0 175 41 342q107 401 361 407q69 0 106.5 -53.5 t37.5 -137.5q0 -46 -15 -91q0 -1 -1 -3t-1 -3t-0.5 -1t-0.5 -1q-31 -71 -101 -100q-43 -18 -87 -18q-27 1 -53 7q-71 18 -112 70q-11 -39 -22 -94q-31 -155 -31 -319q0 -177 43 -340.5t117 -207.5q1 -1 3 -1t3 -1q25 -10 45 2q11 6 29 24q53 55 99.5 178t68.5 262 q2 13 16 13h2q15 -2 13 -18q-24 -145 -70.5 -270t-106.5 -187q-19 -19 -35 -29q-18 -11 -38 -11q-7 -1 -21 -1q-127 0 -209 167q-55 114 -73 273q-50 -78 -126 -180q-99 -130 -176 -192q-88 -69 -164 -69q-22 0 -42 6q-85 14 -132 124q-36 84 -52 234zM876 1039 q32 -53 98 -73q30 -9 59 -10q36 0 72 14q66 24 95 91q16 42 16 91q0 69 -29.5 116t-90.5 48q-137 0 -220 -277z" />
<glyph unicode="D" horiz-adv-x="1525" d="M9 373q-10 94 -9.5 204.5t9.5 237.5q0 6 4.5 10.5t10.5 4.5h2q14 -2 14 -17q-10 -126 -10 -235.5t10 -201.5q13 -140 50 -225q41 -94 109 -105l1 -1q17 -5 36 -5q66 0 143 62q76 61 171 187q113 152 169 250q3 32 32 268.5t30 362.5q0 153 -56 160l-1 1h-4 q-30 -1 -73 -132q-2 -11 -1.5 -14.5t3 -11t3.5 -14.5q0 -10 -6.5 -16.5t-16.5 -6.5t-17 6.5t-7 16.5q0 5 1 7v2q29 103 57 145t66 44q40 0 69 -20t43 -49t21.5 -70.5t9.5 -74t2 -70.5v-21q-1 -123 -26.5 -380.5t-30.5 -364.5v-15l3 -2q0 -1 -1 -4t-2 -4q6 -241 111 -247 q48 2 89 37.5t70.5 96t50.5 125.5t36 141q31 155 31 319q2 27 2 57q1 25 -1 52q-2 59 -5 119t-17 118.5t-34.5 106t-59 81.5t-89.5 46q-53 10 -104 11q-48 2 -69 2q-16 0 -16 15q0 6 5 11t11 5l1 -1q22 0 70 -2q110 -4 175 -29q44 -17 78 -47q55 -43 95 -126 q80 -168 80 -415q0 -175 -41 -342q-48 -178 -122 -276q1 -1 1 -2q1 -2 1 -3q1 -1 5 -7.5t6 -10.5q14 -25 34 -46q23 -25 51 -32q10 -2 20 -2q23 0 47 12q14 8 28 23q53 55 100 178.5t69 262.5q2 13 15 13h2q15 -2 13 -18q-24 -145 -70.5 -270t-106.5 -187q-22 -22 -36 -30 q-31 -16 -60 -16q-15 0 -29 4q-37 10 -65 40q-21 23 -39 52q-1 2 -4 6.5t-4 6.5q-90 -101 -217 -104q-12 0 -18 1q-146 3 -179 152q-19 77 -19 191q0 64 4 115q-61 -97 -138 -199q-101 -133 -176 -193q-87 -68 -163 -68q-22 0 -43 6q-85 14 -132 124q-36 84 -52 234z" />
<glyph unicode="E" horiz-adv-x="1222" d="M9 373q-8 84 -8.5 194.5t8.5 247.5q0 6 4.5 10.5t10.5 4.5h2q14 -2 14 -17q-10 -126 -10 -235.5t10 -201.5q13 -139 50 -224q41 -95 109 -106h1q18 -5 36 -5q66 0 143 61q76 61 171 187q92 122 146 212v1q-3 45 -3 90q0 175 41 342q107 401 361 407q69 0 106.5 -53.5 t37.5 -137.5q0 -29 -6 -56q-10 -48 -30 -76q-61 -84 -167 -84h-1q-107 0 -167 76q-11 -39 -22 -94q-16 -79 -24 -166q0 -1 -0.5 -3t-0.5 -3q58 66 147 88q16 4 32 4q46 0 82 -32l-15 -18q-30 25 -67 25q-12 0 -26 -3q-133 -30 -156 -314q11 -155 52 -281.5t105 -163.5 q1 -1 3 -1t3 -1q25 -10 45 2q11 6 29 24q53 55 99.5 178t68.5 262q2 13 16 13h2q15 -2 13 -18q-24 -145 -70.5 -270t-106.5 -187q-19 -19 -35 -29q-18 -11 -38 -11q-7 -1 -21 -1q-127 0 -209 167q-55 114 -73 273q-50 -78 -126 -180q-99 -130 -176 -192q-88 -69 -164 -69 q-22 0 -42 6q-85 14 -132 124q-36 84 -52 234zM876 1039q44 -71 139 -81l24 -2q79 0 132 59q43 52 45 137q0 69 -29.5 116t-90.5 48q-137 0 -220 -277z" />
<glyph unicode="F" horiz-adv-x="985" d="M9 373q-8 84 -8.5 194.5t8.5 247.5q2 15 17 15q14 -2 14 -17q-10 -126 -10 -235.5t10 -201.5q13 -139 50 -224q41 -95 109 -106h1q18 -5 36 -5q44 0 93 27q59 32 129 109q63 69 147 188q-6 82 -6 174q2 56 6 121h-7q-113 -6 -167 -11v115q67 5 120 5q22 0 64 -2 q35 316 124 468q-230 -23 -344 -23q-11 -1 -25 -1q-24 0 -56 3q-52 5 -111 19.5t-93 52.5q-22 25 -22 56q0 17 6 35l25 -3q-8 -21 8.5 -36t35 -20.5t39.5 -8.5q28 -4 75 -4q138 1 410 36.5t406 35.5q113 0 192 -19q141 -31 151 -164q2 -49 -12 -56q-6 -3 -9 8l-2 10 q-4 113 -272 113q-99 -4 -298 -24q-48 -102 -75 -300q-11 -74 -20 -197q146 -35 146 -183l-24 -17q-3 76 -127 101q0 -10 -1 -29.5t-1.5 -35t-0.5 -28.5q0 -456 51 -515q58 38 110 156q58 129 87 308q2 13 15 13h3q14 -2 12 -17q-29 -182 -89 -317q-68 -152 -144 -181 q-2 -1 -8 -1h-2q-67 0 -97 47q-48 78 -68 266q-67 -91 -129 -159q-72 -78 -137 -115q-54 -31 -107 -31q-22 0 -44 6q-85 14 -132 123q-36 84 -52 234z" />
<glyph unicode="G" horiz-adv-x="1527" d="M9 373q-9 95 -9 205t9 237q0 6 4.5 10.5t10.5 4.5h2q14 -2 14 -17q-10 -127 -10 -236t10 -201q13 -139 50 -224q41 -95 109 -106h1q18 -5 36 -5q67 0 143 61t171 187q92 122 146 212v1q-3 45 -3 90q0 175 41 342q107 401 361 407q69 0 106 -53t37 -137q0 -33 -5 -56 q-10 -46 -31 -76q-61 -84 -167 -84l-1 1q-107 0 -167 75q-11 -39 -22 -94q-16 -78 -24 -167q-7 -70 -7 -153q0 -176 43 -339.5t118 -207.5l6 -3q25 -9 44 2q11 6 29 24q84 87 143 316q-3 135 -14 244l-2 22q0 23 24 39t53 16q51 0 59 -45q20 -112 20 -299v-83q0 -16 -1 -100 t-4 -134q58 38 110 156q58 129 87 308q2 13 15 13h3q14 -2 12 -18q-29 -180 -89 -316q-66 -148 -141 -179q-23 -305 -165 -398q-34 -21 -92 -23q-71 7 -104.5 51t-33.5 110q1 18 7 35.5t12.5 31.5t20 29.5t23 25.5t29 24t29.5 21t34 20t33 18t35 18t33 17q0 5 1 16t1 17 q2 28 4.5 88.5t3.5 84.5v67q0 3 -0.5 8.5t-0.5 8.5q-52 -159 -122 -232q-19 -19 -35 -29q-18 -11 -38 -11q-7 -1 -21 -1q-127 0 -209 167q-55 114 -73 273q-50 -78 -126 -180q-99 -130 -176 -192q-88 -69 -164 -69q-21 0 -42 6q-85 14 -132 124q-36 84 -52 234zM876 1039 q44 -71 139 -81q12 -1 24 -1q79 0 132 58q43 52 45 137q0 69 -29.5 116t-90.5 48q-137 0 -220 -277zM964 -247q0 -53 26.5 -89t81.5 -42q85 10 114 333q-92 -35 -154.5 -88t-67.5 -114z" />
<glyph unicode="H" horiz-adv-x="1460" d="M9 373q-8 84 -8.5 194.5t8.5 247.5q2 15 17 15q14 -2 14 -17q-10 -126 -10 -235.5t10 -201.5q13 -140 50 -225q41 -94 109 -105l1 -1q17 -4 34 -4q45 0 95 27q59 32 129 109q63 69 147 188q-6 69 -6 144h-146q-15 0 -15 14q0 6 4.5 10.5t10.5 4.5h146v1q3 73 8 140.5 t16 159t31 169t47.5 150.5t70 124.5t94.5 72.5q38 15 68 15h4q13 0 23 -7q8 -6 8 -16q0 -9 -6.5 -15.5t-15.5 -6.5q-5 0 -15.5 3.5t-17.5 -0.5q-28 -14 -52 -48q-61 -89 -94 -335q-25 -170 -28 -389v-18h309v1q3 69 7.5 133.5t15.5 152t27 161t43.5 148t61.5 125.5t84 82 q46 28 100 28h11h3q29 0 52.5 -18t33.5 -49q4 -14 3 -35q0 -37 -12 -95q-16 -69 -51 -170q-71 -193 -238 -487q3 -417 51 -474q58 38 110 156q58 129 87 308q2 13 15 13h3q15 -2 13 -18q-28 -177 -90 -316q-68 -152 -144 -181q-2 -1 -8 -1h-1q-68 0 -98 47q-75 122 -78 460 h-310q3 -385 45 -460q11 -22 -20 -30q-12 -3 -24 -3q-24 0 -45 14q-13 8 -18 19q-49 79 -68 265q-63 -86 -129 -158q-72 -78 -137 -115q-56 -31 -109 -31q-21 0 -42 5q-85 14 -132 124q-36 84 -52 234zM1190 578q142 252 209 435q33 93 49 166q12 58 12 90q0 14 -2 24 q-15 45 -56 45q-10 0 -25 -5q-12 -5 -24 -12q-16 -11 -27 -23q-9 -9 -14 -18q-61 -89 -94 -335q-23 -158 -28 -367z" />
<glyph unicode="I" horiz-adv-x="1302" d="M9 373q-10 94 -9.5 205t9.5 238q2 14 17 14q14 -2 14 -17q-9 -126 -9 -235t9 -201q13 -140 50 -225q41 -95 109 -106h1q25 -6 46 -5q54 6 109 87q49 72 100 215q78 219 152 613q4 24 25 155q2 9 5.5 31.5t5.5 34.5v1q5 37 16 75l1 1q18 59 52 80q20 11 40 11h7 q220 -35 220 -618v-26q0 -19 -1 -83t-2 -99t-6 -97.5t-13 -105.5t-23.5 -93.5t-37.5 -88.5q43 -78 102 -92q16 -3 35 -3q49 2 80.5 23t58.5 62q43 67 77.5 171.5t52.5 218.5q2 13 16 13l1 -1h1q15 -2 13 -17q-42 -254 -135 -402q-60 -94 -163 -98h-1q-22 0 -42 3h-1 q-65 15 -113 93q-32 -45 -72 -71q-36 -22 -93 -24q-71 7 -104 51t-33 110q1 46 24.5 81t57.5 50q20 8 42 8q18 0 36 -4q42 -12 77 -52q18 111 28 364v67q-4 309 -31 481q-9 53 -15 74q-6 20 -12.5 32.5t-21 23.5t-33.5 8q-22 -6 -39 -61q-8 -29 -26 -137q-23 -147 -25 -156 q-74 -396 -153 -618q-47 -136 -104 -221q-63 -93 -131 -101h-1q-28 -1 -56 6q-85 14 -132 123q-36 84 -52 234zM605 172q0 -53 26.5 -89.5t81.5 -42.5q60 8 94 179q-48 57 -99 57h-3q-40 -1 -68.5 -32t-31.5 -72z" />
<glyph unicode="J" horiz-adv-x="1159" d="M9 373q-9 95 -9 205.5t9 237.5q2 14 17 14q14 -2 14 -17q-9 -126 -9 -235t9 -201q13 -140 50 -225q41 -95 109 -106h1q25 -6 46 -5q54 6 109 87q49 72 100 215q78 219 152 613q4 24 25 155q2 9 5.5 31.5t5.5 34.5v1q5 37 16 75l1 1q18 59 52 80q20 11 40 11h7 q77 -13 126 -90q25 -40 42 -85t25.5 -106t12 -94t7 -112t4.5 -99q4 -121 4 -240q0 -239 -17 -470q58 38 110 156q58 129 87 308q2 13 15 13h3q14 -2 12 -18q-29 -180 -89 -316q-66 -148 -141 -179q-23 -305 -165 -398q-34 -21 -92 -23q-71 7 -104.5 51t-33.5 110 q1 18 7 35.5t12.5 31.5t20 29.5t23 25.5t29 24t29.5 21t34 20t33 18t35 18t33 17q1 6 1 17t1 16q17 301 17 554q0 335 -30 586q-9 53 -15 74q-6 20 -12.5 32.5t-21 23.5t-33.5 8q-22 -6 -39 -61q-8 -29 -26 -137q-23 -147 -25 -156q-74 -396 -153 -618q-47 -136 -104 -221 q-63 -93 -131 -101h-1q-28 -1 -56 6q-85 14 -132 123q-36 84 -52 234zM595 -247q0 -53 26.5 -89t81.5 -42q85 10 114 333q-92 -35 -154.5 -88t-67.5 -114z" />
<glyph unicode="K" horiz-adv-x="1318" d="M9 373q-8 84 -8.5 194.5t8.5 247.5q2 15 17 15q14 -2 14 -17q-10 -126 -10 -235.5t10 -201.5q13 -140 50 -225q41 -94 109 -105l1 -1q17 -4 34 -4q45 0 95 27q59 32 129 109q63 69 147 188q-6 82 -6 174q3 68 7 131t15 149.5t26.5 158.5t41.5 146.5t59 126t81 84.5 t106 34h14h3q29 0 52 -18t33 -49l1 -1q4 -14 3 -35q0 -37 -12 -94q-16 -69 -51 -170q-70 -190 -209 -437q14 4 33 2q6 0 18 -2q1 0 2 -0.5t2 -0.5q23 67 49.5 124t60 110t74 85t82.5 36h12q51 0 78 -36.5t27 -94.5q0 -59 -28 -120q-27 -59 -77.5 -100.5t-116.5 -51.5 q31 -31 49.5 -112t25 -158.5t21 -139.5t39.5 -65q59 38 110 156q59 132 88 308q2 13 15 13h3q14 -2 12 -18q-29 -180 -89 -316q-43 -98 -93 -147q-29 -27 -52 -27h-6h-4q-48 0 -73 14q-36 21 -59 87t-32 137.5t-27 147.5t-43 109q-22 26 -56 31q-33 7 -51 -5q-17 -9 -23 -39 q5 -351 42 -436q9 -18 9 -30q0 -23 -31 -23q-55 5 -82 46q-48 80 -68 269q-71 -99 -129 -162q-72 -78 -137 -115q-56 -31 -109 -31q-21 0 -42 5q-85 14 -132 124q-36 84 -52 234zM740 578q142 252 209 435q33 93 49 166q12 58 12 90q0 14 -2 24q-15 45 -56 45q-10 0 -25 -5 q-12 -5 -24 -12q-16 -11 -27 -23q-9 -9 -14 -18q-61 -89 -94 -335q-23 -158 -28 -367zM853 559l28 -4q57 0 110.5 52.5t78.5 117.5q34 79 34 129q0 33 -22 33l-10 -2q-34 -9 -68.5 -45.5t-63.5 -89t-49 -98t-38 -93.5z" />
<glyph unicode="L" horiz-adv-x="1286" d="M9 373q-8 84 -8.5 194.5t8.5 247.5q2 11 11 14q2 1 6 1q15 -2 15 -17q-10 -133 -10 -245q0 -106 9 -192q13 -139 50 -224q41 -95 109 -106h2q17 -5 36 -5q25 0 51 9q29 11 41 18q59 32 129 109q61 67 148 190q-6 83 -6 172q3 68 7 131t15 149.5t26.5 158.5t41.5 146.5 t59 126t81 84.5t106 34h14h2q10 0 15 -1q24 -4 43 -21.5t28 -44.5q4 -14 3 -35q0 -37 -12 -95q-17 -75 -50 -169v-1q-73 -198 -238 -486q3 -323 33 -434q10 35 34.5 65.5t55.5 48.5t66 28q20 6 39 6q13 0 27 -4q32 -8 56.5 -26.5t35.5 -59.5q7 -25 7 -56q0 -20 -3 -41 q57 40 108 154q58 129 87 308q2 13 15 13h3q15 -2 13 -18q-28 -177 -90 -316q-43 -98 -93 -147q-29 -27 -52 -27h-6q-5 0 -9 2q-1 0 -3 2t-2 3v1q1 17 1 32q0 115 -54 133q-14 6 -32 6q-20 -1 -42 -7q-44 -12 -86 -50.5t-56 -92.5q15 -13 9.5 -24.5t-27.5 -12.5 q-67 0 -97 47q-49 80 -68 270q-74 -104 -129 -163q-58 -63 -112 -99q-8 -6 -26 -16q-56 -31 -109 -31q-21 0 -42 5q-85 14 -132 124q-36 84 -52 234zM742 581q140 249 207 432q33 93 49 166q12 58 12 90q0 14 -2 24q-15 45 -55 45q-10 0 -25 -5q-14 -5 -31 -17 q-12 -9 -13 -10q-11 -10 -21 -26q-61 -89 -94 -335q-22 -148 -27 -364z" />
<glyph unicode="M" horiz-adv-x="1859" d="M9 373q-10 94 -9.5 204.5t9.5 237.5q2 15 17 15q14 -2 14 -17q-10 -126 -10 -235.5t10 -201.5q13 -140 50 -225q41 -94 109 -105l1 -1q22 -5 46 -4q54 6 109 87q50 74 100 214q77 218 152 614q4 24 25 155q2 9 5.5 31.5t5.5 34.5v1q5 38 16 74v1l1 1q18 59 52 80 q18 11 37 11h3q1 0 3 -0.5t4 -0.5q150 -25 198 -308q8 -55 11 -98q126 309 221 329l23 4q36 0 60.5 -21.5t38 -64.5t19 -98t5.5 -132q120 292 214 312l23 4q48 0 75.5 -40t37.5 -106.5t10 -171.5q0 -118 -20 -364q0 -5 -5.5 -58t-10 -105.5t-8.5 -123.5t-4 -123 q0 -111 18 -137q57 39 107 154q57 128 87 309q2 13 15 13h3q14 -2 12 -18q-29 -180 -89 -316q-43 -98 -93 -147q-31 -29 -53 -28h-1q-85 0 -109 54q-25 61 -25 223q0 149 25.5 469.5t25.5 398.5q0 89 -20 89q-89 -25 -216 -355q-3 -102 -19 -299q0 -5 -5.5 -58t-10 -105.5 t-8.5 -123.5t-4 -123q0 -81 10 -118q5 -14 7.5 -21.5t3.5 -15.5t-2.5 -11.5t-11.5 -3.5q-86 0 -110 54q-24 59 -24 223q0 149 25 469.5t25 398.5q0 50 -4 69.5t-15 19.5q-90 -24 -220 -365v-11q0 -79 -12 -278q0 -3 -5 -57.5t-9.5 -106t-8.5 -123t-4 -123.5q0 -111 17 -136 q10 -13 7.5 -23.5t-18.5 -10.5q-86 0 -110 54q-24 59 -24 223q0 89 10 218q8 130 16 224q5 64 6 141q0 37 -2 75q-4 120 -24 222q-9 53 -15 74q-6 20 -12.5 32.5t-21 23.5t-33.5 8q-21 -4 -39 -62q-9 -31 -26 -136q-23 -147 -25 -156q-74 -396 -153 -618q-48 -138 -104 -222 q-62 -92 -131 -100h-1q-31 -2 -56 5q-85 14 -132 124q-36 84 -52 234z" />
<glyph unicode="N" horiz-adv-x="1570" d="M9 373q-10 94 -9.5 204.5t9.5 237.5q2 15 17 15q14 -2 14 -17q-10 -126 -10 -235.5t10 -201.5q13 -140 50 -225q41 -94 109 -105l1 -1q22 -5 46 -4q54 6 109 87q50 74 100 214q77 218 152 614q4 24 25 155q2 9 5.5 31.5t5.5 34.5v1q5 38 16 74v1l1 1q18 59 52 80 q18 11 37 11h3q1 0 3 -0.5t4 -0.5q150 -25 198 -308q13 -81 14 -193q0 -47 -3 -99q169 497 293 523l22 4q48 0 75.5 -40t37.5 -106.5t10 -171.5q0 -130 -19 -364q0 -5 -5.5 -58t-10 -105.5t-8.5 -123.5t-4 -123q0 -112 17 -137q57 39 107 154q59 132 88 309q2 13 15 13h3 q14 -2 12 -18q-29 -180 -89 -316q-43 -98 -93 -147q-31 -29 -53 -28h-1q-86 0 -110 54q-24 59 -24 223q0 149 25.5 469.5t25.5 398.5q0 89 -20 89q-113 -31 -280 -535q-2 -4 -19 -58q0 -9 -1.5 -29.5t-2.5 -31.5q0 -3 -5 -57.5t-9.5 -106t-8.5 -123t-4 -123.5q0 -78 8 -113 q13 -40 7 -48q-4 -7 -20.5 -7t-45.5 7q-39 14 -53 45q-24 59 -24 223q0 89 10 218q8 130 16 224q5 64 6 141q0 37 -2 75q-4 120 -24 222q-9 53 -15 74q-6 20 -12.5 32.5t-21 23.5t-33.5 8q-21 -4 -39 -62q-9 -31 -26 -136q-23 -147 -25 -156q-74 -396 -153 -618 q-48 -138 -104 -222q-62 -92 -131 -100h-1q-31 -2 -56 5q-85 14 -132 124q-36 84 -52 234z" />
<glyph unicode="O" horiz-adv-x="1351" d="M9 373q-8 84 -8.5 194.5t8.5 247.5q0 6 4.5 10.5t10.5 4.5h2q14 -2 14 -17q-10 -126 -10 -235.5t10 -201.5q13 -139 50 -224q41 -95 109 -106h1q18 -5 36 -5q66 0 143 61q76 61 171 187q97 129 147 212q-4 60 -4 91q0 175 41 342q107 401 361 407l1 -25q-123 0 -203 -225 q3 5 8 14t8 13q49 80 107 121q49 34 96 34q2 0 5 -0.5t5 -0.5q11 0 20 -3h3q3 0 5 -2q17 -7 33 -23q26 -27 42 -70q32 -82 43 -216q7 -88 7 -173q1 -38 -1 -76q-4 -122 -20 -201q0 -1 -1 -3.5t-1 -4.5q39 7 57 15q31 15 48 27q12 9 21 -3q9 -13 -3 -22q-25 -18 -54 -30 q-29 -14 -74 -20q-25 -134 -69.5 -246.5t-100.5 -169.5q-19 -19 -35 -29q-18 -11 -38 -11q-7 -1 -21 -1q-127 0 -209 167q-55 114 -73 273q-50 -78 -126 -180q-99 -130 -176 -192q-88 -69 -164 -69q-22 0 -42 6q-85 14 -132 124q-36 84 -52 234zM815 597q0 -177 43 -340.5 t117 -207.5q1 -1 3 -1t3 -1q25 -10 45 2q11 6 29 24q48 50 90.5 156.5t68.5 233.5q-5 -1 -15 -1t-15 -1q-34 -3 -63 -3q-45 0 -77 7q-102 20 -170 99q-39 45 -58 107q-1 -25 -1 -74zM836 749q0 -93 62 -165q60 -70 152 -89q30 -7 73 -7q27 0 59 3q7 1 19.5 2.5t18.5 1.5 l3 18q14 77 19 197q2 40 2 80q0 82 -7 166q-11 129 -41 206q-16 41 -35 60q-13 13 -25 17q-10 2 -15 2q-1 0 -3 1h-6q-38 0 -78 -28q-51 -35 -99 -112q-45 -74 -72 -168.5t-27 -184.5z" />
<glyph unicode="P" horiz-adv-x="1466" d="M9 373q-8 84 -8.5 194.5t8.5 247.5q2 14 17 14q14 -2 14 -16q-10 -126 -10 -235.5t10 -201.5q13 -140 50 -225q41 -95 109 -106h1q22 -5 46 -4q55 6 109 86q49 72 100 215q77 218 152 614q4 24 25 155q2 9 5.5 31.5t5.5 34.5q6 40 16 75v2q17 57 53 79q20 12 37 12h3 q1 0 3 -0.5t4 -0.5q150 -25 198 -308q10 -66 12 -144q1 -39 1 -70t-1 -54q-2 -46 -10 -179v-4l1 1l1 1q1 0 3 1l1 1h1h1q1 0 5 1t8.5 2t10.5 2q17 3 54 11q84 19 172 54q76 30 134 93.5t88 145.5q28 72 28 151v10q-2 84 -39 149q-51 81 -129 111q-64 25 -165 28 q-65 3 -104 3q-19 0 -31 -1q-16 0 -16 14q0 16 15 16q3 0 11.5 0.5t13.5 0.5q20 0 32 -1q24 0 80 -2q110 -4 175 -29q86 -34 144 -125h1q41 -71 43 -163q0 -6 1 -13q0 -84 -31 -161q-33 -87 -94.5 -155t-145.5 -101q-85 -33 -176 -55q-9 -2 -19 -4.5t-19.5 -4.5t-13.5 -3 q57 -54 134 -69q31 -6 74 -6q26 0 57 2q88 7 127 24q31 15 48 27q13 9 22 -3q9 -13 -4 -22q-27 -19 -53 -30q-44 -20 -138 -27q-30 -2 -56 -2q-48 0 -83 7q-102 20 -170 99l-1 1q-26 -264 -26 -385q0 -110 18 -136q10 -13 7.5 -23.5t-18.5 -10.5q-86 0 -110 54 q-24 59 -24 223q0 89 10 218q8 130 16 224q5 64 6 141q0 35 -2 73q-4 120 -24 223q-8 46 -16 74q-7 20 -13 32.5t-20 23.5t-33 8q-23 -4 -40 -61q-6 -22 -25 -136q-23 -147 -25 -156q-74 -396 -153 -618q-48 -138 -104 -222q-62 -92 -131 -100h-1q-31 -2 -56 5 q-85 14 -132 124q-36 84 -52 234z" />
<glyph unicode="Q" horiz-adv-x="1433" d="M9 373q-9 95 -9 205t9 237q0 6 4.5 10.5t10.5 4.5h2q14 -2 14 -17q-10 -127 -10 -236t10 -201q13 -139 50 -224q41 -95 109 -106h1q18 -5 37 -5q67 0 143 61q73 59 170 187q97 129 147 212q-4 60 -4 91q0 175 41 342q107 401 361 407l2 -25q-49 0 -91 -35t-72 -96 t-51 -126.5t-37 -142.5q-31 -155 -31 -319q0 -176 43 -340t118 -208q1 -1 3 -1t3 -1q25 -9 44 2q11 6 29 24q38 40 74 116q-33 70 -50.5 118.5t-49.5 154.5q-68 249 -68 444q0 45 4 87v1q13 122 56 197q42 73 98 81h2q37 0 63 -28q24 -26 41 -70q32 -82 43 -216 q7 -88 7 -173q0 -38 -1 -76q-5 -122 -20 -201q-29 -182 -91 -320l11 -22q13 -32 45 -71q18 -23 33 -28q11 -3 16 1q43 46 79 129q58 129 87 308q2 13 15 13h3q14 -2 12 -18q-29 -180 -89 -316q-34 -79 -75 -127q-1 -1 -2.5 -3t-2.5 -3t-3 -2.5t-3 -2.5q-23 -16 -48 -8 q-23 8 -46 37q-26 31 -49 77q-32 -63 -69 -101q-19 -19 -35 -29q-18 -11 -38 -11q-7 -1 -21 -1q-127 0 -209 167q-55 114 -73 273q-50 -78 -126 -180q-99 -130 -176 -192q-88 -69 -164 -69q-21 0 -42 6q-85 14 -132 124q-36 84 -52 234zM996 991q-3 -39 -3 -81 q0 -190 66 -439q51 -168 86 -244q53 130 78 286v1q14 76 19 196q2 40 2 81q0 81 -7 165q-11 130 -41 207q-15 39 -35 59q-18 19 -39 19q-39 -5 -74 -65q-41 -71 -52 -185z" />
<glyph unicode="R" horiz-adv-x="1507" d="M9 373q-10 94 -9.5 204.5t9.5 237.5q2 15 17 15q16 -2 14 -17q-10 -126 -9.5 -235.5t9.5 -201.5q13 -140 50 -225q41 -94 109 -105l1 -1q22 -5 46 -4q54 6 109 87q50 74 100 214q77 218 152 614q4 24 25 155q2 9 5.5 31.5t5.5 34.5v1q5 38 16 74v1l1 1q17 58 52 79 q20 12 37 12h3q1 0 3 -0.5t4 -0.5q150 -25 198 -308q10 -66 12 -144q1 -39 1 -70t-1 -54q-2 -46 -10 -179v-4q2 3 7 4q1 0 5 1t9 2t11 2q17 3 54 11q84 19 172 54q76 30 134 93.5t88 145.5q28 72 28 151v10q-2 84 -39 149q-51 81 -129 111q-64 25 -165 28q-65 3 -104 3 q-19 0 -31 -1q-16 0 -16 14q0 16 15 16q3 0 11.5 0.5t13.5 0.5h15.5t16.5 -1q24 0 80 -2q110 -4 175 -29q87 -34 144 -124v-1q41 -71 44 -163v-16q0 -83 -30 -158q-33 -87 -94.5 -155t-145.5 -101q-87 -33 -172 -54q53 -8 96 -40t59 -85q19 -55 32 -162t26.5 -176.5 t40.5 -72.5q60 39 111 156q57 128 87 309q2 13 15 13h1l2 -1q15 -2 13 -17q-28 -177 -90 -316q-43 -98 -93 -147q-29 -27 -52 -27h-6h-4q-48 0 -72 14q-36 21 -59.5 87t-32.5 137t-27 147t-43 109q-23 27 -55 32q-35 6 -51 -5q-22 -234 -22 -352q0 -111 17 -136 q10 -13 7.5 -23.5t-18.5 -10.5q-86 0 -110 54q-24 59 -24 223q0 89 10 218q8 130 16 224q5 64 6 141q0 35 -2 73q-4 120 -24 223q-9 53 -15 74q-6 20 -12.5 32.5t-21 23.5t-33.5 8q-22 -4 -39 -61q-9 -31 -26 -136q-23 -147 -25 -156q-74 -396 -153 -618q-48 -138 -104 -222 q-62 -92 -131 -100h-1q-31 -2 -56 5q-85 14 -132 124q-36 84 -52 234z" />
<glyph unicode="S" horiz-adv-x="1372" d="M9 373q-10 94 -9.5 204.5t9.5 237.5q2 15 17 15q14 -2 14 -17q-10 -126 -10 -235.5t10 -201.5q13 -140 50 -225q41 -94 109 -105l1 -1q17 -4 35 -4q43 0 91 25q58 31 127 105q146 159 271.5 367.5t250.5 472.5q2 4 4 5q110 311 332 316q69 0 107 -53t38 -137 q0 -29 -6 -56q-10 -46 -31 -76q-61 -84 -166 -84h-1q-106 0 -167 76q-14 -50 -23 -94q-4 -20 -6.5 -61t-3.5 -77t-2.5 -83t-1.5 -59q-1 -107 -4.5 -171.5t-22.5 -162t-55 -160.5q43 -78 102 -92q16 -3 35 -3q49 2 80.5 23t58.5 62q43 67 77.5 171.5t52.5 218.5q2 13 15 13 q1 0 3 -1q14 -2 12 -17q-42 -256 -134 -402q-60 -94 -164 -98q-22 0 -42 3h-1q-66 15 -114 93q-32 -45 -72 -71q-36 -23 -92 -24q-71 7 -104 51t-33 110q1 46 24.5 81t57.5 50q20 8 42 8q18 0 36 -4q42 -12 77 -52q17 106 27 343q1 135 27 266q-232 -464 -461 -713v-1 q-68 -73 -135 -110q-55 -29 -106 -29q-22 0 -42 5q-85 14 -132 124q-36 84 -52 234zM675 172q0 -53 26.5 -89.5t81.5 -42.5q60 8 94 179q-48 57 -99 57h-3q-40 -1 -68.5 -32t-31.5 -72zM1093 1030q44 -71 139 -81l24 -2q79 0 132 59q43 52 45 137q0 69 -29.5 116t-90.5 48 q-137 0 -220 -277z" />
<glyph unicode="T" horiz-adv-x="985" d="M9 373q-10 94 -9.5 204.5t9.5 237.5q2 15 17 15q16 -2 14 -17q-10 -126 -9.5 -235.5t9.5 -201.5q13 -140 50 -225q41 -94 109 -105l1 -1q17 -4 34 -4q45 0 95 27q61 33 130 109q59 64 146 188q-6 82 -6 174q18 490 140 696q-230 -23 -344 -23q-11 -1 -25 -1q-24 0 -56 3 q-52 5 -111 19.5t-93 52.5q-22 25 -22 56q0 17 6 35l25 -3q-8 -21 8.5 -36t35 -20.5t39.5 -8.5q28 -4 75 -4q138 1 410 36.5t406 35.5q115 0 192 -19q141 -31 151 -164q2 -49 -12 -56q-6 -3 -9 8l-2 10q-4 113 -272 113q-100 -4 -299 -24q-47 -99 -74 -300 q-25 -170 -28 -389q0 -456 51 -515q58 38 110 156q58 129 87 308q2 13 15 13h3q15 -2 13 -18q-28 -177 -90 -316q-68 -152 -144 -181q-2 -1 -8 -1h-2q-67 0 -97 47q-49 79 -68 265q-63 -86 -129 -158q-72 -78 -137 -115q-56 -31 -109 -31q-21 0 -42 5q-85 14 -132 124 q-36 84 -52 234z" />
<glyph unicode="U" horiz-adv-x="1685" d="M9 373q-10 94 -9.5 204.5t9.5 237.5q2 15 17 15q16 -2 14 -17q-10 -126 -9.5 -235.5t9.5 -201.5q13 -140 50 -225q41 -94 109 -105l1 -1q22 -5 46 -4q54 6 109 87q50 74 100 214q77 218 152 614q4 24 25 155q2 9 5.5 31.5t5.5 34.5v1q5 38 16 74v1l1 1q18 59 52 80 q18 11 37 11h3q1 0 3 -0.5t4 -0.5q150 -25 198 -308q10 -66 12 -144q1 -39 1 -70t-1 -54q-2 -46 -10 -179q-8 -123 -11 -185q-1 -25 -1 -55q0 -45 2 -103q4 -96 22 -151q35 -45 77 -54q11 -2 35 -2q49 2 81 22.5t58 61.5q43 67 77.5 171.5t52.5 218.5v1l1 2q5 86 24 324 t19 314q0 59 -7 77q-7 25 2.5 34t33.5 2q53 -16 74 -93.5t21 -220.5q0 -130 -19 -364q0 -5 -5.5 -58t-10 -105.5t-8.5 -123.5t-4 -123q0 -112 17 -137q58 40 108 154q57 128 87 309q2 13 15 13h3q14 -2 12 -18q-29 -180 -89 -316q-43 -98 -93 -147q-31 -29 -53 -28h-1 q-86 0 -110 54q-24 59 -24 223q0 8 0.5 26t0.5 27q-42 -147 -97 -233q-60 -94 -164 -98h-1q-22 0 -42 3h-1q-59 12 -105 80h-1q-13 22 -22 39v1q-1 1 -2.5 3.5t-1.5 3.5l-1 2q-80 163 -80 465q0 76 5 160q3 59 3 114q0 161 -26 287q-9 53 -15 74q-6 20 -12.5 32.5t-21 23.5 t-33.5 8q-21 -4 -39 -62q-9 -31 -26 -136q-23 -147 -25 -156q-74 -396 -153 -618q-48 -138 -104 -222q-62 -92 -131 -100h-1q-31 -2 -56 5q-85 14 -132 124q-36 84 -52 234z" />
<glyph unicode="V" horiz-adv-x="1566" d="M9 373q-10 94 -9.5 204.5t9.5 237.5q2 15 17 15q16 -2 14 -17q-10 -126 -9.5 -235.5t9.5 -201.5q13 -140 50 -225q41 -94 109 -105l1 -1q22 -5 46 -4q54 6 109 87q50 74 100 214q77 218 152 614q4 24 25 155q2 9 5.5 31.5t5.5 34.5v1q5 38 16 74v1l1 1q18 59 52 80 q18 11 37 11q2 0 3 -1h7q150 -25 198 -308q10 -66 12 -144q1 -39 1 -70t-1 -54q-2 -46 -10 -179q-8 -123 -11 -185q-1 -25 -1 -55q0 -45 2 -103q4 -96 22 -151q35 -45 77 -54q11 -2 36 -2q49 2 80 22.5t58 61.5q77 123 119 328q7 32 12 68q-11 6 -31 20q-50 35 -103 99l-1 2 q-54 81 -76 162q-12 44 -11 82q0 32 8 60h1q21 66 83 73q3 0 8 0.5t7 0.5q56 -3 100 -59q54 -65 61 -216q1 -18 1 -37q0 -77 -13 -169q33 -13 56 -6q37 11 72 37.5t55 55.5q9 13 21 4q14 -10 5 -22q-23 -34 -62 -63.5t-82 -41.5q-13 -4 -27 -4q-20 0 -42 8 q-42 -252 -134 -399q-60 -94 -164 -98q-23 0 -43 3q-60 13 -106 80q-10 16 -23 39v1l-4 8l-1 1q-80 163 -80 465q0 76 5 160q3 59 3 114q0 161 -26 287q-9 53 -15 74q-6 20 -12.5 32.5t-21 23.5t-33.5 8q-21 -4 -39 -62q-9 -31 -26 -136q-23 -147 -25 -156 q-74 -396 -153 -618q-48 -138 -104 -222q-62 -92 -131 -100h-1q-31 -2 -56 5q-85 14 -132 124q-36 84 -52 234zM1169 936q-7 -23 -6 -50q1 -35 11 -78q20 -75 69 -150q46 -56 97 -93l18 -12q11 79 11 154q0 17 -1 35q-6 139 -55 197v1q-36 45 -77 47h-2h-8q-43 -5 -57 -51z " />
<glyph unicode="W" horiz-adv-x="1863" d="M9 373q-10 94 -9.5 204.5t9.5 237.5q2 15 17 15q16 -2 14 -17q-10 -126 -9.5 -235.5t9.5 -201.5q13 -140 50 -225q41 -94 109 -105l1 -1q22 -5 46 -4q54 6 109 87q50 74 100 214q77 218 152 614q4 24 25 155q2 9 5.5 31.5t5.5 34.5v1q5 38 16 74v1l1 1q18 59 52 80 q18 11 37 11q2 0 3 -1h7q150 -25 198 -309q10 -61 12 -131q1 -35 1 -65.5t-1 -55.5q-2 -50 -8 -159q-1 -23 -2 -35q-8 -123 -11 -185q-1 -25 -1 -55q0 -45 2 -103q4 -96 22 -151q35 -45 77 -54q16 -3 36 -3q49 2 80 23t58 62q35 55 58 116q-26 136 -26 286v21q3 60 4 67 q10 23 34.5 30t51.5 2q21 -3 35 -19t12 -36q-1 -23 -1 -80.5t1 -149.5q0 -8 1 -33.5t1.5 -35t2 -32.5t2.5 -35t3 -32.5t4 -35t5 -32t7 -33.5q8 -36 24 -49q57 27 110 138q56 116 87 271q7 32 12 68q-16 8 -32 20q-47 34 -102 99l-1 1q-53 81 -75 162q-12 44 -12 83 q0 32 8 60q21 66 84 73q2 0 7 0.5t8 0.5q54 -3 99 -60q55 -67 62 -215q1 -18 1 -37q0 -77 -13 -169q33 -13 56 -6q37 11 72.5 37t54.5 55q9 13 21 5q13 -9 4 -22q-23 -35 -61.5 -64t-81.5 -41q-14 -4 -29 -4q-20 0 -41 8q-3 -20 -11 -60q-34 -165 -89 -278 q-61 -128 -131 -155v-2h-13q-51 0 -77 29q-42 47 -67 147q-20 -45 -42 -80q-60 -94 -164 -98q-23 0 -43 3q-60 13 -106 80q-10 16 -23 39v1l-4 8l-1 1q-80 163 -80 465q0 76 5 160q3 59 3 114q0 161 -26 287q-9 53 -15 74q-6 20 -12.5 32.5t-21 23.5t-33.5 8q-21 -4 -39 -62 q-9 -31 -26 -136q-23 -147 -25 -156q-74 -396 -153 -618q-48 -138 -104 -222q-62 -92 -131 -100h-1q-31 -2 -56 5q-85 14 -132 124q-36 84 -52 234zM1466 936q-7 -23 -6 -50q0 -35 10 -78q20 -75 70 -150q46 -56 97 -93l18 -12q11 79 11 154q0 17 -1 35q-6 139 -55 197v1 q-36 45 -77 47h-2h-8q-43 -5 -57 -51z" />
<glyph unicode="X" horiz-adv-x="1255" d="M9 373q-10 94 -9.5 204.5t9.5 237.5q2 14 17 14q14 -2 14 -16q-10 -126 -10 -235.5t10 -201.5q13 -140 50 -225q41 -95 109 -106h1q17 -4 34 -4q45 0 95 27q61 33 130 109q37 41 75 90.5t80 108.5t56 78q7 12 21 38q-28 63 -79 181t-84.5 193t-58.5 121q-30 55 -41 65 q-18 19 -14 31.5t29 17.5q9 2 17 2q46 1 92 -49q54 -58 122 -186q51 -97 105 -220q110 203 170 364q36 100 50 166q12 55 12 88q0 16 -3 27q-14 44 -55 44q-24 0 -49 -16q-25 -15 -24 -36q0 -13 -13 -20q-11 -5 -20 1t-9 18t9 25q17 24 47 42q29 17 58 17t52 -17.5t33 -48.5 v-1q4 -14 4 -35q0 -37 -13 -95q-17 -75 -50 -169q-60 -164 -183 -390q6 -13 16 -38t16 -37q1 -1 22.5 -53t41 -99t49.5 -112t55 -111q51 -96 78 -112q52 44 97 146q57 128 87 309q2 13 15 13h3q14 -2 12 -18q-29 -180 -89 -316q-43 -98 -93 -147q-11 -11 -22 -18 q-13 -10 -27 -15q-26 -9 -48 -9q-29 0 -50 16q-51 42 -126 185q-55 105 -125 261q-2 -3 -5.5 -9.5t-5.5 -9.5l-1 -1q-15 -20 -55.5 -78t-80.5 -110t-78 -94q-72 -78 -137 -115q-54 -31 -107 -31q-22 0 -44 6h1h-2h1q-85 14 -132 124q-36 84 -52 234z" />
<glyph unicode="Y" horiz-adv-x="1239" d="M9 373q-9 95 -9 205t9 237q2 14 17 14q14 -2 14 -16q-10 -127 -10 -236t10 -201q13 -140 50 -225q41 -95 109 -106h1q11 -3 22 -3q55 0 121 64q75 71 160 220q41 72 96 191q-9 25 -21 75q-32 154 -32 326q0 36 1 72q9 164 99 295l1 1q40 51 71 70q26 16 55 16q1 0 2 -0.5 t2 -0.5q22 -2 40 -10q31 -15 44 -46q10 -24 10 -53v-10v-2q-12 -92 -73 -294q-46 -155 -111 -314q5 -91 21 -162q8 -37 25 -50q38 15 79.5 61.5t76.5 112.5q59 111 84 245q-5 363 -14 453l-2 23q0 23 24 38.5t53 15.5q51 0 58 -44q8 -45 14 -239.5t6 -312.5v-83 q-1 -70 -8 -171q3 0 11 2q37 11 72 37.5t55 55.5q9 13 21 4q13 -9 5 -21q-23 -35 -62 -64.5t-82 -41.5q-10 -3 -22 -3q-25 -286 -85 -391q-26 -46 -63 -71.5t-107 -25.5q-71 7 -104 50.5t-33 109.5q3 41 22.5 75.5t61 65t66.5 45t82 43.5q15 8 23 12q1 6 1 17t1 16 q2 28 4.5 88.5t3.5 84.5v67q0 5 -0.5 22t-0.5 24q-23 -73 -58 -140q-81 -155 -175 -191h-2v-1h-13q-51 0 -77 29q-18 20 -34 51q-37 -81 -85 -167q-84 -149 -166 -228q-74 -72 -140 -72q-16 0 -31 4q-85 14 -132 124q-36 84 -52 234zM662 1020q4 -111 20 -271 q0 -5 0.5 -15.5t0.5 -15.5q49 129 85 247q60 197 72 289q2 30 -7 49q-10 21 -29 30q-18 9 -33 9q-16 0 -37 -12q-42 -21 -58 -110q-14 -74 -14 -162v-38zM739 171q0 -53 27 -89t82 -42q85 10 114 333q-93 -35 -155.5 -88t-67.5 -114z" />
<glyph unicode="Z" horiz-adv-x="1316" d="M9 372q-10 94 -9.5 205t9.5 237q0 6 4.5 10.5t10.5 4.5h2q14 -2 14 -17q-9 -126 -9 -235t9 -201q13 -140 50 -225q41 -95 109 -106h1q10 -3 22 -3q50 0 116 55q66 54 156 169q20 26 70.5 92t74.5 96q40 49 62 70q31 29 56 37l1 1q18 8 43 6l18 -3q1 0 2.5 -0.5t2.5 -0.5 l28 -5l29 -4q84 4 135.5 70.5t63.5 162.5q5 39 4 79q0 60 -10 124q-17 108 -61 194q-39 73 -101 95q-23 8 -46 8q-40 0 -82 -24q-66 -38 -112 -129q-6 -17 -5 -22t6 -16t5 -23q0 -13 -9 -22t-22 -9t-21.5 9t-8.5 22q1 102 78 202q76 99 175 99h2q72 0 134.5 -32.5t106 -87 t73.5 -125.5q30 -72 40 -148q6 -40 5 -79q-1 -36 -5 -72q-10 -76 -37.5 -139.5t-80 -110.5t-124.5 -65q31 -31 49.5 -112t25 -158.5t21 -139.5t39.5 -65q60 39 111 156q58 129 87 308q2 13 15 13h3q15 -2 13 -18q-28 -177 -90 -316q-43 -98 -93 -147q-29 -27 -52 -27h-6h-3 q-48 0 -73 14q-36 21 -59.5 87t-32.5 137.5t-27 147.5t-43 109q-22 26 -55 31q-24 5 -42 -1q-1 -1 -4 -2l-3 -1q-16 -5 -43 -30q-19 -18 -59 -67q-23 -29 -72.5 -94t-72.5 -94q-91 -116 -161 -174q-75 -62 -136 -62q-14 0 -28 3q-85 14 -132 124q-36 84 -52 234z" />
<glyph unicode="[" horiz-adv-x="1638" d="M690 -94l4 10q13 -1 19.5 21t9.5 63q4 56 0 248t-7 254q-7 262 -1 344q8 102 35 144q10 19 25.5 33t25.5 19l10 4q112 0 134 -62q13 -39 -18 -29q-11 4 -45 1q-15 -1 -61 -8q-2 -55 5.5 -429.5t0.5 -460.5q-5 -51 -6 -58q113 -17 125 -83q3 -19 -2.5 -26t-19.5 0 q-11 6 -44 9t-149 1q-24 -2 -41 5z" />
<glyph unicode="\" horiz-adv-x="720" d="M91 858q-24 20 15 31q42 11 78.5 -21.5t76.5 -106.5q44 -78 142 -313q22 -56 98.5 -233.5t103.5 -226.5q19 -34 35 -52t27 -12l7 -7q-16 -16 -35 -23q-47 -18 -72 -2q-34 22 -81 106q-42 76 -194.5 429.5t-174.5 393.5q-17 30 -26 37z" />
<glyph unicode="]" horiz-adv-x="387" d="M84 -83q12 66 126 83q-3 21 -7 58q-7 86 1 460.5t6 429.5q-46 7 -61 8q-35 3 -46 -1q-30 -10 -17 29q22 62 133 62q38 -13 61 -56q27 -42 35 -144q6 -82 -1 -344q-3 -62 -7 -254t0 -248q3 -40 10 -62.5t20 -21.5l3 -10q-17 -7 -41 -5q-115 2 -148 -1q-35 -3 -45 -9 q-14 -7 -19.5 0t-2.5 26z" />
<glyph unicode="^" horiz-adv-x="659" d="M82 667l196 440q23 49 48 64t48 -2t43 -63l195 -439h-106l-159 366l-159 -366h-106z" />
<glyph unicode="_" horiz-adv-x="671" d="M82 110q0 20 4 31l8 -2q-1 -9 16 -15t45 -8q22 -2 53 -2.5t54 0t45.5 1t25.5 0.5q109 2 158 -3q124 -11 133 -69q2 -14 -2.5 -19t-14.5 0q-6 4 -33 7q-33 3 -173 1.5t-203 4.5q-70 7 -96 23q-18 13 -20 50z" />
<glyph unicode="`" horiz-adv-x="274" d="M82.5 1145.5q3.5 23.5 20.5 32.5t38.5 -2t34.5 -36q18 -36 46 -169q7 -37 4 -34q-23 43 -46.5 73t-39 42t-29.5 23.5t-19 21.5q-13 25 -9.5 48.5z" />
<glyph unicode="a" d="M0 285v23q0 50 6 102q8 64 34.5 128.5t66.5 91.5q32 20 56 20q5 0 15 -2q49 -3 89 -57q0 1 3 22q10 23 34.5 30.5t51.5 2.5q21 -3 35 -19.5t12 -36.5q-1 -23 -1 -80.5t1 -149.5q8 -191 26 -268q9 -40 26 -51q31 12 64 55.5t62 108.5q58 129 87 308q2 13 16 13h2 q15 -2 13 -18q-28 -177 -90 -316q-68 -152 -144 -181q-2 -1 -6 -1h-7q-56 0 -82 29q-19 21 -33.5 51.5t-21.5 53.5t-16 60q-13 62 -21 128q-7 -50 -12.5 -81.5t-18 -82.5t-26.5 -81t-37.5 -54t-52.5 -24q-56 1 -87 64.5t-40 152.5zM135 104q1 -17 5 -33q7 -20 15 -21 q68 25 113 391q-2 35 -2 106q-21 27 -36 40q-29 22 -50 26q-28 -24 -42 -210q-8 -102 -8 -182q0 -66 5 -117z" />
<glyph unicode="b" horiz-adv-x="565" d="M0 547q3 68 7 131t15 149.5t26.5 158.5t41.5 146.5t59 126t81 84.5t106 34h13h4q29 0 52 -18t33 -49q4 -14 3 -35q0 -37 -12 -95q-17 -75 -50 -169v-1q-63 -169 -176 -376q21 14 43 15q6 1 12 1q28 0 59 -20q54 -37 83 -140q22 0 33 1q88 7 127 24q31 15 48 27 q13 9 22 -3q9 -13 -4 -22q-27 -19 -53 -30q-44 -20 -138 -27q-9 -1 -27 -1q16 -74 16 -156v-18l-4 -59q-9 -89 -40 -152.5t-87 -64.5q-19 0 -35.5 9t-29 27.5t-23 37.5t-19 49t-14.5 52t-11.5 56.5t-8.5 52.5t-7 49q14 -285 55 -299l8 -20q-20 -13 -32 -13q-67 0 -97 47 q-79 128 -79 490zM141 589h2q136 240 207 432q33 93 49 166q12 58 12 90q0 14 -2 24q-15 45 -56 45q-10 0 -25 -5q-12 -5 -24 -12q-16 -11 -27 -23q-9 -9 -14 -18q-61 -89 -94 -335q-23 -156 -28 -364zM146 530q32 -268 60 -367q28 -100 64 -113q7 1 14 21q4 16 5 33 q6 63 6 134q0 106 -14 230q-70 18 -129 70q-4 -6 -6 -8zM171 562q44 -41 106 -60q-13 95 -32 111q-26 -7 -50 -26q-20 -20 -24 -25z" />
<glyph unicode="c" horiz-adv-x="370" d="M0 383q0 87 39.5 162t102.5 96q30 8 66 8q7 0 23 -2q57 -7 76 -66q9 -31 8 -59q0 -31 -10 -58q-17 -45 -57 -65q-28 -14 -56 -14q-13 0 -26 3q-13 2 -30 11q-7 -49 -7 -98q0 -97 28 -198q11 -39 35 -63h1q64 25 127 165q58 129 87 308q2 13 15 13h3q15 -2 13 -18 q-28 -177 -90 -316q-68 -152 -144 -181l-1 -1h-2h-2h-2q-22 0 -48.5 13t-43.5 29q-98 92 -105 331zM141 433q13 -10 32 -15q31 -6 61 8.5t42 48.5q8 22 8 47q0 24 -7 50q-15 45 -55 45q-1 0 -3.5 -0.5t-4.5 -0.5q-32 -25 -60 -126q-5 -19 -13 -57z" />
<glyph unicode="d" horiz-adv-x="622" d="M0 285v23q0 50 6 102q8 64 34.5 128.5t66.5 91.5q31 20 59 20q6 0 12 -1q24 -1 48.5 -18t41.5 -41l2 -2q3 69 8.5 133t17 145t27.5 149.5t42 137t58.5 116t79 77.5t101.5 31h14h3q29 0 52 -18t33 -49h1q4 -14 3 -35q0 -37 -12 -95q-16 -69 -51 -170q-71 -193 -238 -487 q3 -417 51 -474q58 38 110 156q58 129 87 308q2 13 15 13h3q14 -2 12 -18q-29 -180 -89 -316q-62 -139 -132 -175q-2 -2 -3 -2h-2q-1 -1 -4 -2t-4 -2q-3 -1 -8 -1h-1q-67 0 -97 47q-49 80 -69 275q-7 -50 -12.5 -81.5t-18 -82.5t-26.5 -81t-37.5 -54t-52.5 -24 q-56 1 -87 64.5t-40 152.5zM135 104q1 -17 5 -33q7 -20 15 -21q69 25 115 402q-2 60 -2 92q-24 31 -38 43q-29 22 -50 26q-28 -24 -42 -210q-8 -102 -8 -182q0 -66 5 -117zM409 586q142 252 209 435q33 93 49 166q12 58 12 90q0 14 -2 24q-15 45 -56 45q-13 0 -25 -4 t-24 -12q-14 -9 -27 -24q-9 -9 -14 -18q-61 -89 -94 -335q-23 -158 -28 -367z" />
<glyph unicode="e" horiz-adv-x="374" d="M0 383q0 87 39.5 162t102.5 96q30 8 66 8q8 0 22 -2q58 -5 77 -66q4 -14 4 -32q0 -27 -8 -65q-13 -64 -34 -131q-42 -137 -80 -217q-16 -36 -25 -52q14 -31 29 -45q1 1 3 1q64 25 127 165q58 129 87 308q2 13 15 13h3q15 -2 13 -18q-28 -177 -90 -316q-68 -152 -144 -181 q-2 -1 -7 -1q-23 -1 -50 12t-45 30q-98 92 -105 331zM128 314v-9q0 -74 23 -179q2 3 5.5 11t5.5 12q33 70 78 213q23 74 33 128q7 39 7 62q0 12 -2 20q-15 45 -56 45q-2 0 -4 -1h-3q-33 -25 -61 -126q-24 -99 -26 -176z" />
<glyph unicode="f" horiz-adv-x="471" d="M0 128q3 68 7 131t15 149.5t26.5 158.5t41.5 146.5t59 126t81 84.5t106 34h13h4q29 0 52 -17.5t33 -48.5l1 -1q4 -14 4 -35q0 -37 -13 -94q-16 -69 -51 -170q-71 -193 -238 -487q3 -417 51 -474q56 37 109 156q53 121 80 262q-27 -27 -56 -37q-2 -1 -4 -1q-13 -5 -32 -7 q-34 -4 -54 14q-17 16 -19 47q-1 19 5 46q23 84 94 113h1q11 4 25 4q38 -2 60 -37q11 -17 15 -37q11 20 25 51q59 132 88 308q2 13 15 13h2q15 -2 13 -18q-29 -180 -89 -316q-25 -55 -51 -95v-2v-5q-29 -180 -89 -316q-62 -140 -132 -176q-2 -2 -4 -2h-1q-1 0 -4 -1t-4 -2 q-3 -1 -8 -1h-1q-67 0 -97 46q-79 128 -79 490zM141 168q143 254 209 434q33 93 49 166q12 58 12 90q0 15 -2 24q-15 45 -56 45q-13 0 -25 -4q-12 -5 -24 -12q-16 -11 -27 -23q-9 -9 -14 -18q-60 -89 -94 -336q-23 -158 -28 -366zM247 66q1 -17 9 -25q9 -8 31 -6t44 14h1 q27 17 57 60v9q0 37 -14 57q-13 22 -34 22q-9 0 -14 -2q-57 -24 -76 -92q-5 -27 -4 -37z" />
<glyph unicode="g" horiz-adv-x="569" d="M0 285v21q0 89 23 181q26 103 84 142q31 20 59 20q6 0 12 -1q45 -3 85 -52q-1 6 -2 18.5t-1 18.5l-2 22q0 23 24 39t53 16q50 0 58 -45q20 -112 20 -300v-83q-2 -119 -13 -238q61 31 118 160q57 128 87 309q2 13 15 13h3q15 -2 13 -18q-28 -177 -90 -316 q-68 -152 -144 -181q-2 -1 -6 -1q-25 -225 -78 -321q-26 -46 -63 -71.5t-107 -25.5q-71 7 -104 50.5t-33 109.5q3 41 22.5 75.5t61 65t66.5 45t82 43.5q15 8 23 12q0 6 1 17t1 16q2 28 4.5 88.5t3.5 84.5v67q0 8 -0.5 24.5t-0.5 24.5q-6 -46 -12 -79.5t-18.5 -79.5 t-26.5 -75t-37 -50.5t-50 -21.5q-56 1 -87 64.5t-40 152.5zM40 -247q0 -53 27 -89t82 -42q85 10 114 333q-93 -35 -155.5 -88t-67.5 -114zM135 104q1 -17 5 -33q7 -20 15 -21q69 25 116 414q-2 56 -4 82q-22 27 -37 41q-29 22 -50 26q-28 -24 -42 -210q-8 -102 -8 -182 q0 -66 5 -117z" />
<glyph unicode="h" horiz-adv-x="657" d="M0 547q3 68 7 131t15 149.5t26.5 158.5t41.5 146.5t59 126t81 84.5t106 34h13h4q29 0 52 -18t33 -49q4 -14 3 -35q0 -37 -12 -95q-18 -78 -50 -170q-71 -193 -238 -487q0 -119 7 -234q24 92 60 174q59 134 125 172q18 13 45 13q12 0 25 -2q21 -3 35 -19t12 -36 q-1 -23 -1 -80.5t1 -149.5q0 -8 1 -33.5t1.5 -35t2 -32.5t2.5 -35t3 -32.5t4 -35t5 -32t7 -33.5q9 -40 26 -51q31 12 64 55.5t62 108.5q58 129 87 308q2 13 15 13h3q15 -2 13 -18q-28 -177 -90 -316q-68 -152 -144 -181q-2 -1 -7 -1h-7q-55 0 -81 29q-19 21 -33.5 51.5 t-21.5 53.5t-16 60q-33 154 -33 324v19q1 10 1 30q-41 -46 -78 -127q-51 -118 -79 -265q12 -110 51 -163q-33 -17 -60.5 -8t-51.5 43t-40.5 70.5t-26.5 74.5q-29 139 -29 345zM141 586q142 252 209 435q33 93 49 166q12 58 12 90q0 14 -2 24q-15 45 -56 45q-10 0 -25 -5 q-12 -5 -24 -12q-16 -11 -27 -23q-9 -9 -14 -18q-61 -89 -94 -335q-23 -158 -28 -367z" />
<glyph unicode="i" horiz-adv-x="366" d="M0 547q3 60 4 67q15 34 65 34q7 0 21 -2q21 -3 35 -19t12 -36q-1 -23 -1 -80.5t1 -149.5q0 -8 1 -33.5t1.5 -35t2 -32.5t2.5 -35t3 -32.5t4 -35t5 -32t7 -33.5q9 -40 26 -51q31 12 64 55.5t62 108.5q58 129 87 308q2 13 16 13h2q15 -2 13 -18q-28 -177 -90 -316 q-68 -152 -144 -181q-2 -1 -6 -1h-7q-55 0 -81 29q-44 48 -72 165q-33 154 -33 324v19z" />
<glyph unicode="j" horiz-adv-x="557" d="M0 -247q1 18 7 35.5t12.5 31.5t20 29.5t22.5 25.5t29 24t29.5 21t34 20.5t32.5 18t35 18l33 16.5q1 6 1 17t1 16q2 28 4.5 88.5t3.5 84.5v67q-4 244 -16 367l-2 22q0 23 24 39t53 16q50 0 58 -45q21 -117 21 -299v-84q-2 -107 -14 -238q60 31 118 161q58 129 87 308 q2 13 16 13h2q15 -2 13 -18q-28 -177 -90 -316q-68 -152 -144 -181q-2 -1 -6 -1q-25 -227 -77 -321q-26 -45 -63.5 -71t-107.5 -26q-71 7 -104 51t-33 110zM29 -247q0 -53 27 -89t82 -42q85 10 114 333q-93 -35 -155.5 -88t-67.5 -114z" />
<glyph unicode="k" horiz-adv-x="663" d="M0 547q3 68 7 131t15 149.5t26.5 158.5t41.5 146.5t59 126t81 84.5t106 34q9 0 13 -1h4q29 0 52 -17.5t33 -48.5l1 -1q4 -14 3 -35q0 -37 -12 -95q-15 -67 -51 -169q-72 -196 -238 -488q0 -31 2 -117q21 77 47.5 150.5t65.5 153t89.5 130.5t104.5 55h12q51 0 78 -37 t27 -95t-28 -119q-27 -59 -77.5 -100.5t-116.5 -51.5q30 -31 48.5 -110t25 -155t20.5 -139.5t37 -70.5h2q9 2 25 12q8 6 17 14t17 16.5t11 10.5q54 54 101.5 178t70.5 266q2 13 16 13h2q15 -2 13 -18q-23 -148 -71 -274t-110 -187q-30 -30 -50 -44q-14 -10 -26 -14 q-8 -4 -30 -4q-48 0 -73 14q-32 18 -53 71.5t-32 118.5t-22 129.5t-30.5 116.5t-50.5 68q-34 -103 -55 -206q1 -10 2.5 -29t1.5 -28q0 -2 2 -24.5t3 -28.5t3.5 -27.5t4.5 -30.5t6.5 -27t9.5 -29.5t12 -25.5t15 -25q-33 -17 -60.5 -8t-51.5 43t-40.5 70.5t-26.5 74.5 q-29 139 -29 345zM141 586q142 252 209 435q33 93 49 166q12 58 12 90q0 14 -2 24q-15 45 -56 45q-13 0 -25 -4t-24 -12q-14 -9 -27 -24q-9 -9 -14 -18q-61 -89 -94 -335q-23 -158 -28 -367zM213 534l28 -4q57 0 110 52.5t78 117.5q35 82 35 129q0 33 -22 33l-10 -2 q-34 -9 -68.5 -45.5t-63.5 -89t-49 -98t-38 -93.5z" />
<glyph unicode="l" horiz-adv-x="354" d="M0 547q3 68 7 131t15 149.5t26.5 158.5t41.5 146.5t59 126t81 84.5t106 34h13h4q29 0 52 -18t33 -49q4 -14 3 -35q0 -37 -12 -95q-17 -75 -50 -169v-1q-71 -193 -238 -487q3 -420 51 -474q59 38 110 156q59 132 88 308q2 13 15 13h2q15 -2 13 -17q-29 -180 -89 -316 q-68 -153 -145 -182q-3 -1 -8 -1h-2q-67 0 -97 47q-79 128 -79 490zM141 586q142 252 209 435q33 93 49 166q12 58 12 90q0 14 -2 24q-15 45 -56 45q-10 0 -25 -5q-16 -6 -24 -11q-14 -9 -27 -24q-12 -14 -14 -18q-61 -89 -94 -335q-23 -158 -28 -367z" />
<glyph unicode="m" horiz-adv-x="847" d="M0 547q3 60 4 67q15 34 65 34q9 0 21 -2q21 -3 35 -19t12 -36q-2 -37 -2 -112q0 -50 1 -118q0 -8 1 -33.5t1.5 -35t2 -32.5t2.5 -35t3 -32.5t4 -35t5 -32t7 -33.5q3 -13 12 -32q-7 75 -7 142q0 81 10 150q24 165 90 214h1q20 20 53 20q11 0 23 -2q21 -3 35 -19.5 t12 -36.5q-2 -39 -2 -86q2 3 5 9.5t4 10.5q59 134 125 172q19 14 47 14q11 0 23 -2q21 -3 35 -19t12 -36q-2 -37 -2 -112q0 -50 1 -118q0 -8 1 -33.5t1.5 -35t2 -32.5t2.5 -35t3 -32.5t4 -35t5 -32t7 -33.5q9 -39 27 -51q63 25 125 164q59 132 88 308q2 13 15 13h2 q15 -2 13 -18q-29 -180 -89 -316q-67 -152 -145 -181q-2 -1 -6 -1h-7q-55 0 -81 29q-44 48 -72 165q-33 154 -33 324v19q1 10 1 30q-39 -44 -77 -127q-20 -46 -35 -92q0 -8 1 -33t1.5 -34.5t2 -32t2.5 -34.5t3 -32.5t4 -34.5t5 -31.5t7 -33.5q2 -7 6 -19.5t7.5 -22.5 t5 -19.5t-1.5 -15t-11 -5.5q-41 3 -64 29q-26 29 -45 75q-19 40 -35.5 142t-19.5 196q0 3 -3 54q-34 -56 -48 -158q-10 -70 -10 -148q0 -82 11 -173q2 -15 -14 -17h-3h-7q-54 0 -80 29q-44 48 -72 165q-33 154 -33 324v19z" />
<glyph unicode="n" d="M0 547q3 60 4 67q15 34 65 34q7 0 21 -2q21 -3 35 -19t12 -36q-1 -23 -1 -80.5t1 -149.5q0 -3 0.5 -9t0.5 -9q19 61 44 119q59 134 125 172q19 14 47 14q11 0 23 -2q21 -3 35 -19t12 -36q-2 -37 -2 -112q0 -50 1 -118q0 -8 1 -33.5t1.5 -35t2 -32.5t2.5 -35t3 -32.5 t4 -35t5 -32t7 -33.5q9 -39 27 -51q31 12 64 55.5t62 108.5q58 129 87 308q2 13 15 13h3q14 -2 12 -18q-29 -180 -89 -316q-67 -152 -145 -181q-2 -1 -6 -1h-7q-55 0 -81 29q-44 48 -72 165q-33 154 -33 324v19q1 10 1 30q-39 -44 -77 -127q-37 -81 -67 -208q5 -83 20 -150 q2 -7 6 -19.5t7.5 -22.5t5 -19.5t-1.5 -15t-11 -5.5q-41 3 -64 29q-44 48 -72 165q-33 154 -33 324v19z" />
<glyph unicode="o" horiz-adv-x="509" d="M0 748v6q0 102 68 179q39 43 87 64q37 16 79 18h7q14 0 21 -1q58 -7 109 -44.5t77 -91.5v-1q22 -51 27 -111q2 -30 2 -56t-2 -49q-5 -45 -17 -117q-3 -14 -4 -22q0 -3 -2 -11t-2 -11q35 6 54 15q31 15 48 27q13 9 22 -4q9 -12 -4 -21q-30 -22 -53 -31q-26 -12 -73 -19 q-31 -157 -80 -269q-68 -158 -146 -187q-2 -1 -6 -1h-7q-55 0 -81 29q-44 48 -72 165q-33 154 -33 324v19q3 59 4 66q5 10 7 12q-30 60 -30 123zM31 748q0 -53 25 -105q24 8 54 3q21 -3 34.5 -19t11.5 -37q-1 -20 -1 -59q38 -24 91 -36q31 -6 74 -7q26 0 57 3q28 2 41 4 q1 5 2.5 16t2.5 16q23 142 23 200q0 74 -27 138q-22 46 -66.5 79t-93.5 39q-6 1 -18 1h-6q-32 -1 -68 -16q-42 -18 -76 -56q-60 -67 -60 -158v-6zM154 496q0 -45 2 -135q0 -8 1 -33.5t1.5 -35t2 -32.5t2.5 -35t3 -32.5t4 -35t5 -32t7 -33.5q8 -36 27 -51q65 26 126 169 q46 107 76 253q-6 -1 -16 -2t-16 -1q-34 -3 -62 -3q-45 0 -77 7q-44 9 -86 32z" />
<glyph unicode="p" horiz-adv-x="516" d="M0 282v83q0 188 20 300q8 45 59 45q28 0 52 -16t24 -39l-1 -22q-1 -8 -3 -23.5t-2 -22.5l3 3q17 24 41.5 41t48.5 18q6 1 12 1q28 0 59 -20q53 -37 82 -138q78 7 116 23q31 15 48 27q12 9 21 -3q9 -13 -3 -22q-25 -18 -54 -30q-41 -18 -120 -25q17 -74 17 -159v-18 l-4 -59q-9 -89 -40 -152.5t-87 -64.5q-24 0 -44.5 14t-36 47.5t-25 56.5t-19.5 75.5t-12.5 67.5t-9.5 68q-2 14 -3 20q-1 -31 -1 -92v-67q1 -27 3 -87t4 -86l3 -33l33 -16.5t35 -18t32.5 -18t34 -20.5t29.5 -21t29 -24t22.5 -25.5t20 -29.5t12.5 -31.5t7 -35.5 q0 -66 -33.5 -110t-104.5 -51q-70 0 -107 25.5t-63 71.5q-47 82 -69 250t-26 343zM144 505q10 -86 17.5 -136.5t22.5 -133.5t35.5 -129.5t45.5 -55.5q8 1 15 21q4 16 5 33q7 62 7 133q0 102 -14 223q-22 2 -32 4q-55 11 -102 41zM149 540q46 -33 103 -45q6 -1 22 -3 q-13 103 -33 121q-24 -6 -50 -26q-15 -14 -42 -47zM151 -45q29 -323 114 -333q55 6 82 42t27 89q-5 61 -67.5 114t-155.5 88z" />
<glyph unicode="q" horiz-adv-x="509" d="M0 748v6q0 102 68 179q39 43 87 64q37 16 79 18h7q14 0 21 -1q58 -7 108.5 -44.5t76.5 -91.5v-1q18 -42 25 -83q6 -27 6 -61q0 -17 -2 -34q-3 -55 -6.5 -80t-15.5 -97q0 -3 -2 -11t-2 -11q35 6 54 15q31 15 48 27q13 9 22 -4q9 -12 -4 -21q-30 -22 -53 -31 q-26 -12 -73 -19q-30 -152 -81 -269q-2 -5 -8 -18.5t-9 -20.5l12 -42q13 -40 28 -55q21 -21 59 -21q16 0 16 -15q0 -16 -16 -16q-52 0 -81 31q-23 24 -35 66q-1 2 -2 6.5t-2 6.5q-51 -88 -107 -109q-2 -1 -6 -1h-7q-56 0 -81 29q-44 48 -72 165q-33 154 -33 324v19 q3 59 4 66q5 10 7 12q-30 60 -30 123zM31 748q0 -53 25 -105q24 8 54 3q21 -3 34.5 -19t11.5 -37q-1 -20 -1 -59q38 -24 91 -36q31 -6 74 -6q26 0 57 2q28 2 41 4q1 5 2.5 16t2.5 16q23 142 23 200q0 75 -27 138q-22 46 -66.5 79t-93.5 39q-6 1 -18 1h-6q-32 -1 -68 -16 q-42 -18 -76 -56q-60 -67 -60 -158v-6zM154 496q0 -46 2 -136q8 -191 26 -268q8 -36 27 -51q1 0 6 2t7 4q-39 53 -39 99q0 24 10 46q21 46 69 48q18 0 30 -5q23 -9 38 -36q1 2 2.5 5.5t2.5 5.5q46 107 76 253q-6 -1 -16 -2t-16 -1q-34 -3 -62 -3q-45 0 -77 7q-44 9 -86 32z M221 179q-7 -16 -7 -33q0 -36 32 -79q34 33 66 95q0 2 -1 5t-2 5q-10 27 -29 34q-12 4 -18 4q-26 0 -41 -31z" />
<glyph unicode="r" horiz-adv-x="598" d="M0 638q0 28 6 61q11 69 45.5 104.5t72.5 35.5q8 0 24 -4q40 -18 40 -77l-2 -31q-7 -45 -27 -92.5t-41 -71.5q25 -9 76 -13t87.5 -15t52.5 -42q5 -8 8.5 -19.5t5 -20t3 -25l2 -22t1.5 -25t1 -21.5q0 -8 1 -33.5t1.5 -35t2 -32.5t2.5 -35t3 -32.5t4 -35t5 -32t7 -33.5 q8 -37 26 -51h3q2 1 3 1q9 2 25 12q8 6 17 13.5t17.5 16l10.5 10.5q55 54 102.5 178t70.5 266q2 13 15 13h2q15 -2 13 -18q-23 -148 -71 -274t-110 -187q-27 -27 -50 -43q-20 -15 -37 -17q-1 0 -3 -0.5t-3 -0.5h-13q-51 0 -76 29q-44 48 -72 165q-18 87 -25 157q-1 13 -4 38 t-4 37q-7 8 -27 14.5t-43.5 11t-50 16.5t-48 29.5t-35.5 51t-14 79.5zM59 657q0 -52 30 -77q26 21 46 67.5t25 90.5v18q0 45 -22 51h-6q-23 0 -45 -32.5t-26 -85.5z" />
<glyph unicode="s" horiz-adv-x="512" d="M0 638q0 28 6 61q11 69 45.5 104.5t72.5 35.5q8 0 24 -4q40 -18 40 -77l-2 -30q-7 -44 -27 -91t-41 -72q5 -5 46 -38q40 -23 84 -32q31 -6 74 -7q26 0 57 3q88 7 127 24q31 15 48 27q13 9 22 -4q9 -12 -4 -21q-30 -22 -53 -31q-41 -19 -138 -26q-34 -3 -62 -3 q-45 0 -77 7h-2l-2 1q38 -36 57 -79q21 -51 21 -106q0 -17 -4 -49q-14 -85 -64 -149t-114 -72h-13q-43 0 -71.5 28.5t-28.5 74.5q0 69 62 114t144 55q-4 38 -28 84l-14 19q-21 26 -61 57.5t-70.5 60.5t-41.5 62q-12 30 -12 73zM45 113q0 -34 20 -56t54 -22q17 0 21 1 q62 24 81 137q7 38 7 87q-33 -1 -73 -18t-74 -52t-36 -77zM61 656q6 -40 36 -69q36 38 55 108q8 33 8 60q0 16 -3 29q-6 19 -19 23h-6q-21 0 -40 -25q-17 -22 -27 -54q-6 -20 -6 -42q0 -15 2 -30z" />
<glyph unicode="t" horiz-adv-x="423" d="M0 649q0 16 16 16h84q2 35 10 116q2 29 22 45t46 16q28 0 48 -16t18 -44q-3 -38 -7 -116h130q7 0 11.5 -5t4.5 -12q0 -16 -16 -16h-131q-2 -46 -2 -69q0 -456 51 -515q58 38 110 156q58 129 87 308q2 13 15 13h3q14 -2 12 -18q-29 -180 -89 -316q-62 -139 -132 -175 q-2 -2 -3 -2h-2l-4 -2t-3 -2q-3 -1 -8 -1h-1q-68 0 -98 47q-79 128 -79 490q2 57 4 85h-81q-7 0 -11.5 5t-4.5 12z" />
<glyph unicode="u" horiz-adv-x="690" d="M0 284v23q0 51 6 103q8 64 34.5 128t66.5 91q17 12 32 16q14 5 21.5 0.5t5.5 -20.5q-1 -10 -9.5 -52.5t-15.5 -92t-11 -150.5q-1 -31 -1 -65q0 -75 6 -162q1 -17 5 -33q7 -19 15 -20q57 37 109 155q54 123 82 281v61v21t0.5 25t2.5 21q15 34 66 34q7 0 21 -2 q21 -3 35 -19t12 -36q-2 -37 -2 -112q0 -50 1 -118q0 -8 1 -33.5t1.5 -35t2 -32.5t2.5 -35t3 -32.5t4 -35t5 -32t7 -33.5q9 -39 27 -51q63 25 125 164q59 132 88 308q2 13 15 13h2q15 -2 13 -18q-29 -180 -89 -316q-67 -152 -145 -181q-2 -1 -6 -1h-7q-55 0 -81 29 q-44 48 -72 165q-17 78 -25 168q-28 -107 -61 -180q-48 -111 -105 -158q-26 -26 -56 -26q-56 1 -87 64.5t-40 152.5z" />
<glyph unicode="v" horiz-adv-x="483" d="M0 547q3 59 4 66q10 23 34.5 30.5t51.5 2.5q21 -3 35 -19.5t12 -36.5q-1 -23 -1 -80.5t1 -149.5q0 -8 1 -33.5t1.5 -35t2 -32.5t2.5 -35t3 -32.5t4 -35t5 -32t7 -33.5q8 -36 24 -49q56 27 110 139q56 116 87 271q1 7 12 67q-5 2 -31 21q-53 38 -103 99l-1 1 q-54 82 -75 162q-11 43 -11 81q0 33 8 61v1q21 66 83 73h11h4q55 -3 100 -60q54 -65 61 -215q1 -18 1 -37q0 -77 -13 -169q33 -13 56 -6q37 11 72.5 37t54.5 55q9 13 21 5q14 -10 5 -22q-23 -34 -62 -63.5t-82 -41.5q-14 -4 -28 -4q-20 0 -41 8q-3 -20 -11 -60 q-33 -162 -90 -278q-61 -128 -131 -155v-2h-13q-51 0 -76 29q-44 48 -72 165q-33 154 -33 324v19zM213 936q-7 -23 -6 -50q1 -35 11 -78q20 -75 69 -150q48 -58 96 -93l18 -12q11 79 11 154q0 17 -1 35q-6 140 -54 197l-1 1q-36 45 -77 47h-2h-7q-43 -5 -57 -51z" />
<glyph unicode="w" horiz-adv-x="761" d="M0 547q3 59 4 66q10 23 34.5 30.5t51.5 2.5q21 -3 35 -19.5t12 -36.5q-1 -23 -1 -80.5t1 -149.5q0 -8 1 -33.5t1.5 -35t2 -32.5t2.5 -35t3 -32.5t4 -35t5 -32t7 -33.5q8 -36 24 -49q56 27 110 139q14 30 21 46q-28 139 -28 299v21q3 59 4 66q10 23 34.5 30.5t51.5 2.5 q21 -3 35 -19.5t12 -36.5q-1 -23 -1 -80.5t1 -149.5q0 -8 1 -33.5t1.5 -35t2 -32.5t2.5 -35t3 -32.5t4 -35t5 -32t7 -33.5q8 -36 24 -49q56 27 110 139q56 116 87 271q1 7 12 67q-5 2 -31 21q-53 38 -103 99l-1 1q-54 82 -75 162q-11 43 -11 81q0 33 8 61v1q21 66 83 73h11 q3 0 4 -1q55 -3 99 -59q55 -67 62 -216q1 -18 1 -37q0 -76 -13 -168q34 -14 56 -7q37 11 72 37.5t55 55.5q9 13 21 5q13 -9 4 -22q-23 -35 -61.5 -64t-81.5 -41q-14 -4 -29 -4q-20 0 -41 8q-3 -20 -11 -60q-34 -165 -89 -278q-62 -129 -131 -156v-1h-13q-52 0 -77 28 q-39 44 -64 139q0 -2 -2 -5.5t-3 -4.5q-62 -129 -131 -156v-1h-13q-51 0 -76 28q-44 48 -72 165q-33 154 -33 324v20zM503 936q-7 -23 -6 -50q1 -35 11 -78q20 -75 69 -150q48 -58 96 -93l18 -12q11 79 11 154q0 17 -1 35q-6 140 -54 197l-1 1q-36 45 -77 47h-2h-7 q-43 -5 -57 -51z" />
<glyph unicode="x" horiz-adv-x="700" d="M11 616q24 35 62 35q27 0 44 -24q36 -54 128 -176q65 -83 103 -127q85 147 112 269q2 13 15 13h1l2 -1q16 -4 12 -18q-28 -130 -120 -288q168 -196 227 -217q37 42 74 123q58 129 87 308q2 13 16 13h2q15 -2 13 -18q-29 -180 -89 -316q-53 -121 -114 -164 q-19 -16 -31 -17q-5 -1 -9 0q-20 0 -35 5q-85 31 -218 165q-52 -70 -95 -110q-61 -60 -106 -65q-15 -2 -17 13t13 17q31 3 88 57q48 46 95 111q-53 55 -126 146q-71 97 -133 194q-13 19 -13 37t12 35z" />
<glyph unicode="y" horiz-adv-x="620" d="M0 284v23q0 50 6 103q9 64 35 128t66 91q17 12 32 16q14 5 21.5 0.5t5.5 -20.5q-1 -10 -9.5 -52.5t-15.5 -92t-11 -150.5q-1 -31 -1 -65q0 -75 6 -162q1 -17 5 -33q7 -20 15 -21q56 37 109 156q50 112 79 266q-3 72 -11 162l-2 22q0 23 24 39t53 16q51 0 59 -45 q20 -112 20 -299v-84q0 -16 -1 -99.5t-4 -133.5q56 37 109 156q59 132 88 308q2 13 15 13h2q15 -2 13 -18q-29 -180 -89 -316q-66 -149 -141 -180q-25 -329 -192 -412q-30 -8 -65 -8q-71 7 -104.5 51t-33.5 110q1 18 7 35.5t12.5 31.5t20 29.5t22.5 25.5t29 24t29.5 21 t34 20.5t32.5 18t35 18l33 16.5l3 33q2 26 4 86t3 87v67q0 14 -0.5 42t-0.5 42q-25 -90 -55 -158q-48 -111 -105 -158q-26 -26 -56 -26q-56 1 -87 64.5t-40 152.5zM113 -247q0 -53 26.5 -89t81.5 -42q86 10 115 333q-93 -35 -155.5 -88t-67.5 -114z" />
<glyph unicode="z" horiz-adv-x="567" d="M8 396q0 10 5 42q15 80 61 136q62 75 152 75h13q53 -7 88.5 -47.5t35.5 -106.5v-4q-3 -97 -103 -192q12 -1 29 -5q60 -20 98.5 -89.5t42.5 -153.5q57 39 107 154q59 132 88 308q2 13 15 13h2q15 -2 13 -17q-29 -180 -89 -316q-64 -144 -137 -178v-5q-17 -148 -32 -206 q-43 -159 -149 -203q-28 -9 -67 -9q-71 7 -104.5 51t-33.5 110q3 41 22.5 75.5t61 65t66.5 45t82 43.5q15 8 23 12q0 3 1 9.5t1 9.5v32q0 85 -14 127q-17 48 -68 90l-12 -9l-92 -68l-6 -2q-18 0 -18 17q0 8 7 11q56 43 100.5 149t44.5 183q0 69 -42 69h-9q-54 -14 -92 -60 q-41 -47 -53 -119v-2q0 -4 11 -13.5t11 -21.5q-2 -11 -10 -18.5t-19 -7.5h-6q-25 6 -25 26zM72 -247q0 -53 27 -89t82 -42q85 10 114 333q-93 -35 -155.5 -88t-67.5 -114z" />
<glyph unicode="{" horiz-adv-x="516" d="M82 599l1 1l-1 1h1q40 50 70 126t46 141t50.5 140t82.5 126q27 33 57.5 51.5t52.5 18.5q32 0 25 -37q-7 -36 -51 -93q-47 -62 -82 -133q-22 -45 -67 -162.5t-79 -178.5q34 -61 79 -178t67 -163q36 -74 82 -134q71 -90 47 -120q-7 -9 -21 -9q-22 0 -52.5 18.5t-57.5 51.5 q-40 42 -69 98.5t-46.5 112.5t-34 111.5t-41.5 112.5t-58 98h-1z" />
<glyph unicode="|" horiz-adv-x="280" d="M85 1012q-7 14 0.5 19.5t26.5 2.5q42 -7 62 -52t27 -129q6 -64 2 -344q-2 -49 -5 -226.5t1 -275.5q3 -40 10 -62t20 -21l4 -10q-19 -7 -41 -6q-50 4 -67 28q-23 36 -31 129q-8 87 -2 472t2 430q-3 35 -9 45z" />
<glyph unicode="}" horiz-adv-x="516" d="M83 32q6 36 51 93q46 60 82 134q22 46 67 163t79 178q-34 61 -79 178.5t-67 162.5q-35 71 -82 133q-71 91 -47 121q7 9 21 9q22 0 52.5 -18.5t57.5 -51.5q48 -51 82.5 -126t50.5 -140t46 -141t70 -126h1l-1 -1l1 -1h-1q-33 -41 -58 -98t-41.5 -112.5t-34 -111.5 t-46.5 -112.5t-69 -98.5q-27 -33 -57.5 -51.5t-52.5 -18.5q-32 0 -25 36z" />
<glyph unicode="~" horiz-adv-x="1161" d="M82 274q-4 60 22 116t73 94q69 53 152 53q41 0 74 -11q73 -22 160 -107q6 -5 24.5 -23.5l26 -26t22 -20.5t26.5 -21.5t24 -15.5q46 -26 101.5 -30t104.5 16t87 60.5t54 90.5q5 16 20 23.5t31 2.5t24 -20t3 -31q-22 -69 -72 -122.5t-117 -79.5q-66 -26 -139.5 -21.5 t-136.5 40.5q-17 9 -32 20t-32 26t-25 22.5t-28 27t-24 23.5q-74 72 -126 88q-37 11 -79 3.5t-73 -31.5t-48 -63t-15 -78q1 -17 -10 -29.5t-28 -13.5t-30 10t-14 28z" />
<glyph unicode="&#xa2;" horiz-adv-x="690" d="M82 592q0 175 41 342q107 401 360 407q69 0 107 -53.5t38 -137.5q0 -43 -16 -91h1l-3 -6q0 -1 -0.5 -1t-0.5 -1q-31 -71 -100.5 -100t-140 -11.5t-111.5 70.5q-14 -50 -23 -94q-31 -155 -31 -319q0 -176 43 -340t118 -208q1 -1 3 -1t3 -1q25 -10 45 2q9 5 28 24 q53 56 100 179t69 261q2 13 15 13h3q14 -2 12 -18q-24 -146 -70 -270.5t-106 -186.5q-18 -18 -36 -29t-38 -11q-7 -1 -20 -1q-128 0 -210 167q-80 167 -80 415zM265 1039q32 -53 97.5 -73.5t131.5 4t95 91.5q16 42 16 91q0 69 -29.5 116t-90.5 48q-137 0 -220 -277z M353 1405q-7 14 0 19.5t26 2.5q42 -7 62 -51.5t27 -128.5q4 -97 3.5 -366t-1.5 -372q-2 -49 -5 -226.5t1 -275.5q3 -40 10 -62t20 -21l4 -10q-19 -7 -41 -6q-50 4 -67 28q-22 34 -30 129q-8 86 -2.5 668t1.5 627q-3 37 -8 45z" />
<glyph unicode="&#xa3;" horiz-adv-x="864" d="M82 526q0 20 4 31l8 -3q-1 -9 16 -15t45 -8q22 -2 53 -2.5t54 0t45.5 1t25.5 0.5q109 2 158 -3q124 -11 133 -69q2 -14 -2.5 -19t-14.5 0q-6 4 -33 7q-33 3 -173 1.5t-203 4.5q-70 7 -96 23q-18 13 -20 51zM197 18l3 8q13 -1 20 17t10 50q4 44 -0.5 194.5t-7.5 207.5 q-7 210 -1 275q8 80 36 115q10 15 25 26.5t25 14.5l10 4q113 0 134 -49q13 -31 -18 -24q-10 3 -45 1q-23 -2 -61 -6q-2 -44 6 -343.5t1 -368.5q-5 -37 -6 -43q3 -1 9.5 -1.5t9.5 -0.5q22 -2 53 -2.5t54 0t45.5 1t25.5 0.5q109 2 158 -2q62 -5 94.5 -17t37.5 -38 q2 -12 -2 -16t-14 0q-45 21 -561 -7q-24 -2 -41 4z" />
<glyph unicode="&#xa5;" horiz-adv-x="884" d="M83 990q4 80 32 158t68 137v1q39 50 72 70q26 16 55 16h2l2 -1q21 -2 39 -10q31 -15 44 -46q12 -28 10 -63v-2q-12 -92 -73 -294q-46 -155 -111 -314q5 -91 21 -162q8 -37 25 -50q38 15 79.5 61.5t76.5 112.5q59 111 84 245q-5 363 -14 453l-2 23q0 23 24 38.5t53 15.5 q51 0 58 -44q8 -45 14 -239.5t6 -312.5v-83q-9 -441 -95 -593q-26 -46 -63 -71.5t-107 -25.5q-71 7 -104 50.5t-33 109.5q3 41 22.5 75.5t61 65t66.5 45t82 43.5q15 8 23 12q1 6 1 17t1 16q2 28 4.5 88.5t3.5 84.5v67q0 5 -0.5 22t-0.5 24q-23 -73 -58 -140 q-81 -155 -175 -191h-2v-1q-61 -4 -90 29q-26 28 -41 67t-30 98q-39 185 -31 398zM198.5 1019.5q3.5 -110.5 19.5 -270.5q0 -5 0.5 -15.5t0.5 -15.5q54 142 86 247q58 191 71 289q2 30 -7 49q-10 21 -29 30q-18 9 -33 9q-16 0 -37 -12q-42 -21 -58.5 -110.5t-13 -200z M276 171q0 -53 26.5 -89t81.5 -42q85 10 114 333q-92 -35 -154.5 -88t-67.5 -114zM295 549q0 20 4 31l7 -3q-1 -9 16 -15t46 -8q29 -3 68 -3t74 1.5t36 1.5q100 2 157 -4q62 -6 95 -21t38 -47q5 -30 -16 -20q-6 4 -33 7q-33 3 -173.5 1.5t-203.5 4.5q-67 6 -95 24 q-18 13 -20 50zM295 680q0 20 4 31l7 -3q-1 -9 16 -15t46 -8q29 -3 68 -3t74 1.5t36 1.5q100 2 157 -4q62 -6 95 -21t38 -47q5 -30 -16 -20q-6 4 -33 7q-33 3 -173.5 1.5t-203.5 4.5q-67 6 -95 24q-18 13 -20 50z" />
<glyph unicode="&#xa9;" horiz-adv-x="1134" d="M82 416q0 112 40 207q42 99 110 167q70 70 165 110t205 40q122 0 211 -36q93 -38 156 -105q65 -69 97 -162q68 -289 -82 -476q-66 -78 -150 -75q-59 -2 -87 27q-92 -31 -167 -2t-122.5 111t-48.5 188q-3 98 31.5 180.5t109.5 125.5q30 8 66 8q15 0 23 -1q57 -7 76 -66v-1 q18 -66 -1 -117q-16 -44 -57 -64.5t-83 -11.5q-9 2 -30 12q-6 -40 -8 -78t1.5 -77.5t13 -72t28.5 -58t46 -38.5t68.5 -11t93.5 22q-22 -30 15 -40q22 -6 52 -1q73 12 122 91q21 36 29 89q14 70 14 121q0 99 -28 179q-27 82 -80 139q-54 58 -131 88q-77 31 -177 31 q-95 0 -176 -35q-80 -35 -137 -93q-57 -57 -91 -142q-32 -80 -32 -174q0 -100 31 -181q31 -80 89 -140q64 -64 139 -92q78 -31 174 -31q52 0 107 6q46 6 70 -20q22 -24 -7 -43q-21 -14 -66 -18t-104 -4q-114 0 -208 38q-95 37 -164 106t-108 166q-38 95 -38 214zM549 508 q14 -11 31 -15q31 -6 61.5 8.5t42.5 48.5q16 43 1 97q-15 45 -56 45q-1 0 -3 -0.5t-4 -0.5q-33 -25 -61 -126q-2 -8 -4 -17.5t-4.5 -21.5t-3.5 -18z" />
<glyph unicode="&#xad;" horiz-adv-x="671" d="M82 360q0 20 4 31l8 -3q-1 -9 16 -15t45 -8q22 -2 53 -2.5t54 0t45.5 1t25.5 0.5q109 2 158 -3q124 -11 133 -69q2 -14 -2.5 -19t-14.5 0q-6 4 -33 7q-33 3 -173 1.5t-203 4.5q-70 7 -96 23q-18 13 -20 51z" />
<glyph unicode="&#xae;" horiz-adv-x="1134" d="M82 416q0 112 40 207q42 99 110 167q70 70 165 110t205 40q119 0 211 -37q94 -38 156 -104q64 -69 97 -163q68 -288 -82 -475q-67 -79 -150 -76q-34 -1 -59.5 9.5t-39 26t-22 41t-11 43.5t-4.5 44q-1 13 -4 38t-4 37q-7 8 -27 14.5t-43.5 11t-50 16.5t-48 29.5t-35.5 51 t-14 79.5q0 28 6 61q11 69 45.5 104.5t72.5 35.5q8 0 24 -4q40 -18 40 -77l-2 -30q-7 -45 -27.5 -92.5t-41.5 -71.5q25 -9 76 -13.5t88 -15.5t53 -42q5 -8 8.5 -19.5t5 -20t3 -25l2 -22t1.5 -25t1 -21.5q6 -126 6 -128q13 -6 36 3q57 18 91.5 65.5t44.5 112.5q14 70 14 121 q0 99 -28 179q-27 82 -80 139q-54 58 -131 88q-77 31 -177 31q-95 0 -176 -35q-80 -35 -137 -93q-57 -57 -91 -142q-32 -80 -32 -174q0 -100 31 -181q31 -80 89 -140q64 -64 139 -92q78 -31 174 -31q52 0 107 6q46 6 70 -20q22 -24 -7 -43q-21 -14 -66 -18t-104 -4 q-114 0 -208 38q-95 37 -164 106t-108 166q-38 95 -38 214zM530 544q0 -51 31 -77q26 21 46 67.5t25 90.5v19q0 43 -23 50h-6q-23 0 -45 -32t-26 -85z" />
<glyph unicode="&#xb6;" horiz-adv-x="460" d="M85 1012q-7 14 0.5 19.5t26.5 2.5q42 -7 62 -52t27 -129q6 -64 2 -344q-2 -49 -5 -226.5t1 -275.5q3 -40 10 -62t20 -21l4 -10q-19 -7 -41 -6q-50 4 -67 28q-23 36 -31 129q-8 87 -2 472t2 430q-3 35 -9 45zM266 1012q-7 14 0 19.5t26 2.5q42 -7 62 -52t27 -129 q6 -64 2 -344q-2 -49 -5 -226.5t1 -275.5q3 -39 10.5 -61.5t20.5 -21.5l3 -10q-19 -7 -41 -6q-50 4 -67 28q-22 34 -30 129q-8 87 -2 472t2 430q-3 35 -9 45z" />
<glyph unicode="&#xbf;" horiz-adv-x="501" d="M96 184q0 116 107 170q40 21 79 23q0 2 -2 5t-2 4q-6 21 -4.5 65.5t-1.5 55.5q-3 9 -7 11q-7 4 5 5h14q57 -3 69 -43q5 -15 3 -50q0 -1 -0.5 -8t-1 -14.5t0 -17.5t2.5 -17q5 -20 23 -20l3 -2q-22 -2 -31 -2q-33 0 -48 6q-56 -21 -75 -58t-19 -98q-1 -41 28 -74t67.5 -46 t79 -1t61.5 51q0 1 -0.5 1t-0.5 1q-3 -1 -10 -1q-13 0 -22 9t-9 22t9 21.5t22 8.5q20 0 28 -18q3 -3 5 -14q5 -58 -43.5 -103.5t-122.5 -45.5q-80 1 -140.5 48t-65.5 126zM261 597q0 20 14 34.5t34 14.5t34.5 -14.5t14.5 -34.5t-14.5 -34t-34.5 -14t-34 14t-14 34z" />
<glyph unicode="&#xc0;" horiz-adv-x="1527" d="M9 374q-19 189 0 442q2 14 17 14q14 -2 14 -16q-19 -253 0 -437q13 -140 50 -225q41 -95 109 -106h1q81 -22 179 56q76 61 171 187q130 175 191 291h1q16 29 48 89q-95 14 -154 31q-162 45 -230 150q-39 60 -54 164v1q-2 101 59.5 183t152.5 126q111 54 258 54h9 q72 0 126 -21q60 -23 77 -72v-1q2 -10 3 -16q33 86 86 89q30 0 54 -12.5t39 -30t25.5 -47t16 -53t8 -59t3 -54t0.5 -49.5q0 -126 -27 -386q94 -2 147 -2q16 0 16 -15t-16 -15q-102 0 -150 1q-22 -219 -27 -328q0 -213 71 -259q1 0 1 -0.5t1 -0.5q25 -10 45 2q11 6 29 24 q53 55 99.5 178.5t68.5 262.5q2 13 16 13q1 0 1 -0.5t1 -0.5q15 -2 13 -17q-24 -145 -70.5 -270t-106.5 -187q-22 -22 -35 -30q-16 -10 -39 -10v-1q-152 0 -185 153q-19 77 -19 191q0 103 21 284q-165 7 -301 25q-36 -66 -54 -98q-61 -116 -194 -295q-101 -133 -176 -193 q-112 -87 -206 -62q-85 14 -132 123q-36 84 -52 235zM383 1017q14 -97 49 -150q63 -96 212 -137q77 -21 161 -33q93 175 144 316q34 94 47 157q17 76 8 105q-12 34 -59 53q-45 17 -115 19h-8q-138 0 -245 -51q-84 -41 -139.5 -115t-54.5 -164zM838 693q121 -17 289 -24 q4 29 15.5 119t16.5 134.5t10.5 116.5t5.5 131q0 155 -57 161h-3q-11 -1 -23 -15.5t-24.5 -45t-19.5 -50t-18.5 -57t-12.5 -39.5v2q-12 -46 -39 -124q-54 -145 -140 -309zM1063.5 1610q0.5 3 2 7.5t5.5 9.5q9 9 23.5 10.5t33 -5.5t36.5 -22.5t33 -45.5t23 -70h-36 q-39 0 -63 30l-41 56q-2 2 -6.5 8t-5.5 8t-3 6.5t-1.5 7.5z" />
<glyph unicode="&#xc1;" horiz-adv-x="1527" d="M9 374q-19 189 0 442q2 14 17 14q14 -2 14 -16q-19 -253 0 -437q13 -140 50 -225q41 -95 109 -106h1q81 -22 179 56q76 61 171 187q130 175 191 291h1q16 29 48 89q-95 14 -154 31q-162 45 -230 150q-39 60 -54 164v1q-2 101 59.5 183t152.5 126q111 54 258 54h9 q72 0 126 -21q60 -23 77 -72v-1q2 -10 3 -16q33 86 86 89q30 0 54 -12.5t39 -30t25.5 -47t16 -53t8 -59t3 -54t0.5 -49.5q0 -126 -27 -386q94 -2 147 -2q16 0 16 -15t-16 -15q-102 0 -150 1q-22 -219 -27 -328q0 -213 71 -259q1 0 1 -0.5t1 -0.5q25 -10 45 2q11 6 29 24 q53 55 99.5 178.5t68.5 262.5q2 13 16 13q1 0 1 -0.5t1 -0.5q15 -2 13 -17q-24 -145 -70.5 -270t-106.5 -187q-22 -22 -35 -30q-16 -10 -39 -10v-1q-152 0 -185 153q-19 77 -19 191q0 103 21 284q-165 7 -301 25q-36 -66 -54 -98q-61 -116 -194 -295q-101 -133 -176 -193 q-112 -87 -206 -62q-85 14 -132 123q-36 84 -52 235zM383 1017q14 -97 49 -150q63 -96 212 -137q77 -21 161 -33q93 175 144 316q34 94 47 157q17 76 8 105q-12 34 -59 53q-45 17 -115 19h-8q-138 0 -245 -51q-84 -41 -139.5 -115t-54.5 -164zM838 693q121 -17 289 -24 q4 29 15.5 119t16.5 134.5t10.5 116.5t5.5 131q0 155 -57 161h-3q-11 -1 -23 -15.5t-24.5 -45t-19.5 -50t-18.5 -57t-12.5 -39.5v2q-12 -46 -39 -124q-54 -145 -140 -309zM1102 1494q8 40 23 70t33 45.5t36.5 22.5t33 5.5t23.5 -10.5q4 -5 5.5 -9.5t2 -7.5t-1.5 -7.5 t-3 -6.5t-5.5 -8t-6.5 -8l-41 -56q-24 -30 -63 -30h-36z" />
<glyph unicode="&#xc2;" horiz-adv-x="1527" d="M9 374q-19 189 0 442q2 14 17 14q14 -2 14 -16q-19 -253 0 -437q13 -140 50 -225q41 -95 109 -106h1q81 -22 179 56q76 61 171 187q130 175 191 291h1q16 29 48 89q-95 14 -154 31q-162 45 -230 150q-39 60 -54 164v1q-2 101 59.5 183t152.5 126q111 54 258 54h9 q72 0 126 -21q60 -23 77 -72v-1q2 -10 3 -16q33 86 86 89q30 0 54 -12.5t39 -30t25.5 -47t16 -53t8 -59t3 -54t0.5 -49.5q0 -126 -27 -386q94 -2 147 -2q16 0 16 -15t-16 -15q-102 0 -150 1q-22 -219 -27 -328q0 -213 71 -259q1 0 1 -0.5t1 -0.5q25 -10 45 2q11 6 29 24 q53 55 99.5 178.5t68.5 262.5q2 13 16 13q1 0 1 -0.5t1 -0.5q15 -2 13 -17q-24 -145 -70.5 -270t-106.5 -187q-22 -22 -35 -30q-16 -10 -39 -10v-1q-152 0 -185 153q-19 77 -19 191q0 103 21 284q-165 7 -301 25q-36 -66 -54 -98q-61 -116 -194 -295q-101 -133 -176 -193 q-112 -87 -206 -62q-85 14 -132 123q-36 84 -52 235zM383 1017q14 -97 49 -150q63 -96 212 -137q77 -21 161 -33q93 175 144 316q34 94 47 157q17 76 8 105q-12 34 -59 53q-45 17 -115 19h-8q-138 0 -245 -51q-84 -41 -139.5 -115t-54.5 -164zM838 693q121 -17 289 -24 q4 29 15.5 119t16.5 134.5t10.5 116.5t5.5 131q0 155 -57 161h-3q-11 -1 -23 -15.5t-24.5 -45t-19.5 -50t-18.5 -57t-12.5 -39.5v2q-12 -46 -39 -124q-54 -145 -140 -309zM1009 1491q41 66 80 101.5t82.5 42.5t91 -29t96.5 -115q-75 -6 -111 31l-65 67l-60 -62 q-25 -25 -47 -30.5t-67 -5.5z" />
<glyph unicode="&#xc3;" horiz-adv-x="1527" d="M9 374q-19 189 0 442q2 14 17 14q14 -2 14 -16q-19 -253 0 -437q13 -140 50 -225q41 -95 109 -106h1q81 -22 179 56q76 61 171 187q130 175 191 291h1q16 29 48 89q-95 14 -154 31q-162 45 -230 150q-39 60 -54 164v1q-2 101 59.5 183t152.5 126q111 54 258 54h9 q72 0 126 -21q60 -23 77 -72v-1q2 -10 3 -16q33 86 86 89q30 0 54 -12.5t39 -30t25.5 -47t16 -53t8 -59t3 -54t0.5 -49.5q0 -126 -27 -386q94 -2 147 -2q16 0 16 -15t-16 -15q-102 0 -150 1q-22 -219 -27 -328q0 -213 71 -259q1 0 1 -0.5t1 -0.5q25 -10 45 2q11 6 29 24 q53 55 99.5 178.5t68.5 262.5q2 13 16 13q1 0 1 -0.5t1 -0.5q15 -2 13 -17q-24 -145 -70.5 -270t-106.5 -187q-22 -22 -35 -30q-16 -10 -39 -10v-1q-152 0 -185 153q-19 77 -19 191q0 103 21 284q-165 7 -301 25q-36 -66 -54 -98q-61 -116 -194 -295q-101 -133 -176 -193 q-112 -87 -206 -62q-85 14 -132 123q-36 84 -52 235zM383 1017q14 -97 49 -150q63 -96 212 -137q77 -21 161 -33q93 175 144 316q34 94 47 157q17 76 8 105q-12 34 -59 53q-45 17 -115 19h-8q-138 0 -245 -51q-84 -41 -139.5 -115t-54.5 -164zM838 693q121 -17 289 -24 q4 29 15.5 119t16.5 134.5t10.5 116.5t5.5 131q0 155 -57 161h-3q-11 -1 -23 -15.5t-24.5 -45t-19.5 -50t-18.5 -57t-12.5 -39.5v2q-12 -46 -39 -124q-54 -145 -140 -309zM985.5 1528.5q2.5 31.5 32.5 69.5q36 39 89 39q27 0 50 -10q22 -8 45 -28q24 -21 43 -32 q19 -10 36 -10q26 0 40 23q23 42 51 38q23 -4 22 -33q-1 -28 -30 -63q-34 -39 -91 -39q-27 0 -51 9q-22 10 -44 30q-23 22 -41 33q-15 11 -37 11q-26 0 -40 -23q-28 -51 -56 -48q-21 2 -18.5 33.5z" />
<glyph unicode="&#xc4;" horiz-adv-x="1527" d="M9 374q-19 189 0 442q2 14 17 14q14 -2 14 -16q-19 -253 0 -437q13 -140 50 -225q41 -95 109 -106h1q81 -22 179 56q76 61 171 187q130 175 191 291h1q16 29 48 89q-95 14 -154 31q-162 45 -230 150q-39 60 -54 164v1q-2 101 59.5 183t152.5 126q111 54 258 54h9 q72 0 126 -21q60 -23 77 -72v-1q2 -10 3 -16q33 86 86 89q30 0 54 -12.5t39 -30t25.5 -47t16 -53t8 -59t3 -54t0.5 -49.5q0 -126 -27 -386q94 -2 147 -2q16 0 16 -15t-16 -15q-102 0 -150 1q-22 -219 -27 -328q0 -213 71 -259q1 0 1 -0.5t1 -0.5q25 -10 45 2q11 6 29 24 q53 55 99.5 178.5t68.5 262.5q2 13 16 13q1 0 1 -0.5t1 -0.5q15 -2 13 -17q-24 -145 -70.5 -270t-106.5 -187q-22 -22 -35 -30q-16 -10 -39 -10v-1q-152 0 -185 153q-19 77 -19 191q0 103 21 284q-165 7 -301 25q-36 -66 -54 -98q-61 -116 -194 -295q-101 -133 -176 -193 q-112 -87 -206 -62q-85 14 -132 123q-36 84 -52 235zM383 1017q14 -97 49 -150q63 -96 212 -137q77 -21 161 -33q93 175 144 316q34 94 47 157q17 76 8 105q-12 34 -59 53q-45 17 -115 19h-8q-138 0 -245 -51q-84 -41 -139.5 -115t-54.5 -164zM838 693q121 -17 289 -24 q4 29 15.5 119t16.5 134.5t10.5 116.5t5.5 131q0 155 -57 161h-3q-11 -1 -23 -15.5t-24.5 -45t-19.5 -50t-18.5 -57t-12.5 -39.5v2q-12 -46 -39 -124q-54 -145 -140 -309zM1001 1523q0 24 17 40.5t41 16.5t40.5 -16.5t16.5 -40.5t-16.5 -41t-40.5 -17t-41 17t-17 41z M1215 1523q0 24 17 40.5t41 16.5t41 -16.5t17 -40.5t-17 -41t-41 -17t-41 17t-17 41z" />
<glyph unicode="&#xc5;" horiz-adv-x="1527" d="M9 374q-19 189 0 442q2 14 17 14q14 -2 14 -16q-19 -253 0 -437q13 -140 50 -225q41 -95 109 -106h1q81 -22 179 56q76 61 171 187q130 175 191 291h1q16 29 48 89q-95 14 -154 31q-162 45 -230 150q-39 60 -54 164v1q-2 101 59.5 183t152.5 126q111 54 258 54h9 q72 0 126 -21q60 -23 77 -72v-1q2 -10 3 -16q33 86 86 89q30 0 54 -12.5t39 -30t25.5 -47t16 -53t8 -59t3 -54t0.5 -49.5q0 -126 -27 -386q94 -2 147 -2q16 0 16 -15t-16 -15q-102 0 -150 1q-22 -219 -27 -328q0 -213 71 -259q1 0 1 -0.5t1 -0.5q25 -10 45 2q11 6 29 24 q53 55 99.5 178.5t68.5 262.5q2 13 16 13q1 0 1 -0.5t1 -0.5q15 -2 13 -17q-24 -145 -70.5 -270t-106.5 -187q-22 -22 -35 -30q-16 -10 -39 -10v-1q-152 0 -185 153q-19 77 -19 191q0 103 21 284q-165 7 -301 25q-36 -66 -54 -98q-61 -116 -194 -295q-101 -133 -176 -193 q-112 -87 -206 -62q-85 14 -132 123q-36 84 -52 235zM383 1017q14 -97 49 -150q63 -96 212 -137q77 -21 161 -33q93 175 144 316q34 94 47 157q17 76 8 105q-12 34 -59 53q-45 17 -115 19h-8q-138 0 -245 -51q-84 -41 -139.5 -115t-54.5 -164zM838 693q121 -17 289 -24 q4 29 15.5 119t16.5 134.5t10.5 116.5t5.5 131q0 155 -57 161h-3q-11 -1 -23 -15.5t-24.5 -45t-19.5 -50t-18.5 -57t-12.5 -39.5v2q-12 -46 -39 -124q-54 -145 -140 -309zM990 1463q0 74 52 123q53 50 127 50t127 -50q52 -49 52 -123q0 -51 -27 -93t-72 -63 q-23 -15 -71 -16.5t-88 16.5q-46 23 -73 63t-27 93zM1067 1462q0 -43 29 -74q31 -29 73 -29q44 0 73 29q30 32 30 74q0 44 -30 74q-28 29 -73 29t-73 -29q-29 -31 -29 -74z" />
<glyph unicode="&#xc6;" horiz-adv-x="1892" d="M9 374q-19 189 0 442q2 14 17 14q14 -2 14 -16q-19 -253 0 -437q13 -140 50 -225q41 -95 109 -106h1q81 -22 179 56q76 61 171 187q130 175 191 291h1q16 29 48 89q-95 14 -154 31q-162 45 -230 150q-39 60 -54 164v1q-2 101 59.5 183t152.5 126q111 54 258 54h9 q72 0 126 -21q60 -23 77 -72v-1q2 -10 3 -16q33 86 86 89q30 0 54 -12.5t39 -30t25.5 -47t16 -53t8 -59t3 -54t0.5 -49.5q0 -126 -27 -386q94 -2 147 -2q16 0 16 -15t-16 -15q-102 0 -150 1q-22 -219 -27 -328q0 -213 71 -259q1 0 1 -0.5t1 -0.5l22 -35v-1q-152 0 -185 153 q-19 77 -19 191q0 103 21 284q-165 7 -301 25q-36 -66 -54 -98q-61 -116 -194 -295q-101 -133 -176 -193q-112 -87 -206 -62q-85 14 -132 123q-36 84 -52 235zM383 1017q14 -97 49 -150q63 -96 212 -137q77 -21 161 -33q93 175 144 316q34 94 47 157q17 76 8 105 q-12 34 -59 53q-45 17 -115 19h-8q-138 0 -245 -51q-84 -41 -139.5 -115t-54.5 -164zM838 693q121 -17 289 -24q4 29 15.5 119t16.5 134.5t10.5 116.5t5.5 131q0 155 -57 161h-3q-11 -1 -23 -15.5t-24.5 -45t-19.5 -50t-18.5 -57t-12.5 -39.5v2q-12 -46 -39 -124 q-54 -145 -140 -309zM1365 592q0 175 41 342q107 401 360 407q69 0 107 -53.5t38 -137.5q0 -29 -6 -56q-10 -46 -31 -76q-61 -84 -167.5 -83.5t-166.5 75.5q-11 -39 -22 -94q-18 -87 -25 -166v-6q59 67 146 88q65 14 114 -28l-14 -18q-40 33 -93 22q-133 -30 -156 -314 q11 -155 52 -281.5t105 -163.5q1 -1 3 -1t3 -1q25 -10 45 2q9 5 28 24q53 56 100 179t69 261q2 13 15 13h3q14 -2 12 -18q-24 -146 -70 -270.5t-106 -186.5q-18 -18 -36 -29t-38 -11q-7 -1 -20 -1q-128 0 -210 167q-54 112 -72 273l-5 51v1q-3 45 -3 90zM1548 1039 q44 -71 139 -81t156 57q43 52 45 137q0 69 -29.5 116t-90.5 48q-137 0 -220 -277z" />
<glyph unicode="&#xc7;" horiz-adv-x="1222" d="M9 373q-19 189 0 442q0 6 4.5 10.5t10.5 4.5h2q14 -2 14 -17q-19 -253 0 -437q13 -139 50 -224q41 -95 109 -106h1q81 -22 179 56q76 61 171 187q92 122 146 212q-3 45 -3 91q0 175 41 342q107 401 361 407q69 0 106.5 -53.5t37.5 -137.5q0 -46 -15 -91q0 -1 -1 -3t-1 -3 t-0.5 -1t-0.5 -1q-31 -71 -100.5 -100t-140.5 -11.5t-112 70.5q-11 -39 -22 -94q-31 -155 -31 -319q0 -177 43 -340.5t117 -207.5q1 -1 3 -1t3 -1q25 -10 45 2q11 6 29 24q53 55 99.5 178t68.5 262q2 13 16 13h2q15 -2 13 -18q-24 -145 -70.5 -270t-106.5 -187 q-19 -19 -35 -29q-18 -11 -38 -11q-7 -1 -21 -1q-127 0 -209 167q-55 114 -73 273q-50 -78 -126 -180q-99 -130 -176 -192q-113 -88 -206 -63q-85 14 -132 124q-36 84 -52 234zM741 -144q-10 30 16 42q13 6 34 3q33 -6 46.5 -7.5t36.5 1t39 13.5q22 24 25 57.5t-3 63.5l81 1 q6 -50 -5.5 -98.5t-40.5 -76.5q-63 -60 -182 -40q-37 9 -47 41zM876 1039q32 -53 97.5 -73.5t131.5 4t95 91.5q16 42 16 91q0 69 -29.5 116t-90.5 48q-137 0 -220 -277z" />
<glyph unicode="&#xc8;" horiz-adv-x="1222" d="M9 373q-17 169 0 442q0 6 4.5 10.5t10.5 4.5h2q14 -2 14 -17q-19 -253 0 -437q13 -139 50 -224q41 -95 109 -106h1q81 -22 179 56q76 61 171 187q92 122 146 212v1q-3 45 -3 90q0 175 41 342q107 401 361 407q69 0 106.5 -53.5t37.5 -137.5q0 -29 -6 -56q-10 -48 -30 -76 q-61 -84 -168 -83.5t-167 75.5q-11 -39 -22 -94q-16 -79 -24 -166q0 -1 -0.5 -3t-0.5 -3q58 66 147 88q65 14 114 -28l-15 -18q-40 33 -93 22q-133 -30 -156 -314q11 -155 52 -281.5t105 -163.5q1 -1 3 -1t3 -1q25 -10 45 2q11 6 29 24q53 55 99.5 178t68.5 262q2 13 16 13 h2q15 -2 13 -18q-24 -145 -70.5 -270t-106.5 -187q-19 -19 -35 -29q-18 -11 -38 -11q-7 -1 -21 -1q-127 0 -209 167q-55 114 -73 273q-50 -78 -126 -180q-99 -130 -176 -192q-113 -88 -206 -63q-85 14 -132 124q-36 84 -52 234zM876 1039q44 -71 139 -81t156 57 q43 52 45 137q0 69 -29.5 116t-90.5 48q-137 0 -220 -277zM1063.5 1610q0.5 3 2 7.5t5.5 9.5q9 9 23.5 10.5t33 -5.5t36.5 -22.5t33 -45.5t23 -70h-36q-39 0 -63 30l-41 56q-2 2 -6.5 8t-5.5 8t-3 6.5t-1.5 7.5z" />
<glyph unicode="&#xc9;" horiz-adv-x="1222" d="M9 373q-17 169 0 442q0 6 4.5 10.5t10.5 4.5h2q14 -2 14 -17q-19 -253 0 -437q13 -139 50 -224q41 -95 109 -106h1q81 -22 179 56q76 61 171 187q92 122 146 212v1q-3 45 -3 90q0 175 41 342q107 401 361 407q69 0 106.5 -53.5t37.5 -137.5q0 -29 -6 -56q-10 -48 -30 -76 q-61 -84 -168 -83.5t-167 75.5q-11 -39 -22 -94q-16 -79 -24 -166q0 -1 -0.5 -3t-0.5 -3q58 66 147 88q65 14 114 -28l-15 -18q-40 33 -93 22q-133 -30 -156 -314q11 -155 52 -281.5t105 -163.5q1 -1 3 -1t3 -1q25 -10 45 2q11 6 29 24q53 55 99.5 178t68.5 262q2 13 16 13 h2q15 -2 13 -18q-24 -145 -70.5 -270t-106.5 -187q-19 -19 -35 -29q-18 -11 -38 -11q-7 -1 -21 -1q-127 0 -209 167q-55 114 -73 273q-50 -78 -126 -180q-99 -130 -176 -192q-113 -88 -206 -63q-85 14 -132 124q-36 84 -52 234zM876 1039q44 -71 139 -81t156 57 q43 52 45 137q0 69 -29.5 116t-90.5 48q-137 0 -220 -277zM1061 1494q8 40 23 70t33 45.5t36.5 22.5t33 5.5t23.5 -10.5q4 -5 5.5 -9.5t2 -7.5t-1.5 -7.5t-3 -6.5t-5.5 -8t-6.5 -8l-41 -56q-24 -30 -63 -30h-36z" />
<glyph unicode="&#xca;" horiz-adv-x="1220" d="M9 373q-17 169 0 442q0 6 4.5 10.5t10.5 4.5h2q14 -2 14 -17q-19 -253 0 -437q13 -139 50 -224q41 -95 109 -106h1q81 -22 179 56q76 61 171 187q92 122 146 212v1q-3 45 -3 90q0 175 41 342q107 401 361 407q69 0 106.5 -53.5t37.5 -137.5q0 -29 -6 -56q-10 -48 -30 -76 q-61 -84 -168 -83.5t-167 75.5q-11 -39 -22 -94q-16 -79 -24 -166q0 -1 -0.5 -3t-0.5 -3q58 66 147 88q65 14 114 -28l-15 -18q-40 33 -93 22q-133 -30 -156 -314q11 -155 52 -281.5t105 -163.5q1 -1 3 -1t3 -1q25 -10 45 2q11 6 29 24q53 55 99.5 178t68.5 262q2 13 16 13 h2q15 -2 13 -18q-24 -145 -70.5 -270t-106.5 -187q-19 -19 -35 -29q-18 -11 -38 -11q-7 -1 -21 -1q-127 0 -209 167q-55 114 -73 273q-50 -78 -126 -180q-99 -130 -176 -192q-113 -88 -206 -63q-85 14 -132 124q-36 84 -52 234zM876 1039q44 -71 139 -81t156 57 q43 52 45 137q0 69 -29.5 116t-90.5 48q-137 0 -220 -277zM880 1491q41 66 80 101.5t82.5 42.5t91 -29t96.5 -115q-75 -6 -111 31l-65 67l-60 -62q-25 -25 -47 -30.5t-67 -5.5z" />
<glyph unicode="&#xcb;" horiz-adv-x="1222" d="M9 373q-17 169 0 442q0 6 4.5 10.5t10.5 4.5h2q14 -2 14 -17q-19 -253 0 -437q13 -139 50 -224q41 -95 109 -106h1q81 -22 179 56q76 61 171 187q92 122 146 212v1q-3 45 -3 90q0 175 41 342q107 401 361 407q69 0 106.5 -53.5t37.5 -137.5q0 -29 -6 -56q-10 -48 -30 -76 q-61 -84 -168 -83.5t-167 75.5q-11 -39 -22 -94q-16 -79 -24 -166q0 -1 -0.5 -3t-0.5 -3q58 66 147 88q65 14 114 -28l-15 -18q-40 33 -93 22q-133 -30 -156 -314q11 -155 52 -281.5t105 -163.5q1 -1 3 -1t3 -1q25 -10 45 2q11 6 29 24q53 55 99.5 178t68.5 262q2 13 16 13 h2q15 -2 13 -18q-24 -145 -70.5 -270t-106.5 -187q-19 -19 -35 -29q-18 -11 -38 -11q-7 -1 -21 -1q-127 0 -209 167q-55 114 -73 273q-50 -78 -126 -180q-99 -130 -176 -192q-113 -88 -206 -63q-85 14 -132 124q-36 84 -52 234zM876 1039q44 -71 139 -81t156 57 q43 52 45 137q0 69 -29.5 116t-90.5 48q-137 0 -220 -277z" />
<glyph unicode="&#xcc;" horiz-adv-x="1302" d="M9 373q-19 189 0 443q2 14 17 14q14 -2 14 -17q-18 -252 0 -436q13 -140 50 -225q41 -95 109 -106h1q25 -6 46 -5q54 6 109 87q49 72 100 215q78 219 152 613q4 24 25 155q2 9 5.5 31.5t5.5 34.5v1q5 37 16 75l1 1q18 59 52 80q20 11 40 11h7q225 -36 220 -644 q0 -19 -1 -83t-2 -99t-6 -97.5t-13 -105.5t-23.5 -93.5t-37.5 -88.5q43 -78 102 -92q16 -3 35 -3q49 2 80.5 23t58.5 62q43 67 77.5 171.5t52.5 218.5q2 13 16 13l1 -1h1q15 -2 13 -17q-42 -254 -135 -402q-60 -94 -163 -98h-1q-22 0 -42 3h-1q-65 15 -113 93 q-32 -45 -72 -71q-36 -22 -93 -24q-71 7 -104 51t-33 110q1 46 24.5 81t58 50t77 3.5t77.5 -51.5q18 111 28 364v67q-4 309 -31 481q-9 53 -15 74q-6 20 -12.5 32.5t-21 23.5t-33.5 8q-22 -6 -39 -61q-8 -29 -26 -137q-23 -147 -25 -156q-74 -396 -153 -618 q-47 -136 -104 -221q-63 -93 -131 -101h-1q-28 -1 -56 6q-85 14 -132 123q-36 84 -52 234zM605 172q0 -53 26.5 -89.5t81.5 -42.5q60 8 94 179q-48 57 -99 57h-3q-40 -1 -68.5 -32t-31.5 -72zM715.5 1610q0.5 3 2 7.5t5.5 9.5q9 9 23.5 10.5t33 -5.5t36 -22.5t32.5 -45.5 t23 -70h-35q-39 0 -63 30l-41 56q-2 2 -6.5 8t-5.5 8t-3 6.5t-1.5 7.5z" />
<glyph unicode="&#xcd;" horiz-adv-x="1302" d="M9 373q-19 189 0 443q2 14 17 14q14 -2 14 -17q-18 -252 0 -436q13 -140 50 -225q41 -95 109 -106h1q25 -6 46 -5q54 6 109 87q49 72 100 215q78 219 152 613q4 24 25 155q2 9 5.5 31.5t5.5 34.5v1q5 37 16 75l1 1q18 59 52 80q20 11 40 11h7q225 -36 220 -644 q0 -19 -1 -83t-2 -99t-6 -97.5t-13 -105.5t-23.5 -93.5t-37.5 -88.5q43 -78 102 -92q16 -3 35 -3q49 2 80.5 23t58.5 62q43 67 77.5 171.5t52.5 218.5q2 13 16 13l1 -1h1q15 -2 13 -17q-42 -254 -135 -402q-60 -94 -163 -98h-1q-22 0 -42 3h-1q-65 15 -113 93 q-32 -45 -72 -71q-36 -22 -93 -24q-71 7 -104 51t-33 110q1 46 24.5 81t58 50t77 3.5t77.5 -51.5q18 111 28 364v67q-4 309 -31 481q-9 53 -15 74q-6 20 -12.5 32.5t-21 23.5t-33.5 8q-22 -6 -39 -61q-8 -29 -26 -137q-23 -147 -25 -156q-74 -396 -153 -618 q-47 -136 -104 -221q-63 -93 -131 -101h-1q-28 -1 -56 6q-85 14 -132 123q-36 84 -52 234zM605 172q0 -53 26.5 -89.5t81.5 -42.5q60 8 94 179q-48 57 -99 57h-3q-40 -1 -68.5 -32t-31.5 -72zM738 1494q8 40 23 70t32.5 45.5t36 22.5t33 5.5t23.5 -10.5q4 -5 5.5 -9.5 t2 -7.5t-1.5 -7.5t-3 -6.5t-5.5 -8t-6.5 -8l-41 -56q-24 -30 -63 -30h-35z" />
<glyph unicode="&#xce;" horiz-adv-x="1302" d="M9 373q-19 189 0 443q2 14 17 14q14 -2 14 -17q-18 -252 0 -436q13 -140 50 -225q41 -95 109 -106h1q25 -6 46 -5q54 6 109 87q49 72 100 215q78 219 152 613q4 24 25 155q2 9 5.5 31.5t5.5 34.5v1q5 37 16 75l1 1q18 59 52 80q20 11 40 11h7q225 -36 220 -644 q0 -19 -1 -83t-2 -99t-6 -97.5t-13 -105.5t-23.5 -93.5t-37.5 -88.5q43 -78 102 -92q16 -3 35 -3q49 2 80.5 23t58.5 62q43 67 77.5 171.5t52.5 218.5q2 13 16 13l1 -1h1q15 -2 13 -17q-42 -254 -135 -402q-60 -94 -163 -98h-1q-22 0 -42 3h-1q-65 15 -113 93 q-32 -45 -72 -71q-36 -22 -93 -24q-71 7 -104 51t-33 110q1 46 24.5 81t58 50t77 3.5t77.5 -51.5q18 111 28 364v67q-4 309 -31 481q-9 53 -15 74q-6 20 -12.5 32.5t-21 23.5t-33.5 8q-22 -6 -39 -61q-8 -29 -26 -137q-23 -147 -25 -156q-74 -396 -153 -618 q-47 -136 -104 -221q-63 -93 -131 -101h-1q-28 -1 -56 6q-85 14 -132 123q-36 84 -52 234zM605 172q0 -53 26.5 -89.5t81.5 -42.5q60 8 94 179q-48 57 -99 57h-3q-40 -1 -68.5 -32t-31.5 -72zM640 1491q41 66 80 101.5t82.5 42.5t91 -29t96.5 -115q-75 -6 -111 31l-65 67 l-60 -62q-25 -25 -47 -30.5t-67 -5.5z" />
<glyph unicode="&#xcf;" horiz-adv-x="1302" d="M9 373q-19 189 0 443q2 14 17 14q14 -2 14 -17q-18 -252 0 -436q13 -140 50 -225q41 -95 109 -106h1q25 -6 46 -5q54 6 109 87q49 72 100 215q78 219 152 613q4 24 25 155q2 9 5.5 31.5t5.5 34.5v1q5 37 16 75l1 1q18 59 52 80q20 11 40 11h7q225 -36 220 -644 q0 -19 -1 -83t-2 -99t-6 -97.5t-13 -105.5t-23.5 -93.5t-37.5 -88.5q43 -78 102 -92q16 -3 35 -3q49 2 80.5 23t58.5 62q43 67 77.5 171.5t52.5 218.5q2 13 16 13l1 -1h1q15 -2 13 -17q-42 -254 -135 -402q-60 -94 -163 -98h-1q-22 0 -42 3h-1q-65 15 -113 93 q-32 -45 -72 -71q-36 -22 -93 -24q-71 7 -104 51t-33 110q1 46 24.5 81t58 50t77 3.5t77.5 -51.5q18 111 28 364v67q-4 309 -31 481q-9 53 -15 74q-6 20 -12.5 32.5t-21 23.5t-33.5 8q-22 -6 -39 -61q-8 -29 -26 -137q-23 -147 -25 -156q-74 -396 -153 -618 q-47 -136 -104 -221q-63 -93 -131 -101h-1q-28 -1 -56 6q-85 14 -132 123q-36 84 -52 234zM605 172q0 -53 26.5 -89.5t81.5 -42.5q60 8 94 179q-48 57 -99 57h-3q-40 -1 -68.5 -32t-31.5 -72zM636 1523q0 24 17 40.5t41 16.5t41 -16.5t17 -40.5t-17 -41t-41 -17t-41 17 t-17 41zM851 1523q0 24 16.5 40.5t40.5 16.5t41 -16.5t17 -40.5t-17 -41t-41 -17t-40.5 17t-16.5 41z" />
<glyph unicode="&#xd0;" horiz-adv-x="1302" d="M9 373q-19 189 0 443q2 14 17 14q14 -2 14 -17q-18 -252 0 -436q13 -140 50 -225q41 -95 109 -106h1q25 -6 46 -5q54 6 109 87q49 72 100 215q78 219 152 613q4 24 25 155q2 9 5.5 31.5t5.5 34.5v1q5 37 16 75l1 1q18 59 52 80q20 11 40 11h7q225 -36 220 -644 q0 -19 -1 -83t-2 -99t-6 -97.5t-13 -105.5t-23.5 -93.5t-37.5 -88.5q43 -78 102 -92q16 -3 35 -3q49 2 80.5 23t58.5 62q43 67 77.5 171.5t52.5 218.5q2 13 16 13l1 -1h1q15 -2 13 -17q-42 -254 -135 -402q-60 -94 -163 -98h-1q-22 0 -42 3h-1q-65 15 -113 93 q-32 -45 -72 -71q-36 -22 -93 -24q-71 7 -104 51t-33 110q1 46 24.5 81t58 50t77 3.5t77.5 -51.5q18 111 28 364v67q-4 309 -31 481q-9 53 -15 74q-6 20 -12.5 32.5t-21 23.5t-33.5 8q-22 -6 -39 -61q-8 -29 -26 -137q-23 -147 -25 -156q-74 -396 -153 -618 q-47 -136 -104 -221q-63 -93 -131 -101h-1q-28 -1 -56 6q-85 14 -132 123q-36 84 -52 234zM605 172q0 -53 26.5 -89.5t81.5 -42.5q60 8 94 179q-48 57 -99 57h-3q-40 -1 -68.5 -32t-31.5 -72z" />
<glyph unicode="&#xd1;" horiz-adv-x="1570" d="M9 373q-19 189 0 442q2 15 17 15q14 -2 14 -17q-19 -253 0 -437q13 -140 50 -225q41 -94 109 -105l1 -1q22 -5 46 -4q54 6 109 87q50 74 100 214q77 218 152 614q4 24 25 155q2 9 5.5 31.5t5.5 34.5v1q5 38 16 74v1l1 1q18 59 52 80q18 11 37 11h3q1 0 3 -0.5t4 -0.5 q150 -25 198 -308q19 -115 11 -292q169 497 293 523l22 4q48 0 75.5 -40t37.5 -106.5t10 -171.5q0 -130 -19 -364q0 -5 -5.5 -58t-10 -105.5t-8.5 -123.5t-4 -123q0 -112 17 -137q57 39 107 154q59 132 88 309q2 13 15 13h3q14 -2 12 -18q-29 -180 -89 -316 q-43 -98 -93 -147q-31 -29 -53 -28h-1q-86 0 -110 54q-24 59 -24 223q0 149 25.5 469.5t25.5 398.5q0 89 -20 89q-113 -31 -280 -535q-2 -4 -19 -58q0 -9 -1.5 -29.5t-2.5 -31.5q0 -3 -5 -57.5t-9.5 -106t-8.5 -123t-4 -123.5q0 -78 8 -113q13 -40 7 -48q-9 -14 -66 0 q-39 14 -53 45q-24 59 -24 223q0 89 9.5 218.5t17 224t4 215t-24.5 222.5q-9 53 -15 74q-6 20 -12.5 32.5t-21 23.5t-33.5 8q-21 -4 -39 -62q-9 -31 -26 -136q-23 -147 -25 -156q-74 -396 -153 -618q-48 -138 -104 -222q-62 -92 -131 -100h-1q-31 -2 -56 5q-85 14 -132 124 q-36 84 -52 234zM883.5 1528.5q2.5 31.5 32.5 69.5q36 39 89 39q26 0 49 -10q24 -9 46 -28q26 -23 42 -32q19 -10 36 -10q27 0 41 23q23 42 51 38q23 -4 22 -33q-1 -28 -30 -63q-34 -39 -91 -39q-27 0 -51 9q-24 10 -45 30q-23 22 -41 33q-15 11 -36 11q-26 0 -40 -23 q-28 -51 -56 -48q-21 2 -18.5 33.5z" />
<glyph unicode="&#xd2;" horiz-adv-x="1351" d="M9 373q-17 169 0 442q0 6 4.5 10.5t10.5 4.5h2q14 -2 14 -17q-19 -253 0 -437q13 -139 50 -224q41 -95 109 -106h1q81 -22 179 56q76 61 171 187q97 129 147 212q-4 60 -4 91q0 175 41 342q107 401 361 407l1 -25q-123 0 -203 -225q3 5 8 14t8 13q49 80 107 121 q49 34 96 34q2 0 5 -0.5t5 -0.5q11 0 20 -3h3q3 0 5 -2q17 -7 33 -23q26 -27 42 -70q32 -82 43 -216q10 -127 5.5 -249t-19.5 -201q0 -1 -1 -3.5t-1 -4.5q39 7 57 15q31 15 48 27q12 9 21 -3q9 -13 -3 -22q-25 -18 -54 -30q-29 -14 -74 -20q-25 -134 -69.5 -246.5 t-100.5 -169.5q-19 -19 -35 -29q-18 -11 -38 -11q-7 -1 -21 -1q-127 0 -209 167q-55 114 -73 273q-50 -78 -126 -180q-99 -130 -176 -192q-113 -88 -206 -63q-85 14 -132 124q-36 84 -52 234zM815 597q0 -177 43 -340.5t117 -207.5q1 -1 3 -1t3 -1q25 -10 45 2q11 6 29 24 q48 50 90.5 156.5t68.5 233.5q-5 -1 -15 -1t-15 -1q-88 -7 -140 4q-102 20 -170 99q-39 45 -58 107q-1 -25 -1 -74zM836 749q0 -93 62 -165q60 -70 152 -89q49 -11 132 -4q7 1 19.5 2.5t18.5 1.5l3 18q14 76 19 196.5t-5 246.5q-11 129 -41 206q-16 41 -35 60q-13 13 -25 17 q-10 2 -15 2q-1 0 -3 1h-6q-38 0 -78 -28q-51 -35 -99 -112q-45 -74 -72 -168.5t-27 -184.5zM1002.5 1610q0.5 3 2 7.5t5.5 9.5q9 9 23.5 10.5t33 -5.5t36 -22.5t32.5 -45.5t23 -70h-35q-39 0 -63 30l-41 56q-2 2 -6.5 8t-5.5 8t-3 6.5t-1.5 7.5z" />
<glyph unicode="&#xd3;" horiz-adv-x="1351" d="M9 373q-17 169 0 442q0 6 4.5 10.5t10.5 4.5h2q14 -2 14 -17q-19 -253 0 -437q13 -139 50 -224q41 -95 109 -106h1q81 -22 179 56q76 61 171 187q97 129 147 212q-4 60 -4 91q0 175 41 342q107 401 361 407l1 -25q-123 0 -203 -225q3 5 8 14t8 13q49 80 107 121 q49 34 96 34q2 0 5 -0.5t5 -0.5q11 0 20 -3h3q3 0 5 -2q17 -7 33 -23q26 -27 42 -70q32 -82 43 -216q10 -127 5.5 -249t-19.5 -201q0 -1 -1 -3.5t-1 -4.5q39 7 57 15q31 15 48 27q12 9 21 -3q9 -13 -3 -22q-25 -18 -54 -30q-29 -14 -74 -20q-25 -134 -69.5 -246.5 t-100.5 -169.5q-19 -19 -35 -29q-18 -11 -38 -11q-7 -1 -21 -1q-127 0 -209 167q-55 114 -73 273q-50 -78 -126 -180q-99 -130 -176 -192q-113 -88 -206 -63q-85 14 -132 124q-36 84 -52 234zM815 597q0 -177 43 -340.5t117 -207.5q1 -1 3 -1t3 -1q25 -10 45 2q11 6 29 24 q48 50 90.5 156.5t68.5 233.5q-5 -1 -15 -1t-15 -1q-88 -7 -140 4q-102 20 -170 99q-39 45 -58 107q-1 -25 -1 -74zM836 749q0 -93 62 -165q60 -70 152 -89q49 -11 132 -4q7 1 19.5 2.5t18.5 1.5l3 18q14 76 19 196.5t-5 246.5q-11 129 -41 206q-16 41 -35 60q-13 13 -25 17 q-10 2 -15 2q-1 0 -3 1h-6q-38 0 -78 -28q-51 -35 -99 -112q-45 -74 -72 -168.5t-27 -184.5zM1010 1494q8 40 23 70t33 45.5t36.5 22.5t33 5.5t23.5 -10.5q5 -6 7 -10.5t0 -10t-3 -7.5t-6.5 -9.5t-7.5 -9.5l-41 -56q-24 -30 -63 -30h-35z" />
<glyph unicode="&#xd4;" horiz-adv-x="1351" d="M9 373q-17 169 0 442q0 6 4.5 10.5t10.5 4.5h2q14 -2 14 -17q-19 -253 0 -437q13 -139 50 -224q41 -95 109 -106h1q81 -22 179 56q76 61 171 187q97 129 147 212q-4 60 -4 91q0 175 41 342q107 401 361 407l1 -25q-123 0 -203 -225q3 5 8 14t8 13q49 80 107 121 q49 34 96 34q2 0 5 -0.5t5 -0.5q11 0 20 -3h3q3 0 5 -2q17 -7 33 -23q26 -27 42 -70q32 -82 43 -216q10 -127 5.5 -249t-19.5 -201q0 -1 -1 -3.5t-1 -4.5q39 7 57 15q31 15 48 27q12 9 21 -3q9 -13 -3 -22q-25 -18 -54 -30q-29 -14 -74 -20q-25 -134 -69.5 -246.5 t-100.5 -169.5q-19 -19 -35 -29q-18 -11 -38 -11q-7 -1 -21 -1q-127 0 -209 167q-55 114 -73 273q-50 -78 -126 -180q-99 -130 -176 -192q-113 -88 -206 -63q-85 14 -132 124q-36 84 -52 234zM815 597q0 -177 43 -340.5t117 -207.5q1 -1 3 -1t3 -1q25 -10 45 2q11 6 29 24 q48 50 90.5 156.5t68.5 233.5q-5 -1 -15 -1t-15 -1q-88 -7 -140 4q-102 20 -170 99q-39 45 -58 107q-1 -25 -1 -74zM836 749q0 -93 62 -165q60 -70 152 -89q49 -11 132 -4q7 1 19.5 2.5t18.5 1.5l3 18q14 76 19 196.5t-5 246.5q-11 129 -41 206q-16 41 -35 60q-13 13 -25 17 q-10 2 -15 2q-1 0 -3 1h-6q-38 0 -78 -28q-51 -35 -99 -112q-45 -74 -72 -168.5t-27 -184.5zM886 1491q41 66 80 101.5t82.5 42.5t91 -29t96.5 -115q-75 -6 -111 31l-65 67l-60 -62q-25 -25 -47 -30.5t-67 -5.5z" />
<glyph unicode="&#xd5;" horiz-adv-x="1351" d="M9 373q-17 169 0 442q0 6 4.5 10.5t10.5 4.5h2q14 -2 14 -17q-19 -253 0 -437q13 -139 50 -224q41 -95 109 -106h1q81 -22 179 56q76 61 171 187q97 129 147 212q-4 60 -4 91q0 175 41 342q107 401 361 407l1 -25q-123 0 -203 -225q3 5 8 14t8 13q49 80 107 121 q49 34 96 34q2 0 5 -0.5t5 -0.5q11 0 20 -3h3q3 0 5 -2q17 -7 33 -23q26 -27 42 -70q32 -82 43 -216q10 -127 5.5 -249t-19.5 -201q0 -1 -1 -3.5t-1 -4.5q39 7 57 15q31 15 48 27q12 9 21 -3q9 -13 -3 -22q-25 -18 -54 -30q-29 -14 -74 -20q-25 -134 -69.5 -246.5 t-100.5 -169.5q-19 -19 -35 -29q-18 -11 -38 -11q-7 -1 -21 -1q-127 0 -209 167q-55 114 -73 273q-50 -78 -126 -180q-99 -130 -176 -192q-113 -88 -206 -63q-85 14 -132 124q-36 84 -52 234zM815 597q0 -177 43 -340.5t117 -207.5q1 -1 3 -1t3 -1q25 -10 45 2q11 6 29 24 q48 50 90.5 156.5t68.5 233.5q-5 -1 -15 -1t-15 -1q-88 -7 -140 4q-102 20 -170 99q-39 45 -58 107q-1 -25 -1 -74zM836 749q0 -93 62 -165q60 -70 152 -89q49 -11 132 -4q7 1 19.5 2.5t18.5 1.5l3 18q14 76 19 196.5t-5 246.5q-11 129 -41 206q-16 41 -35 60q-13 13 -25 17 q-10 2 -15 2q-1 0 -3 1h-6q-38 0 -78 -28q-51 -35 -99 -112q-45 -74 -72 -168.5t-27 -184.5z" />
<glyph unicode="&#xd6;" horiz-adv-x="1351" d="M9 373q-17 169 0 442q0 6 4.5 10.5t10.5 4.5h2q14 -2 14 -17q-19 -253 0 -437q13 -139 50 -224q41 -95 109 -106h1q81 -22 179 56q76 61 171 187q97 129 147 212q-4 60 -4 91q0 175 41 342q107 401 361 407l1 -25q-123 0 -203 -225q3 5 8 14t8 13q49 80 107 121 q49 34 96 34q2 0 5 -0.5t5 -0.5q11 0 20 -3h3q3 0 5 -2q17 -7 33 -23q26 -27 42 -70q32 -82 43 -216q10 -127 5.5 -249t-19.5 -201q0 -1 -1 -3.5t-1 -4.5q39 7 57 15q31 15 48 27q12 9 21 -3q9 -13 -3 -22q-25 -18 -54 -30q-29 -14 -74 -20q-25 -134 -69.5 -246.5 t-100.5 -169.5q-19 -19 -35 -29q-18 -11 -38 -11q-7 -1 -21 -1q-127 0 -209 167q-55 114 -73 273q-50 -78 -126 -180q-99 -130 -176 -192q-113 -88 -206 -63q-85 14 -132 124q-36 84 -52 234zM815 597q0 -177 43 -340.5t117 -207.5q1 -1 3 -1t3 -1q25 -10 45 2q11 6 29 24 q48 50 90.5 156.5t68.5 233.5q-5 -1 -15 -1t-15 -1q-88 -7 -140 4q-102 20 -170 99q-39 45 -58 107q-1 -25 -1 -74zM836 749q0 -93 62 -165q60 -70 152 -89q49 -11 132 -4q7 1 19.5 2.5t18.5 1.5l3 18q14 76 19 196.5t-5 246.5q-11 129 -41 206q-16 41 -35 60q-13 13 -25 17 q-10 2 -15 2q-1 0 -3 1h-6q-38 0 -78 -28q-51 -35 -99 -112q-45 -74 -72 -168.5t-27 -184.5zM899 1523q0 24 16.5 40.5t40.5 16.5t41 -16.5t17 -40.5t-17 -41t-41 -17t-40.5 17t-16.5 41zM1113 1523q0 24 17 40.5t41 16.5t40.5 -16.5t16.5 -40.5t-16.5 -41t-40.5 -17t-41 17 t-17 41z" />
<glyph unicode="&#xd7;" horiz-adv-x="739" d="M93 616q24 35 62 35q27 0 44 -24q44 -66 127 -176q53 -68 104 -127q85 147 112 269q2 13 15 13h1l2 -1q16 -4 12 -18q-28 -130 -120 -288q168 -196 227 -217q-9 -50 -21 -61q-9 -9 -21 -10q-5 -1 -9 0q-20 0 -35 5q-85 31 -218 165q-52 -70 -95 -110q-61 -60 -106 -65 q-15 -2 -17 13t13 17q31 3 88 57q48 46 95 111q-53 55 -126 146q-71 97 -133 194q-25 37 -1 72z" />
<glyph unicode="&#xd8;" horiz-adv-x="1351" d="M9 373q-17 169 0 442q0 6 4.5 10.5t10.5 4.5h2q14 -2 14 -17q-19 -253 0 -437q13 -139 50 -224q41 -95 109 -106h1q81 -22 179 56q76 61 171 187q97 129 147 212q-4 60 -4 91q0 175 41 342q107 401 361 407l1 -25q-123 0 -203 -225q3 5 8 14t8 13q49 80 107 121 q49 34 96 34q2 0 5 -0.5t5 -0.5q11 0 20 -3h3q3 0 5 -2q17 -7 33 -23q26 -27 42 -70q32 -82 43 -216q10 -127 5.5 -249t-19.5 -201q0 -1 -1 -3.5t-1 -4.5q39 7 57 15q31 15 48 27q12 9 21 -3q9 -13 -3 -22q-25 -18 -54 -30q-29 -14 -74 -20q-25 -134 -69.5 -246.5 t-100.5 -169.5q-19 -19 -35 -29q-18 -11 -38 -11q-7 -1 -21 -1q-127 0 -209 167q-55 114 -73 273q-50 -78 -126 -180q-99 -130 -176 -192q-113 -88 -206 -63q-85 14 -132 124q-36 84 -52 234zM815 597q0 -177 43 -340.5t117 -207.5q1 -1 3 -1t3 -1q25 -10 45 2q11 6 29 24 q48 50 90.5 156.5t68.5 233.5q-5 -1 -15 -1t-15 -1q-88 -7 -140 4q-102 20 -170 99q-39 45 -58 107q-1 -25 -1 -74zM836 749q0 -93 62 -165q60 -70 152 -89q49 -11 132 -4q7 1 19.5 2.5t18.5 1.5l3 18q14 76 19 196.5t-5 246.5q-11 129 -41 206q-16 41 -35 60q-13 13 -25 17 q-10 2 -15 2q-1 0 -3 1h-6q-38 0 -78 -28q-51 -35 -99 -112q-45 -74 -72 -168.5t-27 -184.5z" />
<glyph unicode="&#xd9;" horiz-adv-x="1685" d="M9 373q-19 189 0 442q2 15 17 15q16 -2 14 -17q-19 -253 0 -437q13 -140 50 -225q41 -94 109 -105l1 -1q22 -5 46 -4q54 6 109 87q50 74 100 214q77 218 152 614q4 24 25 155q2 9 5.5 31.5t5.5 34.5v1q5 38 16 74v1l1 1q18 59 52 80q18 11 37 11h3q1 0 3 -0.5t4 -0.5 q150 -25 198 -308q10 -65 12 -143.5t0 -124.5t-10 -179q-8 -122 -11 -184.5t1.5 -158t21.5 -151.5q35 -45 77 -54q11 -2 35 -2q49 2 81 22.5t58 61.5q43 67 77.5 171.5t52.5 218.5v1l1 2q5 86 24 324t19 314q0 59 -7 77q-7 25 2.5 34t33.5 2q53 -16 74 -93.5t21 -220.5 q0 -130 -19 -364q0 -5 -5.5 -58t-10 -105.5t-8.5 -123.5t-4 -123q0 -112 17 -137q58 40 108 154q57 128 87 309q2 13 15 13h3q14 -2 12 -18q-29 -180 -89 -316q-43 -98 -93 -147q-31 -29 -53 -28h-1q-86 0 -110 54q-24 59 -24 223q0 8 0.5 26t0.5 27q-42 -147 -97 -233 q-60 -94 -164 -98h-1q-22 0 -42 3h-1q-59 12 -105 80h-1q-13 22 -22 39v1q-1 1 -2.5 3.5t-1.5 3.5l-1 2q-100 204 -75 625q12 232 -23 401q-9 53 -15 74q-6 20 -12.5 32.5t-21 23.5t-33.5 8q-21 -4 -39 -62q-9 -31 -26 -136q-23 -147 -25 -156q-74 -396 -153 -618 q-48 -138 -104 -222q-62 -92 -131 -100h-1q-31 -2 -56 5q-85 14 -132 124q-36 84 -52 234zM1063.5 1610q0.5 3 2 7.5t5.5 9.5q9 9 23.5 10.5t33 -5.5t36.5 -22.5t33 -45.5t23 -70h-36q-39 0 -63 30l-41 56q-2 2 -6.5 8t-5.5 8t-3 6.5t-1.5 7.5z" />
<glyph unicode="&#xda;" horiz-adv-x="1685" d="M9 373q-19 189 0 442q2 15 17 15q16 -2 14 -17q-19 -253 0 -437q13 -140 50 -225q41 -94 109 -105l1 -1q22 -5 46 -4q54 6 109 87q50 74 100 214q77 218 152 614q4 24 25 155q2 9 5.5 31.5t5.5 34.5v1q5 38 16 74v1l1 1q18 59 52 80q18 11 37 11h3q1 0 3 -0.5t4 -0.5 q150 -25 198 -308q10 -65 12 -143.5t0 -124.5t-10 -179q-8 -122 -11 -184.5t1.5 -158t21.5 -151.5q35 -45 77 -54q11 -2 35 -2q49 2 81 22.5t58 61.5q43 67 77.5 171.5t52.5 218.5v1l1 2q5 86 24 324t19 314q0 59 -7 77q-7 25 2.5 34t33.5 2q53 -16 74 -93.5t21 -220.5 q0 -130 -19 -364q0 -5 -5.5 -58t-10 -105.5t-8.5 -123.5t-4 -123q0 -112 17 -137q58 40 108 154q57 128 87 309q2 13 15 13h3q14 -2 12 -18q-29 -180 -89 -316q-43 -98 -93 -147q-31 -29 -53 -28h-1q-86 0 -110 54q-24 59 -24 223q0 8 0.5 26t0.5 27q-42 -147 -97 -233 q-60 -94 -164 -98h-1q-22 0 -42 3h-1q-59 12 -105 80h-1q-13 22 -22 39v1q-1 1 -2.5 3.5t-1.5 3.5l-1 2q-100 204 -75 625q12 232 -23 401q-9 53 -15 74q-6 20 -12.5 32.5t-21 23.5t-33.5 8q-21 -4 -39 -62q-9 -31 -26 -136q-23 -147 -25 -156q-74 -396 -153 -618 q-48 -138 -104 -222q-62 -92 -131 -100h-1q-31 -2 -56 5q-85 14 -132 124q-36 84 -52 234zM1102 1494q8 40 23 70t33 45.5t36.5 22.5t33 5.5t23.5 -10.5q4 -5 5.5 -9.5t2 -7.5t-1.5 -7.5t-3 -6.5t-5.5 -8t-6.5 -8l-41 -56q-24 -30 -63 -30h-36z" />
<glyph unicode="&#xdb;" horiz-adv-x="1685" d="M9 373q-19 189 0 442q2 15 17 15q16 -2 14 -17q-19 -253 0 -437q13 -140 50 -225q41 -94 109 -105l1 -1q22 -5 46 -4q54 6 109 87q50 74 100 214q77 218 152 614q4 24 25 155q2 9 5.5 31.5t5.5 34.5v1q5 38 16 74v1l1 1q18 59 52 80q18 11 37 11h3q1 0 3 -0.5t4 -0.5 q150 -25 198 -308q10 -65 12 -143.5t0 -124.5t-10 -179q-8 -122 -11 -184.5t1.5 -158t21.5 -151.5q35 -45 77 -54q11 -2 35 -2q49 2 81 22.5t58 61.5q43 67 77.5 171.5t52.5 218.5v1l1 2q5 86 24 324t19 314q0 59 -7 77q-7 25 2.5 34t33.5 2q53 -16 74 -93.5t21 -220.5 q0 -130 -19 -364q0 -5 -5.5 -58t-10 -105.5t-8.5 -123.5t-4 -123q0 -112 17 -137q58 40 108 154q57 128 87 309q2 13 15 13h3q14 -2 12 -18q-29 -180 -89 -316q-43 -98 -93 -147q-31 -29 -53 -28h-1q-86 0 -110 54q-24 59 -24 223q0 8 0.5 26t0.5 27q-42 -147 -97 -233 q-60 -94 -164 -98h-1q-22 0 -42 3h-1q-59 12 -105 80h-1q-13 22 -22 39v1q-1 1 -2.5 3.5t-1.5 3.5l-1 2q-100 204 -75 625q12 232 -23 401q-9 53 -15 74q-6 20 -12.5 32.5t-21 23.5t-33.5 8q-21 -4 -39 -62q-9 -31 -26 -136q-23 -147 -25 -156q-74 -396 -153 -618 q-48 -138 -104 -222q-62 -92 -131 -100h-1q-31 -2 -56 5q-85 14 -132 124q-36 84 -52 234zM1009 1491q41 66 80 101.5t82.5 42.5t91 -29t96.5 -115q-75 -6 -111 31l-65 67l-60 -62q-25 -25 -47 -30.5t-67 -5.5z" />
<glyph unicode="&#xdc;" horiz-adv-x="1685" d="M9 373q-19 189 0 442q2 15 17 15q16 -2 14 -17q-19 -253 0 -437q13 -140 50 -225q41 -94 109 -105l1 -1q22 -5 46 -4q54 6 109 87q50 74 100 214q77 218 152 614q4 24 25 155q2 9 5.5 31.5t5.5 34.5v1q5 38 16 74v1l1 1q18 59 52 80q18 11 37 11h3q1 0 3 -0.5t4 -0.5 q150 -25 198 -308q10 -65 12 -143.5t0 -124.5t-10 -179q-8 -122 -11 -184.5t1.5 -158t21.5 -151.5q35 -45 77 -54q11 -2 35 -2q49 2 81 22.5t58 61.5q43 67 77.5 171.5t52.5 218.5v1l1 2q5 86 24 324t19 314q0 59 -7 77q-7 25 2.5 34t33.5 2q53 -16 74 -93.5t21 -220.5 q0 -130 -19 -364q0 -5 -5.5 -58t-10 -105.5t-8.5 -123.5t-4 -123q0 -112 17 -137q58 40 108 154q57 128 87 309q2 13 15 13h3q14 -2 12 -18q-29 -180 -89 -316q-43 -98 -93 -147q-31 -29 -53 -28h-1q-86 0 -110 54q-24 59 -24 223q0 8 0.5 26t0.5 27q-42 -147 -97 -233 q-60 -94 -164 -98h-1q-22 0 -42 3h-1q-59 12 -105 80h-1q-13 22 -22 39v1q-1 1 -2.5 3.5t-1.5 3.5l-1 2q-100 204 -75 625q12 232 -23 401q-9 53 -15 74q-6 20 -12.5 32.5t-21 23.5t-33.5 8q-21 -4 -39 -62q-9 -31 -26 -136q-23 -147 -25 -156q-74 -396 -153 -618 q-48 -138 -104 -222q-62 -92 -131 -100h-1q-31 -2 -56 5q-85 14 -132 124q-36 84 -52 234zM1021 1523q0 24 17 40.5t41 16.5t41 -16.5t17 -40.5t-17 -41t-41 -17t-41 17t-17 41zM1236 1523q0 24 16.5 40.5t40.5 16.5t41 -16.5t17 -40.5t-17 -41t-41 -17t-40.5 17t-16.5 41z " />
<glyph unicode="&#xdd;" horiz-adv-x="1239" d="M9 373q-19 189 0 442q2 14 17 14q14 -2 14 -16q-19 -253 0 -437q13 -140 50 -225q41 -95 109 -106h1q63 -16 143 61q75 71 160 220q41 72 96 191q-9 25 -21 75q-39 185 -31 398q9 164 99 295l1 1q40 51 71 70q26 16 55 16q1 0 2 -0.5t2 -0.5q22 -2 40 -10q31 -15 44 -46 q12 -28 10 -63v-2q-12 -92 -73 -294q-46 -155 -111 -314q5 -91 21 -162q8 -37 25 -50q38 15 79.5 61.5t76.5 112.5q59 111 84 245q-5 363 -14 453l-2 23q0 23 24 38.5t53 15.5q51 0 58 -44q8 -45 14 -239.5t6 -312.5v-83q-1 -70 -8 -171q3 0 11 2q37 11 72 37.5t55 55.5 q9 13 21 4q13 -9 5 -21q-23 -35 -62 -64.5t-82 -41.5q-10 -3 -22 -3q-25 -286 -85 -391q-26 -46 -63 -71.5t-107 -25.5q-71 7 -104 50.5t-33 109.5q3 41 22.5 75.5t61 65t66.5 45t82 43.5q15 8 23 12q1 6 1 17t1 16q2 28 4.5 88.5t3.5 84.5v67q0 5 -0.5 22t-0.5 24 q-23 -73 -58 -140q-81 -155 -175 -191h-2v-1q-61 -4 -90 29q-18 20 -34 51q-37 -81 -85 -167q-84 -149 -166 -228q-92 -89 -171 -68q-85 14 -132 124q-36 84 -52 234zM662.5 1019.5q3.5 -110.5 19.5 -270.5q0 -5 0.5 -15.5t0.5 -15.5q49 129 85 247q60 197 72 289 q2 30 -7 49q-10 21 -29 30q-18 9 -33 9q-16 0 -37 -12q-42 -21 -58.5 -110.5t-13 -200zM739 171q0 -53 27 -89t82 -42q85 10 114 333q-93 -35 -155.5 -88t-67.5 -114zM795 1494q8 40 23 70t33 45.5t36.5 22.5t33 5.5t23.5 -10.5q5 -6 7 -10.5t0 -10t-3 -7.5t-6.5 -9.5 t-7.5 -9.5l-41 -56q-24 -30 -63 -30h-35z" />
<glyph unicode="&#xde;" horiz-adv-x="1466" d="M9 373q-17 169 0 442q2 14 17 14q14 -2 14 -16q-19 -253 0 -437q13 -140 50 -225q41 -95 109 -106h1q22 -5 46 -4q55 6 109 86q49 72 100 215q77 218 152 614q4 24 25 155q2 9 5.5 31.5t5.5 34.5q6 40 16 75v2q17 57 53 79q20 12 37 12h3q1 0 3 -0.5t4 -0.5 q150 -25 198 -308q10 -65 12 -143.5t0 -124.5t-10 -179v-4l1 1l1 1q1 0 3 1l1 1h1h1q1 0 5 1t8.5 2t10.5 2q17 3 54 11q84 19 172 54q76 30 134 93.5t88 145.5q30 77 28 161t-39 149q-51 81 -129 111q-64 25 -165 28q-98 4 -135 2q-16 0 -16 14q0 16 15 16q3 0 11.5 0.5 t13.5 0.5q20 0 32 -1q24 0 80 -2q110 -4 175 -29q86 -34 144 -125h1q41 -72 43.5 -163.5t-30.5 -173.5q-33 -87 -94.5 -155t-145.5 -101q-85 -33 -176 -55q-9 -2 -19 -4.5t-19.5 -4.5t-13.5 -3q57 -54 134 -69q49 -10 131 -4q88 7 127 24q31 15 48 27q13 9 22 -3 q9 -13 -4 -22q-27 -19 -53 -30q-44 -20 -138 -27q-84 -6 -139 5q-102 20 -170 99l-1 1q-26 -264 -26 -385q0 -110 18 -136q10 -13 7.5 -23.5t-18.5 -10.5q-86 0 -110 54q-24 59 -24 223q0 89 9.5 218.5t17 223.5t4 214.5t-24.5 222.5q-8 46 -16 74q-7 20 -13 32.5t-20 23.5 t-33 8q-23 -4 -40 -61q-6 -22 -25 -136q-23 -147 -25 -156q-74 -396 -153 -618q-48 -138 -104 -222q-62 -92 -131 -100h-1q-31 -2 -56 5q-85 14 -132 124q-36 84 -52 234zM574 86q0 20 4 31l7 -3q-1 -9 16 -15t46 -8q29 -3 68 -3t74 1.5t36 1.5q100 2 157 -4q62 -6 95 -21 t38 -47q5 -30 -16 -20q-6 4 -33 7q-33 3 -173.5 1.5t-203.5 4.5q-67 6 -95 24q-18 13 -20 50z" />
<glyph unicode="&#xdf;" horiz-adv-x="1427" d="M9 373q-19 189 0 443q0 14 15 14h2q14 -2 14 -17q-18 -252 0 -436q13 -140 50 -225q41 -95 109 -106h1q81 -22 179 56q76 61 171 187q113 152 169 250q3 32 32 268.5t30 362.5q0 159 -61 161q-30 -1 -73 -131q-2 -11 -1.5 -14.5t3 -11.5t3.5 -15q0 -10 -6.5 -16.5 t-16.5 -6.5t-17 6.5t-7 16.5q0 6 1 8v1q29 103 57 145t66 44q30 0 54 -12.5t39 -29.5t25.5 -47t15.5 -53t7.5 -59.5t3 -54t0.5 -49.5q0 -120 -34 -460h2q14 2 53 11q43 10 109 32q20 13 39 14q4 1 12 3.5t12 4.5q76 30 134 93.5t88 145.5q30 77 28 161t-39 149 q-46 73 -129 111q-87 36 -196.5 36t-164.5 -30q-6 -3 -14.5 1t-8.5 11q0 10 13 17q64 37 185 34.5t198 -40.5q96 -48 144 -124v-1q41 -72 44 -163t-30 -173q-30 -81 -86 -146t-131 -100q3 -1 8 -4.5t6 -4.5q54 -37 83 -141q21 0 61 2q88 7 127 24q31 15 48 27q13 9 22 -3 q9 -13 -4 -22q-27 -19 -53 -30q-44 -20 -138 -27q-38 -2 -55 -2q6 -28 6 -32q10 -142 -55.5 -241t-156.5 -95q53 50 71 159t3 229q-72 28 -123 86q-8 10 0 20l2 3q-11 -3 -29 -8t-23 -6q-12 -3 -29.5 -7t-24.5 -5q-2 -1 -6 -1h-5q-2 -21 -6.5 -62.5t-7 -67t-4.5 -60 t-2 -63.5q0 -251 51 -297q-51 13 -88.5 54.5t-51.5 98.5q-19 77 -19 191q0 64 4 115q-61 -97 -138 -199q-99 -130 -176 -192q-112 -87 -206 -62q-85 14 -132 123q-36 84 -52 234zM976 120q0 12 9 20.5t21 8.5t20.5 -8.5t8.5 -20.5t-8.5 -21t-20.5 -9t-21 9t-9 21zM983 576 q35 -38 86 -62q-11 64 -25 99q-24 -6 -50 -26z" />
<glyph unicode="&#xe0;" d="M0 285q-2 61 6.5 125.5t34.5 128.5t66 91q32 20 56 20q5 0 15 -2q49 -3 89 -57q0 1 3 22q10 23 34.5 30.5t51.5 2.5q21 -3 35 -19.5t12 -36.5q-2 -46 0 -230q8 -191 26 -268q9 -40 26 -51q31 12 64 55.5t62 108.5q58 129 87 308q2 13 16 13h2q15 -2 13 -18 q-28 -177 -90 -316q-68 -152 -144 -181q-2 -1 -6 -1q-62 -2 -89 29q-19 21 -33.5 51.5t-21.5 53.5t-16 60q-13 62 -21 128q-7 -50 -12.5 -81.5t-18 -82.5t-26.5 -81t-37.5 -54t-52.5 -24q-56 1 -87 64.5t-40 152.5zM135 104q1 -17 5 -33q7 -20 15 -21q68 25 113 391 q-2 35 -2 106q-21 27 -36 40q-29 22 -50 26q-28 -24 -42.5 -210t-2.5 -299zM163 889.5v6t2 7.5t5 8q9 9 24 10.5t33 -6t36 -23t33 -45.5t23 -70h-36q-39 0 -63 30l-41 56q-2 2 -5.5 7t-5 7t-3.5 6t-2 6.5z" />
<glyph unicode="&#xe1;" d="M0 285q-2 61 6.5 125.5t34.5 128.5t66 91q32 20 56 20q5 0 15 -2q49 -3 89 -57q0 1 3 22q10 23 34.5 30.5t51.5 2.5q21 -3 35 -19.5t12 -36.5q-2 -46 0 -230q8 -191 26 -268q9 -40 26 -51q31 12 64 55.5t62 108.5q58 129 87 308q2 13 16 13h2q15 -2 13 -18 q-28 -177 -90 -316q-68 -152 -144 -181q-2 -1 -6 -1q-62 -2 -89 29q-19 21 -33.5 51.5t-21.5 53.5t-16 60q-13 62 -21 128q-7 -50 -12.5 -81.5t-18 -82.5t-26.5 -81t-37.5 -54t-52.5 -24q-56 1 -87 64.5t-40 152.5zM135 104q1 -17 5 -33q7 -20 15 -21q68 25 113 391 q-2 35 -2 106q-21 27 -36 40q-29 22 -50 26q-28 -24 -42.5 -210t-2.5 -299zM160 777q8 40 23 70t33 45.5t36 23t33 6t24 -10.5q4 -5 5.5 -9.5t2 -7.5t-1.5 -8t-3.5 -7l-6 -8t-6.5 -8l-40 -56q-24 -30 -63 -30h-36z" />
<glyph unicode="&#xe2;" d="M0 285q-2 61 6.5 125.5t34.5 128.5t66 91q32 20 56 20q5 0 15 -2q49 -3 89 -57q0 1 3 22q10 23 34.5 30.5t51.5 2.5q21 -3 35 -19.5t12 -36.5q-2 -46 0 -230q8 -191 26 -268q9 -40 26 -51q31 12 64 55.5t62 108.5q58 129 87 308q2 13 16 13h2q15 -2 13 -18 q-28 -177 -90 -316q-68 -152 -144 -181q-2 -1 -6 -1q-62 -2 -89 29q-19 21 -33.5 51.5t-21.5 53.5t-16 60q-13 62 -21 128q-7 -50 -12.5 -81.5t-18 -82.5t-26.5 -81t-37.5 -54t-52.5 -24q-56 1 -87 64.5t-40 152.5zM87 774q41 66 80 101.5t82.5 42.5t91 -29t96.5 -115 q-75 -6 -111 31l-65 68l-60 -63q-25 -25 -47 -30.5t-67 -5.5zM135 104q1 -17 5 -33q7 -20 15 -21q68 25 113 391q-2 35 -2 106q-21 27 -36 40q-29 22 -50 26q-28 -24 -42.5 -210t-2.5 -299z" />
<glyph unicode="&#xe3;" d="M0 285q-2 61 6.5 125.5t34.5 128.5t66 91q32 20 56 20q5 0 15 -2q49 -3 89 -57q0 1 3 22q10 23 34.5 30.5t51.5 2.5q21 -3 35 -19.5t12 -36.5q-2 -46 0 -230q8 -191 26 -268q9 -40 26 -51q31 12 64 55.5t62 108.5q58 129 87 308q2 13 16 13h2q15 -2 13 -18 q-28 -177 -90 -316q-68 -152 -144 -181q-2 -1 -6 -1q-62 -2 -89 29q-19 21 -33.5 51.5t-21.5 53.5t-16 60q-13 62 -21 128q-7 -50 -12.5 -81.5t-18 -82.5t-26.5 -81t-37.5 -54t-52.5 -24q-56 1 -87 64.5t-40 152.5zM39.5 811.5q2.5 31.5 32.5 69.5q36 39 89 39q26 0 49 -10 q24 -9 46 -28q24 -21 43 -32q19 -10 35 -10q27 0 41 23q23 42 51 38q23 -4 22 -33q-1 -28 -30 -63q-34 -39 -91 -39q-24 0 -51 10q-26 11 -45 29q-23 22 -41 33q-15 11 -36 11q-26 0 -40 -23q-28 -51 -56 -48q-21 2 -18.5 33.5zM135 104q1 -17 5 -33q7 -20 15 -21 q68 25 113 391q-2 35 -2 106q-21 27 -36 40q-29 22 -50 26q-28 -24 -42.5 -210t-2.5 -299z" />
<glyph unicode="&#xe4;" d="M0 285q-2 61 6.5 125.5t34.5 128.5t66 91q32 20 56 20q5 0 15 -2q49 -3 89 -57q0 1 3 22q10 23 34.5 30.5t51.5 2.5q21 -3 35 -19.5t12 -36.5q-2 -46 0 -230q8 -191 26 -268q9 -40 26 -51q31 12 64 55.5t62 108.5q58 129 87 308q2 13 16 13h2q15 -2 13 -18 q-28 -177 -90 -316q-68 -152 -144 -181q-2 -1 -6 -1q-62 -2 -89 29q-19 21 -33.5 51.5t-21.5 53.5t-16 60q-13 62 -21 128q-7 -50 -12.5 -81.5t-18 -82.5t-26.5 -81t-37.5 -54t-52.5 -24q-56 1 -87 64.5t-40 152.5zM75 861q0 24 17 41t41 17t40.5 -17t16.5 -41t-16.5 -40.5 t-40.5 -16.5t-41 16.5t-17 40.5zM135 104q1 -17 5 -33q7 -20 15 -21q68 25 113 391q-2 35 -2 106q-21 27 -36 40q-29 22 -50 26q-28 -24 -42.5 -210t-2.5 -299zM290 861q0 24 16.5 41t40.5 17t41 -17t17 -41t-17 -40.5t-41 -16.5t-40.5 16.5t-16.5 40.5z" />
<glyph unicode="&#xe5;" d="M0 285q-2 61 6.5 125.5t34.5 128.5t66 91q32 20 56 20q5 0 15 -2q49 -3 89 -57q0 1 3 22q10 23 34.5 30.5t51.5 2.5q21 -3 35 -19.5t12 -36.5q-2 -46 0 -230q8 -191 26 -268q9 -40 26 -51q31 12 64 55.5t62 108.5q58 129 87 308q2 13 16 13h2q15 -2 13 -18 q-28 -177 -90 -316q-68 -152 -144 -181q-2 -1 -6 -1q-62 -2 -89 29q-19 21 -33.5 51.5t-21.5 53.5t-16 60q-13 62 -21 128q-7 -50 -12.5 -81.5t-18 -82.5t-26.5 -81t-37.5 -54t-52.5 -24q-56 1 -87 64.5t-40 152.5zM68 746q0 74 52 123q53 50 127 50q75 0 128 -50 q52 -49 52 -123q0 -51 -27 -93q-27 -41 -73 -63q-23 -15 -70.5 -16.5t-87.5 16.5q-48 24 -74 63q-27 41 -27 93zM135 104q1 -17 5 -33q7 -20 15 -21q68 25 113 391q-2 35 -2 106q-21 27 -36 40q-29 22 -50 26q-28 -24 -42.5 -210t-2.5 -299zM145 745q0 -42 29 -73 q32 -30 73 -30q44 0 74 30q29 31 29 73q0 45 -29 74q-28 29 -74 29q-45 0 -73 -29q-29 -31 -29 -74z" />
<glyph unicode="&#xe6;" horiz-adv-x="653" d="M0 285q-2 61 6.5 125.5t34.5 128.5t66 91q32 20 56 20q5 0 15 -2q49 -3 89 -57q0 1 3 22q10 23 34.5 30.5t51.5 2.5q21 -3 35 -19.5t12 -36.5q-2 -46 0 -230q8 -191 26 -268q9 -40 26 -51l27 -30q-5 0 -16 -1t-34.5 9t-44.5 29q-67 61 -88 156q-13 62 -21 128 q-7 -50 -12.5 -81.5t-18 -82.5t-26.5 -81t-37.5 -54t-52.5 -24q-56 1 -87 64.5t-40 152.5zM135 104q1 -17 5 -33q7 -20 15 -21q68 25 113 391q-2 35 -2 106q-21 27 -36 40q-29 22 -50 26q-28 -24 -42.5 -210t-2.5 -299zM279 383q0 87 39 162t102 96q30 8 66 8q9 0 23 -2 q58 -5 77 -66q9 -33 -4 -97t-34 -131q-42 -137 -80 -217q-16 -36 -25 -52q14 -32 28 -45q1 1 3 1q64 25 127 165q59 132 88 308q2 13 15 13h2q15 -2 13 -18q-29 -180 -89 -316q-67 -152 -145 -181q-2 -1 -6 -1q-23 -1 -50 12t-45 30q-98 92 -105 331zM407 314 q-2 -76 22 -188q2 3 5.5 10.5t5.5 12.5q36 77 79 213q23 74 33 128q11 59 4 82q-15 45 -55 45q-1 0 -4 -0.5t-4 -0.5q-32 -25 -60 -126q-24 -100 -26 -176z" />
<glyph unicode="&#xe7;" horiz-adv-x="370" d="M0 383q0 87 39.5 162t102.5 96q30 8 66 8q7 0 23 -2q57 -7 76 -66q18 -65 -2 -117q-17 -45 -57 -65t-82 -11q-13 2 -30 11q-22 -144 21 -296q11 -39 35 -63h1q64 25 127 165q58 129 87 308q2 13 15 13h3q15 -2 13 -18q-28 -177 -90 -316q-68 -152 -144 -181l-1 -1h-2h-2 h-2q-22 0 -48.5 13t-43.5 29q-98 92 -105 331zM44 -69q-4 20 17 24q6 1 14 0q55 -10 73 4q13 14 14.5 34.5t-1.5 38.5h48q8 -72 -27 -105q-37 -35 -109 -24q-25 6 -29 28zM141 433q13 -10 32 -15q31 -6 61 8.5t42 48.5q16 43 1 97q-15 45 -55 45q-1 0 -3.5 -0.5t-4.5 -0.5 q-32 -25 -60 -126q-5 -19 -13 -57z" />
<glyph unicode="&#xe8;" horiz-adv-x="374" d="M0 383q0 87 39.5 162t102.5 96q30 8 66 8q8 0 22 -2q58 -5 77 -66q9 -33 -4 -97t-34 -131q-42 -137 -80 -217q-16 -36 -25 -52q14 -31 29 -45q1 1 3 1q64 25 127 165q58 129 87 308q2 13 15 13h3q15 -2 13 -18q-28 -177 -90 -316q-68 -152 -144 -181q-2 -1 -7 -1 q-23 -1 -50 12t-45 30q-98 92 -105 331zM128.5 314q-1.5 -77 22.5 -188q2 3 5.5 11t5.5 12q33 70 78 213q23 74 33 128q11 61 5 82q-15 45 -56 45q-2 0 -4 -1h-3q-33 -25 -61 -126q-24 -99 -25.5 -176zM163 889.5v6t2 7.5t5 8q9 9 24 10.5t33 -6t36 -23t33 -45.5t23 -70h-36 q-39 0 -63 30l-41 56q-2 2 -5.5 7t-5 7t-3.5 6t-2 6.5z" />
<glyph unicode="&#xe9;" horiz-adv-x="374" d="M0 383q0 87 39.5 162t102.5 96q30 8 66 8q8 0 22 -2q58 -5 77 -66q9 -33 -4 -97t-34 -131q-42 -137 -80 -217q-16 -36 -25 -52q14 -31 29 -45q1 1 3 1q64 25 127 165q58 129 87 308q2 13 15 13h3q15 -2 13 -18q-28 -177 -90 -316q-68 -152 -144 -181q-2 -1 -7 -1 q-23 -1 -50 12t-45 30q-98 92 -105 331zM128.5 314q-1.5 -77 22.5 -188q2 3 5.5 11t5.5 12q33 70 78 213q23 74 33 128q11 61 5 82q-15 45 -56 45q-2 0 -4 -1h-3q-33 -25 -61 -126q-24 -99 -25.5 -176zM160 777q8 40 23 70t33 45.5t36 23t33 6t24 -10.5q4 -5 5.5 -9.5 t2 -7.5t-1.5 -8t-3.5 -7l-6 -8t-6.5 -8l-40 -56q-24 -30 -63 -30h-36z" />
<glyph unicode="&#xea;" horiz-adv-x="374" d="M0 383q0 87 39.5 162t102.5 96q30 8 66 8q8 0 22 -2q58 -5 77 -66q9 -33 -4 -97t-34 -131q-42 -137 -80 -217q-16 -36 -25 -52q14 -31 29 -45q1 1 3 1q64 25 127 165q58 129 87 308q2 13 15 13h3q15 -2 13 -18q-28 -177 -90 -316q-68 -152 -144 -181q-2 -1 -7 -1 q-23 -1 -50 12t-45 30q-98 92 -105 331zM14 774q41 66 80 101.5t82.5 42.5t91 -29t96.5 -115q-76 -6 -112 31l-65 68l-59 -63q-25 -25 -47 -30.5t-67 -5.5zM128.5 314q-1.5 -77 22.5 -188q2 3 5.5 11t5.5 12q33 70 78 213q23 74 33 128q11 61 5 82q-15 45 -56 45q-2 0 -4 -1 h-3q-33 -25 -61 -126q-24 -99 -25.5 -176z" />
<glyph unicode="&#xeb;" horiz-adv-x="374" d="M0 383q0 87 39.5 162t102.5 96q30 8 66 8q8 0 22 -2q58 -5 77 -66q9 -33 -4 -97t-34 -131q-42 -137 -80 -217q-16 -36 -25 -52q14 -31 29 -45q1 1 3 1q64 25 127 165q58 129 87 308q2 13 15 13h3q15 -2 13 -18q-28 -177 -90 -316q-68 -152 -144 -181q-2 -1 -7 -1 q-23 -1 -50 12t-45 30q-98 92 -105 331zM22 861q0 24 17 41t41 17t40.5 -17t16.5 -41t-16.5 -40.5t-40.5 -16.5t-41 16.5t-17 40.5zM128.5 314q-1.5 -77 22.5 -188q2 3 5.5 11t5.5 12q33 70 78 213q23 74 33 128q11 61 5 82q-15 45 -56 45q-2 0 -4 -1h-3q-33 -25 -61 -126 q-24 -99 -25.5 -176zM236 861q0 24 17 41t41 17t41 -17t17 -41t-17 -40.5t-41 -16.5t-41 16.5t-17 40.5z" />
<glyph unicode="&#xec;" horiz-adv-x="366" d="M0 547q3 60 4 67q15 34 65 34q7 0 21 -2q21 -3 35 -19t12 -36q-2 -46 0 -230q0 -8 1 -33.5t1.5 -35t2 -32.5t2.5 -35t3 -32.5t4 -35t5 -32t7 -33.5q9 -40 26 -51q31 12 64 55.5t62 108.5q58 129 87 308q2 13 16 13h2q15 -2 13 -18q-28 -177 -90 -316q-68 -152 -144 -181 q-2 -1 -6 -1q-61 -2 -88 29q-44 48 -72 165q-35 163 -33 343zM3 889.5v6t2 7.5t5 8q9 9 24 10.5t33 -6t36 -23t33 -45.5t23 -70h-36q-39 0 -63 30l-41 56q-2 2 -5.5 7t-5 7t-3.5 6t-2 6.5z" />
<glyph unicode="&#xed;" horiz-adv-x="366" d="M0 547q3 60 4 67q15 34 65 34q7 0 21 -2q21 -3 35 -19t12 -36q-2 -46 0 -230q0 -8 1 -33.5t1.5 -35t2 -32.5t2.5 -35t3 -32.5t4 -35t5 -32t7 -33.5q9 -40 26 -51q31 12 64 55.5t62 108.5q58 129 87 308q2 13 16 13h2q15 -2 13 -18q-28 -177 -90 -316q-68 -152 -144 -181 q-2 -1 -6 -1q-61 -2 -88 29q-44 48 -72 165q-35 163 -33 343zM0 777q8 40 23 70t33 45.5t36 23t33 6t24 -10.5q4 -5 5.5 -9.5l2.5 -7.5t-1.5 -8t-3.5 -6.5t-6 -8.5t-6 -8l-41 -56q-24 -30 -63 -30h-36z" />
<glyph unicode="&#xee;" horiz-adv-x="366" d="M0 547q3 60 4 67q15 34 65 34q7 0 21 -2q21 -3 35 -19t12 -36q-2 -46 0 -230q0 -8 1 -33.5t1.5 -35t2 -32.5t2.5 -35t3 -32.5t4 -35t5 -32t7 -33.5q9 -40 26 -51q31 12 64 55.5t62 108.5q58 129 87 308q2 13 16 13h2q15 -2 13 -18q-28 -177 -90 -316q-68 -152 -144 -181 q-2 -1 -6 -1q-61 -2 -88 29q-44 48 -72 165q-35 163 -33 343zM5 774q41 66 80 101.5t82.5 42.5t91 -29t96.5 -115q-75 -6 -111 31l-65 68l-60 -63q-25 -25 -47 -30.5t-67 -5.5z" />
<glyph unicode="&#xef;" horiz-adv-x="366" d="M0 547q3 60 4 67q15 34 65 34q7 0 21 -2q21 -3 35 -19t12 -36q-2 -46 0 -230q0 -8 1 -33.5t1.5 -35t2 -32.5t2.5 -35t3 -32.5t4 -35t5 -32t7 -33.5q9 -40 26 -51q31 12 64 55.5t62 108.5q58 129 87 308q2 13 16 13h2q15 -2 13 -18q-28 -177 -90 -316q-68 -152 -144 -181 q-2 -1 -6 -1q-61 -2 -88 29q-44 48 -72 165q-35 163 -33 343zM1 861q0 24 17 41t41 17t41 -17t17 -41t-17 -40.5t-41 -16.5t-41 16.5t-17 40.5zM216 861q0 24 16.5 41t40.5 17t41 -17t17 -41t-17 -40.5t-41 -16.5t-40.5 16.5t-16.5 40.5z" />
<glyph unicode="&#xf0;" d="M0 285q-2 61 6.5 125.5t34.5 128.5t66 91q32 20 56 20q5 0 15 -2q49 -3 89 -57q0 145 3 166q10 23 34.5 30t51.5 2q21 -3 35 -19t12 -36q-4 -75 0 -374q8 -191 26 -268q9 -40 26 -51q31 12 64 55.5t62 108.5q58 129 87 308q2 13 16 13h2q15 -2 13 -18q-28 -177 -90 -316 q-68 -152 -144 -181q-2 -1 -6 -1q-62 -2 -89 29q-19 21 -33.5 51.5t-21.5 53.5t-16 60q-13 62 -21 128q-7 -50 -12.5 -81.5t-18 -82.5t-26.5 -81t-37.5 -54t-52.5 -24q-56 1 -87 64.5t-40 152.5zM2 751q0 17 5 31l7 -3q-1 -9 16 -15t45 -8q29 -3 68 -3t74 1.5t36 1.5 q105 1 132 -7q48 -14 56 -65q5 -30 -16 -20q-6 4 -33 7q-34 3 -122 1.5t-152 4.5q-70 7 -96 23q-18 13 -20 51zM135 104q1 -17 5 -33q7 -20 15 -21q68 25 113 391q-2 35 -2 106q-21 27 -36 40q-29 22 -50 26q-28 -24 -42.5 -210t-2.5 -299z" />
<glyph unicode="&#xf1;" d="M0 547q3 60 4 67q15 34 65 34q7 0 21 -2q21 -3 35 -19t12 -36q-2 -46 0 -230q0 -3 0.5 -9t0.5 -9q19 61 44 119q59 134 125 172q27 20 70 12q21 -3 35 -19t12 -36q-3 -61 -1 -230q0 -8 1 -33.5t1.5 -35t2 -32.5t2.5 -35t3 -32.5t4 -35t5 -32t7 -33.5q9 -39 27 -51 q31 12 64 55.5t62 108.5q58 129 87 308q2 13 15 13h3q14 -2 12 -18q-29 -180 -89 -316q-67 -152 -145 -181q-2 -1 -6 -1q-61 -2 -88 29q-44 48 -72 165q-35 163 -33 343q1 10 1 30q-39 -44 -77 -127q-37 -81 -67 -208q5 -83 20 -150q2 -7 6 -19.5t7.5 -22.5t5 -19.5 t-1.5 -15t-11 -5.5q-41 3 -64 29q-44 48 -72 165q-35 163 -33 343zM0.5 811.5q2.5 31.5 32.5 69.5q36 39 89 39q27 0 50 -10q22 -8 45 -28q24 -21 43 -32q19 -10 36 -10q26 0 40 23q23 42 51 38q23 -4 22 -33q-1 -28 -30 -63q-35 -39 -91 -39q-24 0 -51 10q-24 11 -44 29 q-23 22 -41 33q-15 11 -37 11q-26 0 -40 -23q-28 -51 -56 -48q-21 2 -18.5 33.5z" />
<glyph unicode="&#xf2;" horiz-adv-x="509" d="M0 748q-2 106 68 185q39 43 87 64q37 16 79 18h7q14 0 21 -1q58 -7 109 -44.5t77 -91.5v-1q22 -52 27 -111.5t0 -104.5t-17 -117q-3 -14 -4 -22q0 -3 -2 -11t-2 -11q35 6 54 15q31 15 48 27q13 9 22 -4q9 -12 -4 -21q-30 -22 -53 -31q-26 -12 -73 -19q-31 -157 -80 -269 q-68 -158 -146 -187q-2 -1 -6 -1q-61 -2 -88 29q-44 48 -72 165q-35 163 -33 343q3 59 4 66q5 10 7 12q-30 60 -30 123zM31 748q0 -53 25 -105q24 8 54 3q21 -3 34.5 -19t11.5 -37q-1 -20 -1 -59q38 -24 91 -36q49 -10 131 -4q28 2 41 4q1 5 2.5 16t2.5 16q24 148 23 205 q-1 72 -27 133q-22 46 -66.5 79t-93.5 39q-6 1 -18 1h-6q-32 -1 -68 -16q-42 -18 -76 -56q-62 -69 -60 -164zM154 496q0 -45 2 -135q0 -8 1 -33.5t1.5 -35t2 -32.5t2.5 -35t3 -32.5t4 -35t5 -32t7 -33.5q8 -36 27 -51q65 26 126 169q46 107 76 253q-6 -1 -16 -2t-16 -1 q-87 -7 -139 4q-44 9 -86 32zM158.5 1180q0.5 3 2 7.5t5.5 9.5q9 9 23.5 10.5t33 -6t36 -23t32.5 -45.5t23 -70h-35q-39 0 -63 31l-41 56q-2 2 -6.5 8t-5.5 8t-3 6.5t-1.5 7.5z" />
<glyph unicode="&#xf3;" horiz-adv-x="509" d="M0 748q-2 106 68 185q39 43 87 64q37 16 79 18h7q14 0 21 -1q58 -7 109 -44.5t77 -91.5v-1q22 -52 27 -111.5t0 -104.5t-17 -117q-3 -14 -4 -22q0 -3 -2 -11t-2 -11q35 6 54 15q31 15 48 27q13 9 22 -4q9 -12 -4 -21q-30 -22 -53 -31q-26 -12 -73 -19q-31 -157 -80 -269 q-68 -158 -146 -187q-2 -1 -6 -1q-61 -2 -88 29q-44 48 -72 165q-35 163 -33 343q3 59 4 66q5 10 7 12q-30 60 -30 123zM31 748q0 -53 25 -105q24 8 54 3q21 -3 34.5 -19t11.5 -37q-1 -20 -1 -59q38 -24 91 -36q49 -10 131 -4q28 2 41 4q1 5 2.5 16t2.5 16q24 148 23 205 q-1 72 -27 133q-22 46 -66.5 79t-93.5 39q-6 1 -18 1h-6q-32 -1 -68 -16q-42 -18 -76 -56q-62 -69 -60 -164zM154 496q0 -45 2 -135q0 -8 1 -33.5t1.5 -35t2 -32.5t2.5 -35t3 -32.5t4 -35t5 -32t7 -33.5q8 -36 27 -51q65 26 126 169q46 107 76 253q-6 -1 -16 -2t-16 -1 q-87 -7 -139 4q-44 9 -86 32zM168 1063q8 40 23 70t33 45.5t36 23t33 6t24 -10.5q4 -5 5.5 -9.5t2 -7.5t-1.5 -7.5t-3 -6.5t-5.5 -8t-6.5 -8l-41 -56q-24 -31 -63 -31h-36z" />
<glyph unicode="&#xf4;" horiz-adv-x="509" d="M0 748q-2 106 68 185q39 43 87 64q37 16 79 18h7q14 0 21 -1q58 -7 109 -44.5t77 -91.5v-1q22 -52 27 -111.5t0 -104.5t-17 -117q-3 -14 -4 -22q0 -3 -2 -11t-2 -11q35 6 54 15q31 15 48 27q13 9 22 -4q9 -12 -4 -21q-30 -22 -53 -31q-26 -12 -73 -19q-31 -157 -80 -269 q-68 -158 -146 -187q-2 -1 -6 -1q-61 -2 -88 29q-44 48 -72 165q-35 163 -33 343q3 59 4 66q5 10 7 12q-30 60 -30 123zM31 748q0 -53 25 -105q24 8 54 3q21 -3 34.5 -19t11.5 -37q-1 -20 -1 -59q38 -24 91 -36q49 -10 131 -4q28 2 41 4q1 5 2.5 16t2.5 16q24 148 23 205 q-1 72 -27 133q-22 46 -66.5 79t-93.5 39q-6 1 -18 1h-6q-32 -1 -68 -16q-42 -18 -76 -56q-62 -69 -60 -164zM77 1061q41 66 80 101.5t82.5 42.5t91 -29t96.5 -115q-75 -6 -111 31l-65 67l-60 -62q-25 -25 -47 -30.5t-67 -5.5zM154 496q0 -45 2 -135q0 -8 1 -33.5t1.5 -35 t2 -32.5t2.5 -35t3 -32.5t4 -35t5 -32t7 -33.5q8 -36 27 -51q65 26 126 169q46 107 76 253q-6 -1 -16 -2t-16 -1q-87 -7 -139 4q-44 9 -86 32z" />
<glyph unicode="&#xf5;" horiz-adv-x="509" d="M0 748q-2 106 68 185q39 43 87 64q37 16 79 18h7q14 0 21 -1q58 -7 109 -44.5t77 -91.5v-1q22 -52 27 -111.5t0 -104.5t-17 -117q-3 -14 -4 -22q0 -3 -2 -11t-2 -11q35 6 54 15q31 15 48 27q13 9 22 -4q9 -12 -4 -21q-30 -22 -53 -31q-26 -12 -73 -19q-31 -157 -80 -269 q-68 -158 -146 -187q-2 -1 -6 -1q-61 -2 -88 29q-44 48 -72 165q-35 163 -33 343q3 59 4 66q5 10 7 12q-30 60 -30 123zM31 748q0 -53 25 -105q24 8 54 3q21 -3 34.5 -19t11.5 -37q-1 -20 -1 -59q38 -24 91 -36q49 -10 131 -4q28 2 41 4q1 5 2.5 16t2.5 16q24 148 23 205 q-1 72 -27 133q-22 46 -66.5 79t-93.5 39q-6 1 -18 1h-6q-32 -1 -68 -16q-42 -18 -76 -56q-62 -69 -60 -164zM37 1094q1 32 33 73q37 40 89 40q26 0 49 -10q22 -8 46 -29q20 -18 43 -31q20 -11 35 -11q26 0 41 24q23 42 51 38q23 -4 22 -33q-1 -28 -30 -63q-34 -39 -91 -39 q-27 0 -51 9q-24 10 -45 30q-20 18 -41 32q-16 12 -36 12q-26 0 -40 -23q-27 -50 -55 -49q-20 1 -20 30zM154 496q0 -45 2 -135q0 -8 1 -33.5t1.5 -35t2 -32.5t2.5 -35t3 -32.5t4 -35t5 -32t7 -33.5q8 -36 27 -51q65 26 126 169q46 107 76 253q-6 -1 -16 -2t-16 -1 q-87 -7 -139 4q-44 9 -86 32z" />
<glyph unicode="&#xf6;" horiz-adv-x="509" d="M0 748q-2 106 68 185q39 43 87 64q37 16 79 18h7q14 0 21 -1q58 -7 109 -44.5t77 -91.5v-1q22 -52 27 -111.5t0 -104.5t-17 -117q-3 -14 -4 -22q0 -3 -2 -11t-2 -11q35 6 54 15q31 15 48 27q13 9 22 -4q9 -12 -4 -21q-30 -22 -53 -31q-26 -12 -73 -19q-31 -157 -80 -269 q-68 -158 -146 -187q-2 -1 -6 -1q-61 -2 -88 29q-44 48 -72 165q-35 163 -33 343q3 59 4 66q5 10 7 12q-30 60 -30 123zM31 748q0 -53 25 -105q24 8 54 3q21 -3 34.5 -19t11.5 -37q-1 -20 -1 -59q38 -24 91 -36q49 -10 131 -4q28 2 41 4q1 5 2.5 16t2.5 16q24 148 23 205 q-1 72 -27 133q-22 46 -66.5 79t-93.5 39q-6 1 -18 1h-6q-32 -1 -68 -16q-42 -18 -76 -56q-62 -69 -60 -164zM85 1148q0 24 17 41t41 17t41 -17t17 -41t-17 -41t-41 -17t-41 17t-17 41zM154 496q0 -45 2 -135q0 -8 1 -33.5t1.5 -35t2 -32.5t2.5 -35t3 -32.5t4 -35t5 -32 t7 -33.5q8 -36 27 -51q65 26 126 169q46 107 76 253q-6 -1 -16 -2t-16 -1q-87 -7 -139 4q-44 9 -86 32zM300 1148q0 24 16.5 41t40.5 17t41 -17t17 -41t-17 -41t-41 -17t-40.5 17t-16.5 41z" />
<glyph unicode="&#xf7;" horiz-adv-x="669" d="M74 296q0 20 4 31l8 -3q-1 -9 16 -15t45 -8q29 -3 68 -3t74 1.5t36 1.5q101 2 158 -4q62 -6 95 -21t38 -47q2 -14 -2.5 -19.5t-14.5 -0.5q-9 5 -33 8q-34 3 -173.5 1t-203.5 4q-67 6 -95 24q-18 13 -20 50zM254 90q0 34 23.5 57.5t57.5 23.5t57 -23.5t23 -57.5t-23 -57.5 t-57 -23.5t-57.5 23.5t-23.5 57.5zM254 423q0 34 23.5 57.5t57.5 23.5t57 -23.5t23 -57.5t-23 -57t-57 -23t-57.5 23t-23.5 57z" />
<glyph unicode="&#xf8;" horiz-adv-x="509" d="M0 748q-2 106 68 185q39 43 87 64q37 16 79 18h7q14 0 21 -1q58 -7 109 -44.5t77 -91.5v-1q22 -52 27 -111.5t0 -104.5t-17 -117q-3 -14 -4 -22q0 -3 -2 -11t-2 -11q35 6 54 15q31 15 48 27q13 9 22 -4q9 -12 -4 -21q-30 -22 -53 -31q-26 -12 -73 -19q-31 -157 -80 -269 q-68 -158 -146 -187q-2 -1 -6 -1q-61 -2 -88 29q-44 48 -72 165q-35 163 -33 343q3 59 4 66q5 10 7 12q-30 60 -30 123zM31 748q0 -53 25 -105q24 8 54 3q21 -3 34.5 -19t11.5 -37q-1 -20 -1 -59q38 -24 91 -36q49 -10 131 -4q28 2 41 4q1 5 2.5 16t2.5 16q24 148 23 205 q-1 72 -27 133q-22 46 -66.5 79t-93.5 39q-6 1 -18 1h-6q-32 -1 -68 -16q-42 -18 -76 -56q-62 -69 -60 -164zM154 496q0 -45 2 -135q0 -8 1 -33.5t1.5 -35t2 -32.5t2.5 -35t3 -32.5t4 -35t5 -32t7 -33.5q8 -36 27 -51q65 26 126 169q46 107 76 253q-6 -1 -16 -2t-16 -1 q-87 -7 -139 4q-44 9 -86 32z" />
<glyph unicode="&#xf9;" horiz-adv-x="690" d="M0 284q-2 61 6.5 125.5t34.5 128.5t66 91q17 12 32 16q14 5 21.5 0.5t5.5 -20.5q-1 -10 -9.5 -52.5t-15.5 -92t-11 -150.5t5 -227q1 -17 5 -33q7 -19 15 -20q57 37 109 155q54 123 82 281v61v21t0.5 25t2.5 21q15 34 66 34q7 0 21 -2q21 -3 35 -19t12 -36q-3 -61 -1 -230 q0 -8 1 -33.5t1.5 -35t2 -32.5t2.5 -35t3 -32.5t4 -35t5 -32t7 -33.5q9 -39 27 -51q63 25 125 164q59 132 88 308q2 13 15 13h2q15 -2 13 -18q-29 -180 -89 -316q-67 -152 -145 -181q-2 -1 -6 -1q-61 -2 -88 29q-44 48 -72 165q-17 78 -25 168q-28 -107 -61 -180 q-48 -111 -105 -158q-26 -26 -56 -26q-56 1 -87 64.5t-40 152.5zM163 889.5v6t2 7.5t5 8q9 9 24 10.5t33 -6t36 -23t33 -45.5t23 -70h-36q-39 0 -63 30l-41 56q-2 2 -5.5 7t-5 7t-3.5 6t-2 6.5z" />
<glyph unicode="&#xfa;" horiz-adv-x="690" d="M0 284q-2 61 6.5 125.5t34.5 128.5t66 91q17 12 32 16q14 5 21.5 0.5t5.5 -20.5q-1 -10 -9.5 -52.5t-15.5 -92t-11 -150.5t5 -227q1 -17 5 -33q7 -19 15 -20q57 37 109 155q54 123 82 281v61v21t0.5 25t2.5 21q15 34 66 34q7 0 21 -2q21 -3 35 -19t12 -36q-3 -61 -1 -230 q0 -8 1 -33.5t1.5 -35t2 -32.5t2.5 -35t3 -32.5t4 -35t5 -32t7 -33.5q9 -39 27 -51q63 25 125 164q59 132 88 308q2 13 15 13h2q15 -2 13 -18q-29 -180 -89 -316q-67 -152 -145 -181q-2 -1 -6 -1q-61 -2 -88 29q-44 48 -72 165q-17 78 -25 168q-28 -107 -61 -180 q-48 -111 -105 -158q-26 -26 -56 -26q-56 1 -87 64.5t-40 152.5zM160 777q8 40 23 70t33 45.5t36 23t33 6t24 -10.5q4 -5 5.5 -9.5t2 -7.5t-1.5 -8t-3.5 -7l-6 -8t-6.5 -8l-40 -56q-24 -30 -63 -30h-36z" />
<glyph unicode="&#xfb;" horiz-adv-x="690" d="M0 284q-2 61 6.5 125.5t34.5 128.5t66 91q17 12 32 16q14 5 21.5 0.5t5.5 -20.5q-1 -10 -9.5 -52.5t-15.5 -92t-11 -150.5t5 -227q1 -17 5 -33q7 -19 15 -20q57 37 109 155q54 123 82 281v61v21t0.5 25t2.5 21q15 34 66 34q7 0 21 -2q21 -3 35 -19t12 -36q-3 -61 -1 -230 q0 -8 1 -33.5t1.5 -35t2 -32.5t2.5 -35t3 -32.5t4 -35t5 -32t7 -33.5q9 -39 27 -51q63 25 125 164q59 132 88 308q2 13 15 13h2q15 -2 13 -18q-29 -180 -89 -316q-67 -152 -145 -181q-2 -1 -6 -1q-61 -2 -88 29q-44 48 -72 165q-17 78 -25 168q-28 -107 -61 -180 q-48 -111 -105 -158q-26 -26 -56 -26q-56 1 -87 64.5t-40 152.5zM87 774q41 66 80 101.5t82.5 42.5t91 -29t96.5 -115q-75 -6 -111 31l-65 68l-60 -63q-25 -25 -47 -30.5t-67 -5.5z" />
<glyph unicode="&#xfc;" horiz-adv-x="690" d="M0 284q-2 61 6.5 125.5t34.5 128.5t66 91q17 12 32 16q14 5 21.5 0.5t5.5 -20.5q-1 -10 -9.5 -52.5t-15.5 -92t-11 -150.5t5 -227q1 -17 5 -33q7 -19 15 -20q57 37 109 155q54 123 82 281v61v21t0.5 25t2.5 21q15 34 66 34q7 0 21 -2q21 -3 35 -19t12 -36q-3 -61 -1 -230 q0 -8 1 -33.5t1.5 -35t2 -32.5t2.5 -35t3 -32.5t4 -35t5 -32t7 -33.5q9 -39 27 -51q63 25 125 164q59 132 88 308q2 13 15 13h2q15 -2 13 -18q-29 -180 -89 -316q-67 -152 -145 -181q-2 -1 -6 -1q-61 -2 -88 29q-44 48 -72 165q-17 78 -25 168q-28 -107 -61 -180 q-48 -111 -105 -158q-26 -26 -56 -26q-56 1 -87 64.5t-40 152.5z" />
<glyph unicode="&#xfd;" horiz-adv-x="620" d="M0 284q-2 61 6.5 125.5t34.5 128.5t66 91q17 12 32 16q14 5 21.5 0.5t5.5 -20.5q-1 -10 -9.5 -52.5t-15.5 -92t-11 -150.5t5 -227q1 -17 5 -33q7 -20 15 -21q56 37 109 156q50 112 79 266q-3 72 -11 162l-2 22q0 23 24 39t53 16q51 0 59 -45q20 -112 20 -299v-84 q0 -16 -1 -99.5t-4 -133.5q56 37 109 156q59 132 88 308q2 13 15 13h2q15 -2 13 -18q-29 -180 -89 -316q-66 -149 -141 -180q-25 -329 -192 -412q-30 -8 -65 -8q-71 7 -104.5 51t-33.5 110q1 18 7 35.5t12.5 31.5t20 29.5t22.5 25.5t29 24t29.5 21t34 20.5t32.5 18t35 18 l33 16.5l3 33q2 26 4 86t3 87v67q0 14 -0.5 42t-0.5 42q-25 -90 -55 -158q-48 -111 -105 -158q-26 -26 -56 -26q-56 1 -87 64.5t-40 152.5zM113 -247q0 -53 26.5 -89t81.5 -42q86 10 115 333q-93 -35 -155.5 -88t-67.5 -114zM160 777q8 40 23 70t33 45.5t36 23t33 6 t24 -10.5q4 -5 5.5 -9.5t2 -7.5t-1.5 -8t-3.5 -7l-6 -8t-6.5 -8l-40 -56q-24 -30 -63 -30h-36z" />
<glyph unicode="&#xfe;" horiz-adv-x="516" d="M0 282v83q0 188 20 300q8 45 59 45q28 0 52 -16t24 -39l-1 -22q-1 -8 -3 -23.5t-2 -22.5l3 3q17 24 41.5 41t48.5 18q33 5 71 -19q53 -37 82 -138q78 7 116 23q31 15 48 27q12 9 21 -3q9 -13 -3 -22q-25 -18 -54 -30q-41 -18 -120 -25q19 -82 17 -177l-4 -59 q-9 -89 -40 -152.5t-87 -64.5q-24 0 -44.5 14t-36 47.5t-25 56.5t-19.5 75.5t-12.5 67.5t-9.5 68q-2 14 -3 20q-1 -31 -1 -92v-67q1 -27 3 -87t4 -86l3 -33l33 -16.5t35 -18t32.5 -18t34 -20.5t29.5 -21t29 -24t22.5 -25.5t20 -29.5t12.5 -31.5t7 -35.5q0 -66 -33.5 -110 t-104.5 -51q-70 0 -107 25.5t-63 71.5q-47 82 -69 250t-26 343zM5 817q0 20 4 31l8 -3q-1 -9 16 -15t45 -8q55 -3 101.5 -0.5t80.5 3.5t56 -16t28 -59q2 -14 -2.5 -19.5t-14.5 -0.5q-6 4 -33 7q-34 3 -71.5 1.5t-101.5 4.5q-70 7 -96 23q-18 13 -20 51zM144 505 q10 -86 17.5 -136.5t22.5 -133.5t35.5 -129.5t45.5 -55.5q8 1 15 21q4 16 5 33q16 150 -7 356q-22 2 -32 4q-55 11 -102 41zM149 540q46 -33 103 -45q6 -1 22 -3q-13 103 -33 121q-24 -6 -50 -26q-15 -14 -42 -47zM151 -45q29 -323 114 -333q55 6 82 42t27 89 q-5 61 -67.5 114t-155.5 88z" />
<glyph unicode="&#xff;" horiz-adv-x="641" d="M0 284q-2 61 6.5 125.5t34.5 128.5t66 91q17 12 32 16q14 5 21.5 0.5t5.5 -20.5q-1 -10 -9.5 -52.5t-15.5 -92t-11 -150.5t5 -227q1 -17 5 -33q7 -20 15 -21q56 37 109 156q50 112 79 266q-3 72 -11 162l-2 22q0 23 24 39t53 16q51 0 59 -45q20 -112 20 -299v-84 q0 -16 -1 -99.5t-4 -133.5q56 37 109 156q59 132 88 308q2 13 15 13h2q15 -2 13 -18q-29 -180 -89 -316q-66 -149 -141 -180q-25 -329 -192 -412q-30 -8 -65 -8q-71 7 -104.5 51t-33.5 110q1 18 7 35.5t12.5 31.5t20 29.5t22.5 25.5t29 24t29.5 21t34 20.5t32.5 18t35 18 l33 16.5l3 33q2 26 4 86t3 87v67q0 14 -0.5 42t-0.5 42q-25 -90 -55 -158q-48 -111 -105 -158q-26 -26 -56 -26q-56 1 -87 64.5t-40 152.5zM113 -247q0 -53 26.5 -89t81.5 -42q86 10 115 333q-93 -35 -155.5 -88t-67.5 -114zM120 861q0 24 17 41t41 17t40.5 -17t16.5 -41 t-16.5 -40.5t-40.5 -16.5t-41 16.5t-17 40.5zM335 861q0 24 16.5 41t40.5 17t41 -17t17 -41t-17 -40.5t-41 -16.5t-40.5 16.5t-16.5 40.5z" />
<glyph unicode="&#x2000;" horiz-adv-x="818" />
<glyph unicode="&#x2001;" horiz-adv-x="1637" />
<glyph unicode="&#x2002;" horiz-adv-x="818" />
<glyph unicode="&#x2003;" horiz-adv-x="1637" />
<glyph unicode="&#x2004;" horiz-adv-x="545" />
<glyph unicode="&#x2005;" horiz-adv-x="409" />
<glyph unicode="&#x2006;" horiz-adv-x="272" />
<glyph unicode="&#x2007;" horiz-adv-x="272" />
<glyph unicode="&#x2008;" horiz-adv-x="204" />
<glyph unicode="&#x2009;" horiz-adv-x="327" />
<glyph unicode="&#x200a;" horiz-adv-x="90" />
<glyph unicode="&#x2010;" horiz-adv-x="671" d="M82 360q0 20 4 31l8 -3q-1 -9 16 -15t45 -8q22 -2 53 -2.5t54 0t45.5 1t25.5 0.5q109 2 158 -3q124 -11 133 -69q2 -14 -2.5 -19t-14.5 0q-6 4 -33 7q-33 3 -173 1.5t-203 4.5q-70 7 -96 23q-18 13 -20 51z" />
<glyph unicode="&#x2011;" horiz-adv-x="671" d="M82 360q0 20 4 31l8 -3q-1 -9 16 -15t45 -8q22 -2 53 -2.5t54 0t45.5 1t25.5 0.5q109 2 158 -3q124 -11 133 -69q2 -14 -2.5 -19t-14.5 0q-6 4 -33 7q-33 3 -173 1.5t-203 4.5q-70 7 -96 23q-18 13 -20 51z" />
<glyph unicode="&#x2012;" horiz-adv-x="671" d="M82 360q0 20 4 31l8 -3q-1 -9 16 -15t45 -8q22 -2 53 -2.5t54 0t45.5 1t25.5 0.5q109 2 158 -3q124 -11 133 -69q2 -14 -2.5 -19t-14.5 0q-6 4 -33 7q-33 3 -173 1.5t-203 4.5q-70 7 -96 23q-18 13 -20 51z" />
<glyph unicode="&#x2013;" horiz-adv-x="1152" d="M82 360q0 20 8 31l15 -3q-2 -9 30 -15t85 -8q41 -2 99.5 -2.5t102 0t86 1t48.5 0.5q205 2 298 -3q234 -11 251 -69q4 -14 -4.5 -19t-27.5 0q-12 4 -63 7q-62 3 -326 1.5t-383 4.5q-132 7 -181 23q-34 13 -38 51z" />
<glyph unicode="&#x2014;" horiz-adv-x="2175" d="M82 360q0 20 15 31l30 -3q-3 -9 61 -15t170 -8q83 -2 200 -2.5t203.5 0t171.5 1t96 0.5q412 2 597 -3q468 -11 502 -69q7 -14 -10 -19t-54 0q-23 4 -125 7q-125 3 -653 1.5t-766 4.5q-264 7 -363 23q-67 13 -75 51z" />
<glyph unicode="&#x2018;" horiz-adv-x="223" d="M82 1116q2 28 17.5 46t35.5 16q19 -1 31 -21.5t10 -48.5q-3 -40 -49 -166q-13 -36 -15 -33q4 62 -4 105.5t-17.5 66t-8.5 35.5z" />
<glyph unicode="&#x2019;" horiz-adv-x="223" d="M82 1116q2 28 17.5 46t35.5 16q19 -1 31 -21.5t10 -48.5q-3 -40 -49 -166q-13 -36 -15 -33q4 62 -4 105.5t-17.5 66t-8.5 35.5z" />
<glyph unicode="&#x201c;" horiz-adv-x="335" d="M82 1116q2 27 17 45t34 18h2q19 -1 31 -22t10 -49q-3 -40 -49 -166q-13 -36 -15 -33q4 62 -4 105.5t-17.5 66t-8.5 35.5zM193 1116q2 27 16.5 45t33.5 18h2q20 -2 32 -22.5t10 -48.5q-3 -40 -49 -166q-14 -36 -16 -33q4 62 -4 105.5t-17 66t-8 35.5z" />
<glyph unicode="&#x201d;" horiz-adv-x="335" d="M82 1116q2 27 17 45t34 18h2q19 -1 31 -22t10 -49q-3 -40 -49 -166q-13 -36 -15 -33q4 62 -4 105.5t-17.5 66t-8.5 35.5zM193 1116q2 27 16.5 45t33.5 18h2q20 -2 32 -22.5t10 -48.5q-3 -40 -49 -166q-14 -36 -16 -33q4 62 -4 105.5t-17 66t-8 35.5z" />
<glyph unicode="&#x202f;" horiz-adv-x="327" />
<glyph unicode="&#x205f;" horiz-adv-x="409" />
<glyph unicode="&#x20ac;" horiz-adv-x="690" d="M82 592q0 175 41 342q107 401 360 407q69 0 107 -53.5t38 -137.5q0 -29 -6 -56q-10 -46 -31 -76q-61 -84 -167.5 -83.5t-166.5 75.5q-14 -50 -23 -94q-16 -79 -24 -166v-6q59 67 146 88q65 14 114 -28l-14 -18q-40 33 -93 22q-133 -30 -156 -314q11 -155 52 -281.5 t105 -163.5q1 -1 3 -1t3 -1q25 -10 45 2q9 5 28 24q53 56 100 179t69 261q2 13 15 13h3q14 -2 12 -18q-24 -146 -70 -270.5t-106 -186.5q-18 -18 -36 -29t-38 -11q-7 -1 -20 -1q-128 0 -210 167q-80 166 -80 415zM265 1039q44 -71 139 -81t156 57q43 52 45 137 q0 69 -29.5 116t-90.5 48q-137 0 -220 -277z" />
<glyph unicode="&#x25fc;" horiz-adv-x="655" d="M0 0v655h655v-655h-655z" />
</font>
</defs>
</svg>
